<svg version="1.1" xmlns="http://www.w3.org/2000/svg" xmlns:xlink="http://www.w3.org/1999/xlink">
    <symbol id="logo" viewBox="0 0 133 107">
        <g id="Page-3" stroke="none" stroke-width="1" fill="none" fill-rule="evenodd">
            <g id="Логотип-Dis-Copy" transform="translate(-160.000000, -159.000000)" fill="#FFFFFF">
                <g id="Group-7" transform="translate(160.000000, 159.000000)">
                    <g id="Group-Copy">
                        <g id="Group-6" transform="translate(28.380303, 40.080688)">
                            <path d="M38.1106925,21.0688407 L25.8897866,22.6720119 C26.3531385,24.7904881 28.206546,25.8210981 30.6391434,25.8210981 C32.376713,25.8210981 34.2301205,25.4775614 35.6201762,24.8477442 C35.9097711,24.733232 36.257285,24.9050003 36.373123,25.1912808 L37.6473407,28.5121354 C37.7631786,28.798416 37.5894217,29.1419527 37.2998267,29.2564649 C35.5043382,29.9435382 32.8400649,30.4588433 30.1757915,30.4588433 C23.3992702,30.4588433 20.039969,26.0501226 20.039969,20.3245113 C20.039969,14.3698756 23.5151082,10.2474354 29.4228447,10.2474354 C35.1568243,10.2474354 38.1686115,14.0263389 38.1686115,19.3511573 C38.2265305,19.8664624 38.2265305,20.4390235 38.1106925,21.0688407 L38.1106925,21.0688407 L38.1106925,21.0688407 Z M29.3070067,14.3126194 C27.2219232,14.3126194 25.5422727,15.7440223 25.5422727,18.9503646 L32.434632,18.0915228 C32.434632,15.6867661 31.2183333,14.3126194 29.3070067,14.3126194 L29.3070067,14.3126194 L29.3070067,14.3126194 Z" id="Shape"/>
                            <path d="M56.52893,30.4015871 C54.2121705,30.4015871 51.8954111,29.8862821 50.3895175,29.2564649 C50.0999226,29.1419527 49.9840846,28.798416 50.0999226,28.5121354 L51.5478972,25.1340247 C51.6637352,24.8477442 52.0112491,24.6759759 52.300844,24.8477442 C53.4013047,25.3630492 55.2547123,25.8210981 56.355173,25.8210981 C57.7452287,25.8210981 58.6140135,25.1912808 58.6140135,24.2179269 C58.6140135,23.1300608 57.5135527,22.6147558 56.1234971,22.1567068 C53.8067376,21.3551213 50.3895175,20.1527429 50.3895175,16.2020711 C50.3895175,12.594936 53.1696288,10.2474354 57.9769046,10.2474354 C60.351583,10.2474354 62.3208285,10.7054843 63.8267222,11.3925577 C64.1163171,11.5070699 64.2321551,11.8506065 64.1163171,12.1368871 L62.7841804,15.0569489 C62.6683424,15.3432294 62.3208285,15.4577417 62.0312336,15.3432294 C61.1624488,14.9424366 59.7723932,14.5416439 58.7877704,14.5416439 C57.3977148,14.5416439 56.52893,15.1714611 56.52893,16.144815 C56.52893,17.3471934 57.6293907,17.8052423 59.0773653,18.3205473 C61.4520437,19.1221329 64.8692639,20.2099991 64.8692639,24.2751831 C64.8692639,27.9968303 62.0891526,30.4015871 56.52893,30.4015871 L56.52893,30.4015871 L56.52893,30.4015871 Z" id="Shape"/>
                            <path d="M9.96206553,10.2474354 C8.62992886,10.2474354 7.29779219,10.5909721 6.19733146,11.049021 L6.19733146,2.40334796 C6.19733146,2.05981126 5.90773653,1.77353068 5.56022262,1.8307868 L0.695027828,2.46060408 C0.405432899,2.51786019 0.173756957,2.74688457 0.173756957,3.03316515 L0.173756957,29.4282332 C0.173756957,29.7717699 0.405432899,30.0007943 0.752946813,30.0007943 L5.61814161,30.0007943 C5.96565552,30.0007943 6.19733146,29.7717699 6.19733146,29.4282332 L6.19733146,15.4004856 C6.77652132,15.114205 7.58738712,14.8851805 8.39825292,14.8851805 C10.3095794,14.8851805 11.2362832,15.8012784 11.2362832,17.5189618 L11.2362832,29.4282332 C11.2362832,29.7717699 11.4679592,30.0007943 11.8154731,30.0007943 L16.6806679,30.0007943 C17.0281818,30.0007943 17.2598577,29.7717699 17.2598577,29.4282332 L17.2598577,16.8891445 C17.2019387,12.594936 14.6535034,10.2474354 9.96206553,10.2474354 L9.96206553,10.2474354 L9.96206553,10.2474354 Z" id="Shape"/>
                            <path d="M67.6493752,11.8506065 L67.6493752,29.3709771 C67.6493752,29.7145137 67.8810512,29.9435382 68.2285651,29.9435382 L73.0937599,29.9435382 C73.4412738,29.9435382 73.6729497,29.7145137 73.6729497,29.3709771 L73.6729497,11.2207893 C73.6729497,10.8772526 73.3833548,10.5909721 73.0358409,10.6482282 L68.1706461,11.2780455 C67.8810512,11.3353016 67.6493752,11.564326 67.6493752,11.8506065 L67.6493752,11.8506065 L67.6493752,11.8506065 Z" id="Shape"/>
                            <path d="M41.2962368,5.78145856 L41.2962368,29.3709771 C41.2962368,29.7145137 41.5279127,29.9435382 41.8754266,29.9435382 L46.7406214,29.9435382 C47.0881353,29.9435382 47.3198113,29.7145137 47.3198113,29.3709771 L47.3198113,5.15164137 C47.3198113,4.80810467 47.0302163,4.52182409 46.6827024,4.57908021 L41.8175076,5.20889748 C41.4699937,5.2661536 41.2962368,5.49517806 41.2962368,5.78145856 L41.2962368,5.78145856 L41.2962368,5.78145856 Z" id="Shape"/>
                        </g>
                        <path d="M111.551966,42.3122678 C111.551966,30.8610451 102.169091,21.5855549 90.5852935,21.5855549 L90.5852935,21.5855549 C80.2757141,21.5855549 71.7037042,28.9143373 69.9661346,38.5906204 C69.9082157,38.9914132 70.2557296,39.2776938 70.6032435,39.2776938 L75.7580332,38.5906204 C75.9897091,38.5333643 76.1634661,38.418852 76.2213851,38.1898277 C78.0747926,31.8916552 84.0404481,27.3111662 91.1065644,27.5401906 C99.2152224,27.8264712 105.586311,34.6399486 105.586311,42.6558045 L105.586311,47.6943424 C105.586311,48.037879 105.817987,48.2669035 106.165501,48.2669035 L111.32029,48.2669035 C119.428948,48.2669035 126.321308,54.5650759 126.610903,62.5809317 C126.842579,70.9403242 120.066057,77.8110577 111.667804,77.8110577 L70.3136486,77.8110577 C69.9661346,77.8110577 69.7344587,78.0400822 69.7344587,78.3836189 L69.7344587,83.1931323 C69.7344587,83.536669 69.9661346,83.7656935 70.3136486,83.7656935 L111.667804,83.7656935 C123.251601,83.7656935 132.634477,74.4902032 132.634477,63.0389806 L132.634477,63.0389806 C132.518639,51.5877581 123.135763,42.3122678 111.551966,42.3122678 L111.551966,42.3122678 L111.551966,42.3122678 Z" id="Shape"/>
                        <path d="M56.8185249,0.114512225 C41.2383178,0.114512225 28.6119789,12.5963449 28.6119789,27.9982392 L28.6119789,27.9982392 C13.0317718,27.9982392 0.405432899,40.4800718 0.405432899,55.8819661 L0.405432899,55.8819661 C0.405432899,71.2838605 13.0317718,83.7656929 28.6119789,83.7656929 L63.0158564,83.7656929 C63.3633703,83.7656929 63.5950462,83.5366686 63.5950462,83.1931317 L63.5950462,78.3836185 C63.5950462,78.0400819 63.3633703,77.8110574 63.0158564,77.8110574 L29.0174118,77.8110574 C16.9123438,77.8110574 6.71860233,68.3637988 6.4290074,56.3972712 C6.13941248,44.0299508 16.217316,33.9528749 28.6119789,33.9528749 L34.0563635,33.9528749 C34.4038775,33.9528749 34.6355534,33.7238505 34.6355534,33.3803138 L34.6355534,28.399032 C34.6355534,16.6615289 44.308024,6.41268464 56.1814161,6.06914796 C65.2746968,5.7828674 73.2095978,10.9931737 76.8584939,18.5509806 C76.9743319,18.8372611 77.3218458,18.9517733 77.6114407,18.8372611 L82.0712026,16.8332972 C82.3607976,16.718785 82.4766355,16.3752483 82.3607976,16.0889677 C77.7851977,6.64170909 68.1127271,0.114512225 56.8185249,0.114512225 L56.8185249,0.114512225 L56.8185249,0.114512225 Z" id="Shape"/>
                    </g>
                    <path d="M19.9233709,100.476608 L19.9233709,106.186616 L18,106.186616 L18,91.6010534 L23.3794279,91.6010534 C24.20755,91.6010534 24.9388243,91.7112454 25.5732727,91.9316328 C26.2077212,92.1520201 26.7403159,92.4608917 27.171073,92.8582567 C27.6018301,93.2556218 27.929067,93.7264423 28.1527936,94.2707322 C28.3765201,94.8150222 28.4883817,95.4110608 28.4883817,96.0588661 C28.4883817,96.7600985 28.3765201,97.3861895 28.1527936,97.9371579 C27.929067,98.4881263 27.6018301,98.9505988 27.171073,99.3245895 C26.7403159,99.6985801 26.2077212,99.9840776 25.5732727,100.181091 C24.9388243,100.378104 24.20755,100.476608 23.3794279,100.476608 L19.9233709,100.476608 Z M19.9233709,98.9038521 L23.3794279,98.9038521 C23.9404138,98.9038521 24.4229213,98.8337299 24.8269648,98.6934834 C25.2310083,98.5532369 25.5615843,98.3578965 25.8187029,98.1074564 C26.0758215,97.8570162 26.2644835,97.5598317 26.3846948,97.2158938 C26.5049061,96.871956 26.5650108,96.4929622 26.5650108,96.0789012 C26.5650108,95.7049105 26.5049061,95.3426125 26.3846948,94.9919963 C26.2644835,94.6413801 26.0758215,94.3325085 25.8187029,94.0653723 C25.5615843,93.7982361 25.2310083,93.5845304 24.8269648,93.4242487 C24.4229213,93.263967 23.9404138,93.1838273 23.3794279,93.1838273 L19.9233709,93.1838273 L19.9233709,98.9038521 Z M39.1871321,99.4448002 L32.8660539,99.4448002 L32.8660539,104.613859 L40.2089229,104.613859 L40.2089229,106.186616 L30.9426831,106.186616 L30.9426831,91.6010534 L40.1087473,91.6010534 L40.1087473,93.1838273 L32.8660539,93.1838273 L32.8660539,97.8720438 L39.1871321,97.8720438 L39.1871321,99.4448002 Z M49.805742,93.0535991 L50.076216,93.0535991 C50.917695,93.0535991 51.6990566,93.1971826 52.4203243,93.484354 C53.141592,93.7715254 53.767683,94.1738932 54.2986161,94.6914696 C54.8295493,95.2090459 55.2469433,95.8267891 55.5508107,96.5447175 C55.8546781,97.262646 56.0066095,98.0556947 56.0066095,98.9238872 C56.0066095,99.7920798 55.8546781,100.586798 55.5508107,101.308066 C55.2469433,102.029333 54.8295493,102.650416 54.2986161,103.171331 C53.767683,103.692247 53.141592,104.096284 52.4203243,104.383456 C51.6990566,104.670627 50.917695,104.81421 50.076216,104.81421 L49.805742,104.81421 L49.805742,106.787669 L47.9524941,106.787669 L47.9524941,104.81421 L47.6619849,104.81421 C46.820506,104.81421 46.0391444,104.670627 45.3178767,104.383456 C44.596609,104.096284 43.970518,103.695586 43.4395848,103.181349 C42.9086517,102.667112 42.4929272,102.049368 42.192399,101.328101 C41.8918709,100.606833 41.741609,99.8121149 41.741609,98.9439223 C41.741609,98.0757298 41.8918709,97.2810116 42.192399,96.5597439 C42.4929272,95.8384762 42.9086517,95.2173939 43.4395848,94.6964784 C43.970518,94.1755628 44.596609,93.7715254 45.3178767,93.484354 C46.0391444,93.1971826 46.820506,93.0535991 47.6619849,93.0535991 L47.9524941,93.0535991 L47.9524941,91 L49.805742,91 L49.805742,93.0535991 Z M47.6619849,94.5762677 C47.0075013,94.5762677 46.4264888,94.681451 45.9189301,94.8918207 C45.4113713,95.1021905 44.9839599,95.3977054 44.6366828,95.7783745 C44.2894058,96.1590435 44.0272824,96.6181769 43.8503047,97.1557885 C43.6733269,97.6934001 43.5848394,98.2894387 43.5848394,98.9439223 C43.5848394,99.6050844 43.6733269,100.202793 43.8503047,100.737065 C44.0272824,101.271337 44.2894058,101.728801 44.6366828,102.10947 C44.9839599,102.490139 45.4113713,102.783985 45.9189301,102.991015 C46.4264888,103.198046 47.0075013,103.301559 47.6619849,103.301559 L47.9524941,103.301559 L47.9524941,94.5762677 L47.6619849,94.5762677 Z M49.805742,94.5762677 L49.805742,103.301559 L50.0962512,103.301559 C50.7440564,103.301559 51.3217297,103.196376 51.8292884,102.986006 C52.3368472,102.775637 52.7625891,102.480122 53.1065269,102.099453 C53.4504647,101.718784 53.7125882,101.25965 53.8929051,100.722039 C54.073222,100.184427 54.1633791,99.5850493 54.1633791,98.9238872 C54.1633791,98.2694036 54.073222,97.6750345 53.8929051,97.1407622 C53.7125882,96.6064898 53.4504647,96.149026 53.1065269,95.7683569 C52.7625891,95.3876879 52.3368472,95.0938425 51.8292884,94.8868119 C51.3217297,94.6797814 50.7440564,94.5762677 50.0962512,94.5762677 L49.805742,94.5762677 Z M69.6605391,99.3646597 C69.6605391,100.459918 69.5219643,101.439959 69.2448105,102.304813 C68.9676567,103.169666 68.5753063,103.905949 68.0677476,104.513684 C67.5601889,105.121419 66.9457849,105.585561 66.2245172,105.906124 C65.5032495,106.226688 64.6985139,106.386967 63.8102861,106.386967 C62.9487719,106.386967 62.1573928,106.226688 61.4361252,105.906124 C60.7148575,105.585561 60.0937752,105.121419 59.5728597,104.513684 C59.0519441,103.905949 58.6479067,103.169666 58.3607353,102.304813 C58.0735639,101.439959 57.9299804,100.459918 57.9299804,99.3646597 L57.9299804,98.4430445 C57.9299804,97.3544646 58.0735639,96.3744234 58.3607353,95.5028917 C58.6479067,94.6313599 59.048605,93.8917377 59.5628421,93.2840029 C60.0770792,92.6762681 60.6948224,92.2104564 61.4160901,91.8865538 C62.1373577,91.5626511 62.9287368,91.4007023 63.790251,91.4007023 C64.6784787,91.4007023 65.484884,91.5626511 66.2094909,91.8865538 C66.9340977,92.2104564 67.5518409,92.6762681 68.0627388,93.2840029 C68.5736368,93.8917377 68.9676567,94.6313599 69.2448105,95.5028917 C69.5219643,96.3744234 69.6605391,97.3544646 69.6605391,98.4430445 L69.6605391,99.3646597 Z M67.7471858,98.4230094 C67.7471858,97.5548168 67.6586983,96.7868118 67.4817205,96.1189714 C67.3047428,95.451131 67.0459585,94.8901534 66.7053599,94.4360219 C66.3647613,93.9818904 65.9490368,93.6379577 65.4581741,93.4042136 C64.9673114,93.1704694 64.4113426,93.0535991 63.790251,93.0535991 C63.195873,93.0535991 62.6549303,93.1704694 62.1674068,93.4042136 C61.6798833,93.6379577 61.2641588,93.9818904 60.920221,94.4360219 C60.5762832,94.8901534 60.3108206,95.451131 60.1238253,96.1189714 C59.9368299,96.7868118 59.8433337,97.5548168 59.8433337,98.4230094 L59.8433337,99.3646597 C59.8433337,100.239531 59.9384995,101.010875 60.128834,101.678715 C60.3191686,102.346556 60.5879703,102.909203 60.9352473,103.366674 C61.2825244,103.824144 61.6999184,104.169746 62.1874419,104.403491 C62.6749654,104.637235 63.2159081,104.754105 63.8102861,104.754105 C64.4380561,104.754105 64.9956945,104.637235 65.483218,104.403491 C65.9707415,104.169746 66.3831268,103.824144 66.7203862,103.366674 C67.0576457,102.909203 67.3130908,102.346556 67.4867293,101.678715 C67.6603678,101.010875 67.7471858,100.239531 67.7471858,99.3646597 L67.7471858,98.4230094 Z M74.4689662,100.476608 L74.4689662,106.186616 L72.5455954,106.186616 L72.5455954,91.6010534 L77.9250232,91.6010534 C78.7531454,91.6010534 79.4844197,91.7112454 80.1188681,91.9316328 C80.7533165,92.1520201 81.2859113,92.4608917 81.7166684,92.8582567 C82.1474255,93.2556218 82.4746624,93.7264423 82.6983889,94.2707322 C82.9221155,94.8150222 83.0339771,95.4110608 83.0339771,96.0588661 C83.0339771,96.7600985 82.9221155,97.3861895 82.6983889,97.9371579 C82.4746624,98.4881263 82.1474255,98.9505988 81.7166684,99.3245895 C81.2859113,99.6985801 80.7533165,99.9840776 80.1188681,100.181091 C79.4844197,100.378104 78.7531454,100.476608 77.9250232,100.476608 L74.4689662,100.476608 Z M74.4689662,98.9038521 L77.9250232,98.9038521 C78.4860092,98.9038521 78.9685167,98.8337299 79.3725602,98.6934834 C79.7766036,98.5532369 80.1071797,98.3578965 80.3642983,98.1074564 C80.6214168,97.8570162 80.8100789,97.5598317 80.9302902,97.2158938 C81.0505015,96.871956 81.1106062,96.4929622 81.1106062,96.0789012 C81.1106062,95.7049105 81.0505015,95.3426125 80.9302902,94.9919963 C80.8100789,94.6413801 80.6214168,94.3325085 80.3642983,94.0653723 C80.1071797,93.7982361 79.7766036,93.5845304 79.3725602,93.4242487 C78.9685167,93.263967 78.4860092,93.1838273 77.9250232,93.1838273 L74.4689662,93.1838273 L74.4689662,98.9038521 Z M87.9726324,91.6010534 L92.7409894,103.501911 L97.5093463,91.6010534 L100.003718,91.6010534 L100.003718,106.186616 L98.080347,106.186616 L98.080347,100.506661 L98.260663,94.3759166 L93.472271,106.186616 L91.9996902,106.186616 L87.2213157,94.4059692 L87.4116493,100.506661 L87.4116493,106.186616 L85.4882784,106.186616 L85.4882784,91.6010534 L87.9726324,91.6010534 Z M111.634101,102.379944 L105.523392,102.379944 L104.150986,106.186616 L102.16751,106.186616 L107.737272,91.6010534 L109.420221,91.6010534 L115,106.186616 L113.026541,106.186616 L111.634101,102.379944 Z M106.10441,100.79717 L111.0631,100.79717 L108.578746,93.9752143 L106.10441,100.79717 Z" id="реформа-copy-3"/>
                </g>
            </g>
        </g>
    </symbol>
</svg>