<svg width="40" height="39" viewBox="0 0 40 39" fill="none" xmlns="http://www.w3.org/2000/svg">
<path d="M37.0667 0H2.93333C2.23697 0 1.56913 0.272851 1.07672 0.75853C0.584321 1.24421 0.307692 1.90293 0.307692 2.58978L0.307692 36.257C0.307692 36.9438 0.584321 37.6025 1.07672 38.0882C1.56913 38.5739 2.23697 38.8467 2.93333 38.8467H37.0667C37.763 38.8467 38.4309 38.5739 38.9233 38.0882C39.4157 37.6025 39.6923 36.9438 39.6923 36.257V2.58978C39.6923 1.90293 39.4157 1.24421 38.9233 0.75853C38.4309 0.272851 37.763 0 37.0667 0V0ZM2.93333 1.29489H37.0667C37.4148 1.29489 37.7488 1.43132 37.995 1.67416C38.2412 1.917 38.3795 2.24636 38.3795 2.58978V5.17957H1.62051V2.58978C1.62051 2.24636 1.75883 1.917 2.00503 1.67416C2.25123 1.43132 2.58515 1.29489 2.93333 1.29489ZM37.0667 37.5519H2.93333C2.58515 37.5519 2.25123 37.4154 2.00503 37.1726C1.75883 36.9298 1.62051 36.6004 1.62051 36.257V6.47446H38.3795V36.257C38.3795 36.6004 38.2412 36.9298 37.995 37.1726C37.7488 37.4154 37.4148 37.5519 37.0667 37.5519Z" fill="#199ED8"/>
<path d="M3.58977 3.88467H4.24618C4.42027 3.88467 4.58723 3.81646 4.71033 3.69504C4.83343 3.57362 4.90259 3.40894 4.90259 3.23723C4.90259 3.06552 4.83343 2.90083 4.71033 2.77942C4.58723 2.658 4.42027 2.58978 4.24618 2.58978H3.58977C3.41568 2.58978 3.24872 2.658 3.12562 2.77942C3.00251 2.90083 2.93336 3.06552 2.93336 3.23723C2.93336 3.40894 3.00251 3.57362 3.12562 3.69504C3.24872 3.81646 3.41568 3.88467 3.58977 3.88467Z" fill="#199ED8"/>
<path d="M6.87176 3.88467H7.52817C7.70226 3.88467 7.86922 3.81646 7.99232 3.69504C8.11542 3.57362 8.18458 3.40894 8.18458 3.23723C8.18458 3.06552 8.11542 2.90083 7.99232 2.77942C7.86922 2.658 7.70226 2.58978 7.52817 2.58978H6.87176C6.69767 2.58978 6.53071 2.658 6.40761 2.77942C6.2845 2.90083 6.21535 3.06552 6.21535 3.23723C6.21535 3.40894 6.2845 3.57362 6.40761 3.69504C6.53071 3.81646 6.69767 3.88467 6.87176 3.88467Z" fill="#199ED8"/>
<path d="M10.1538 3.88467H10.8102C10.9843 3.88467 11.1513 3.81646 11.2744 3.69504C11.3975 3.57362 11.4667 3.40894 11.4667 3.23723C11.4667 3.06552 11.3975 2.90083 11.2744 2.77942C11.1513 2.658 10.9843 2.58978 10.8102 2.58978H10.1538C9.97975 2.58978 9.81279 2.658 9.68969 2.77942C9.56659 2.90083 9.49743 3.06552 9.49743 3.23723C9.49743 3.40894 9.56659 3.57362 9.68969 3.69504C9.81279 3.81646 9.97975 3.88467 10.1538 3.88467Z" fill="#199ED8"/>
<path d="M32.4718 3.88467H36.4103C36.5844 3.88467 36.7513 3.81646 36.8744 3.69504C36.9975 3.57362 37.0667 3.40894 37.0667 3.23723C37.0667 3.06552 36.9975 2.90083 36.8744 2.77942C36.7513 2.658 36.5844 2.58978 36.4103 2.58978H32.4718C32.2977 2.58978 32.1308 2.658 32.0077 2.77942C31.8846 2.90083 31.8154 3.06552 31.8154 3.23723C31.8154 3.40894 31.8846 3.57362 32.0077 3.69504C32.1308 3.81646 32.2977 3.88467 32.4718 3.88467Z" fill="#199ED8"/>
<path d="M33.7846 11.0066H15.4052C15.2311 11.0066 15.0641 10.9384 14.941 10.817C14.8179 10.6955 14.7487 10.5309 14.7487 10.3591C14.7487 9.84401 14.5413 9.34997 14.172 8.98571C13.8027 8.62145 13.3018 8.41681 12.7795 8.41681H5.55901C5.03673 8.41681 4.53585 8.62145 4.16655 8.98571C3.79725 9.34997 3.58978 9.84401 3.58978 10.3591V33.0198C3.58978 33.7066 3.8664 34.3653 4.35881 34.851C4.85121 35.3367 5.51905 35.6095 6.21542 35.6095H33.7846C34.481 35.6095 35.1488 35.3367 35.6413 34.851C36.1337 34.3653 36.4103 33.7066 36.4103 33.0198V13.5964C36.4103 12.9095 36.1337 12.2508 35.6413 11.7651C35.1488 11.2794 34.481 11.0066 33.7846 11.0066ZM5.55901 9.7117H12.7795C12.9536 9.7117 13.1206 9.77991 13.2437 9.90133C13.3668 10.0228 13.4359 10.1874 13.4359 10.3591C13.4359 10.8743 13.6434 11.3683 14.0127 11.7326C14.382 12.0968 14.8829 12.3015 15.4052 12.3015H33.7846C34.1328 12.3015 34.4667 12.4379 34.7129 12.6807C34.9592 12.9236 35.0975 13.2529 35.0975 13.5964V17.1936C34.7001 16.9606 34.2469 16.8363 33.7846 16.8336H33.1282V15.5387C33.1282 15.0236 32.9208 14.5295 32.5515 14.1653C32.1822 13.801 31.6813 13.5964 31.159 13.5964H8.84106C8.31878 13.5964 7.8179 13.801 7.4486 14.1653C7.0793 14.5295 6.87183 15.0236 6.87183 15.5387V16.8336H6.21542C5.75314 16.8363 5.29995 16.9606 4.9026 17.1936V10.3591C4.9026 10.1874 4.97175 10.0228 5.09485 9.90133C5.21795 9.77991 5.38491 9.7117 5.55901 9.7117ZM31.8154 16.8336H8.18465V15.5387C8.18465 15.367 8.2538 15.2023 8.3769 15.0809C8.50001 14.9595 8.66697 14.8913 8.84106 14.8913H31.159C31.3331 14.8913 31.5001 14.9595 31.6232 15.0809C31.7463 15.2023 31.8154 15.367 31.8154 15.5387V16.8336ZM35.0975 33.0198C35.0975 33.3632 34.9592 33.6925 34.7129 33.9354C34.4667 34.1782 34.1328 34.3146 33.7846 34.3146H6.21542C5.86723 34.3146 5.53331 34.1782 5.28711 33.9354C5.04091 33.6925 4.9026 33.3632 4.9026 33.0198V19.4234C4.9026 19.08 5.04091 18.7506 5.28711 18.5078C5.53331 18.2649 5.86723 18.1285 6.21542 18.1285H33.7846C34.1328 18.1285 34.4667 18.2649 34.7129 18.5078C34.9592 18.7506 35.0975 19.08 35.0975 19.4234V33.0198Z" fill="#199ED8"/>
<path d="M14.7487 20.0708H8.18458C7.8364 20.0708 7.50248 20.2072 7.25628 20.4501C7.01008 20.6929 6.87176 21.0223 6.87176 21.3657V25.2504C6.87176 25.5938 7.01008 25.9232 7.25628 26.166C7.50248 26.4088 7.8364 26.5453 8.18458 26.5453H14.7487C15.0969 26.5453 15.4308 26.4088 15.677 26.166C15.9232 25.9232 16.0615 25.5938 16.0615 25.2504V21.3657C16.0615 21.0223 15.9232 20.6929 15.677 20.4501C15.4308 20.2072 15.0969 20.0708 14.7487 20.0708ZM8.18458 25.2504V21.3657H14.7487V25.2504H8.18458Z" fill="#199ED8"/>
</svg>