<svg width="41" height="39" viewBox="0 0 41 39" fill="none" xmlns="http://www.w3.org/2000/svg">
<path d="M18.4354 38.3222H37.8797C39.2815 38.3222 40.2763 37.2682 40.2763 35.7312C40.2763 35.4238 40.005 35.1603 39.6884 35.1603H37.744V26.4211C37.744 25.0158 36.5683 23.874 35.1213 23.874H21.1938C19.7468 23.874 18.5711 25.0158 18.5711 26.4211V35.1603H16.6266C16.3101 35.1603 16.0388 35.4238 16.0388 35.7312C16.0388 37.2243 17.0336 38.3222 18.4354 38.3222ZM20.8773 36.2582V35.1603H19.6563V28.1338H35.7092V27.0359H19.7016V26.4211C19.7016 25.6306 20.3798 24.9719 21.1938 24.9719H35.1665C35.9805 24.9719 36.6588 25.6306 36.6588 26.4211V35.1603H22.279V36.2582H39.1006C38.9649 36.7852 38.6032 37.2243 37.8797 37.2243H18.4354C17.7571 37.2243 17.3954 36.7852 17.2145 36.2582H20.8773Z" fill="#199ED8"/>
<path d="M26.2583 12.2364L26.0322 13.3343C26.0775 13.3343 30.5089 14.1248 30.8255 19.0433C30.8255 19.3068 31.0516 19.4824 31.2777 19.5703C31.3229 19.5703 31.3681 19.5703 31.3681 19.5703C31.5942 19.5703 31.7751 19.4385 31.8655 19.2629L33.3125 16.1449L32.2725 15.7057L31.5942 17.1988C30.4637 12.983 26.3036 12.2364 26.2583 12.2364Z" fill="#199ED8"/>
<path d="M8.12547 25.2793C7.85416 25.2354 7.62806 25.3671 7.4924 25.5867L6.09061 28.7047L7.13065 29.1438L7.80894 27.6507C9.02986 31.8227 13.19 32.5253 13.2352 32.5253L13.4161 31.4275C13.2352 31.3835 8.8942 30.5931 8.62288 25.7184C8.57766 25.5428 8.39679 25.3232 8.12547 25.2793Z" fill="#199ED8"/>
<path d="M20.1727 7.64129H12.7568V0.48307C12.7568 0.219577 12.5307 0 12.2594 0H0.728468C0.457152 0 0.276276 0.219577 0.276276 0.48307V21.4747C0.276276 21.7382 0.502372 21.9577 0.773687 21.9577H20.1727C20.444 21.9577 20.6701 21.7382 20.6701 21.4747V8.12436C20.6249 7.86087 20.444 7.64129 20.1727 7.64129ZM1.22588 0.96614H11.8072V21.0355H9.9984V16.2048C9.9984 15.9413 9.77231 15.7217 9.50099 15.7217H3.53206C3.26074 15.7217 3.03465 15.9413 3.03465 16.2048V20.9916H1.22588V0.96614ZM4.02947 20.9916V16.6879H9.00358V20.9916H4.02947ZM19.6753 20.9916H12.7568V8.60743H19.6301V20.9916H19.6753Z" fill="#199ED8"/>
<path d="M14.249 13.7017H18.1831C18.4544 13.7017 18.6805 13.4821 18.6805 13.2186V10.3202C18.6805 10.0567 18.4544 9.8371 18.1831 9.8371H14.249C13.9777 9.8371 13.7516 10.0567 13.7516 10.3202V13.2186C13.7516 13.4821 13.9777 13.7017 14.249 13.7017ZM14.7464 10.8032H17.6857V12.7355H14.7464V10.8032Z" fill="#199ED8"/>
<path d="M14.249 19.762H18.1831C18.4544 19.762 18.6805 19.5424 18.6805 19.2789V16.3805C18.6805 16.117 18.4544 15.8974 18.1831 15.8974H14.249C13.9777 15.8974 13.7516 16.117 13.7516 16.3805V19.2789C13.7516 19.5424 13.9777 19.762 14.249 19.762ZM14.7464 16.8635H17.6857V18.7958H14.7464V16.8635Z" fill="#199ED8"/>
<path d="M5.47649 13.7016C5.7478 13.7016 5.9739 13.4821 5.9739 13.2186V9.9249C5.9739 9.66141 5.7478 9.44183 5.47649 9.44183H2.71811C2.4468 9.44183 2.2207 9.66141 2.2207 9.9249V13.2186C2.2207 13.4821 2.4468 13.7016 2.71811 13.7016H5.47649ZM3.21553 10.408H5.02429V12.7355H3.21553V10.408Z" fill="#199ED8"/>
<path d="M7.05918 9.9249V13.2186C7.05918 13.4821 7.28528 13.7016 7.55659 13.7016H10.315C10.5863 13.7016 10.8124 13.4821 10.8124 13.2186V9.9249C10.8124 9.66141 10.5863 9.44183 10.315 9.44183H7.55659C7.28528 9.44183 7.05918 9.66141 7.05918 9.9249ZM8.054 10.408H9.86277V12.7355H8.054V10.408Z" fill="#199ED8"/>
<path d="M4.11989 6.27988H5.25037V7.37777C5.25037 7.64126 5.47647 7.86084 5.74778 7.86084H7.37567C7.64699 7.86084 7.87308 7.64126 7.87308 7.37777V6.27988H9.00356C9.27488 6.27988 9.50098 6.0603 9.50098 5.79681V4.21585C9.50098 3.95236 9.27488 3.73278 9.00356 3.73278H7.87308V2.67881C7.87308 2.41532 7.64699 2.19574 7.37567 2.19574H5.74778C5.47647 2.19574 5.25037 2.41532 5.25037 2.67881V3.7767H4.11989C3.84857 3.7767 3.62248 3.99627 3.62248 4.25977V5.84072C3.62248 6.0603 3.84857 6.27988 4.11989 6.27988ZM4.57208 4.69892H5.70256C5.97388 4.69892 6.19997 4.47934 6.19997 4.21585V3.16188H6.83304V4.25977C6.83304 4.52326 7.05914 4.74284 7.33045 4.74284H8.46093V5.35765H7.33045C7.05914 5.35765 6.83304 5.57723 6.83304 5.84072V6.93861H6.19997V5.84072C6.19997 5.57723 5.97388 5.35765 5.70256 5.35765H4.57208V4.69892Z" fill="#199ED8"/>
</svg>