<svg width="32" height="39" viewBox="0 0 32 39" fill="none" xmlns="http://www.w3.org/2000/svg">
<path d="M26.7983 7.37164C27.6542 6.59486 28.1821 5.49183 28.1821 4.27229C28.1821 1.91865 26.2065 0 23.7749 0C21.3434 0 19.3678 1.91865 19.3678 4.27229C19.3678 5.49183 19.9037 6.59486 20.7515 7.37164C18.0721 8.02413 16.0085 10.2069 15.6246 12.8945C15.5926 12.8945 15.5606 12.8945 15.5286 12.8945C15.1767 12.8945 14.8407 12.9412 14.5208 13.0344C13.7129 11.4963 12.2572 10.3312 10.4976 9.87287C11.2494 9.15047 11.7133 8.15619 11.7133 7.05316C11.7133 4.86264 9.87372 3.07605 7.61017 3.07605C5.34662 3.07605 3.50699 4.86264 3.50699 7.05316C3.50699 8.15619 3.9709 9.15047 4.72274 9.87287C2.00329 10.5797 0.00368806 12.9722 0.00368806 15.8152V24.8725C0.00368806 25.6648 0.467595 26.3406 1.14746 26.6746L0.0836721 29.9759C-0.0842944 30.4964 0.0116865 31.0479 0.347619 31.4907C0.683552 31.9334 1.19545 32.182 1.76334 32.182H2.77913V36.6174C2.77913 37.8447 3.81093 38.8468 5.07468 38.8468H10.1457C10.9695 38.8468 11.6894 38.4273 12.0973 37.7981C12.3852 38.4118 13.0171 38.8468 13.7609 38.8468H17.3122C18.0561 38.8468 18.704 38.4118 18.9839 37.7826C19.4238 38.4195 20.1677 38.8468 21.0235 38.8468H26.5424C27.8861 38.8468 28.9819 37.7826 28.9819 36.4853V25.8435H29.7817C31.0055 25.8435 31.9973 24.8803 31.9973 23.6996V13.8189C31.9973 10.7118 29.7817 8.09404 26.7983 7.37164ZM23.7749 1.36713C25.4306 1.36713 26.7743 2.67212 26.7743 4.27229C26.7743 5.87246 25.4306 7.17744 23.7749 7.17744C22.1193 7.17744 20.7755 5.87246 20.7755 4.27229C20.7755 2.67212 22.1193 1.36713 23.7749 1.36713ZM17.8321 16.491C17.8321 17.7183 16.8003 18.7204 15.5286 18.7204C14.2568 18.7204 13.225 17.7183 13.225 16.491C13.225 15.2637 14.2568 14.2617 15.5286 14.2617C16.8003 14.2617 17.8321 15.2637 17.8321 16.491ZM7.61017 4.44318C9.09787 4.44318 10.3056 5.61612 10.3056 7.05316C10.3056 8.4902 9.09787 9.66314 7.61017 9.66314C6.12247 9.66314 4.91471 8.4902 4.91471 7.05316C4.91471 5.61612 6.12247 4.44318 7.61017 4.44318ZM1.76334 30.8149C1.61137 30.8149 1.52338 30.7294 1.48339 30.675C1.4434 30.6207 1.38741 30.5197 1.4354 30.3799L1.61137 29.8283L4.33882 21.7576C4.36282 21.6877 4.37082 21.6178 4.37082 21.5479V15.9162C4.37082 15.5356 4.05888 15.2327 3.66696 15.2327C3.27503 15.2327 2.9631 15.5356 2.9631 15.9162V21.4391L1.63536 25.3619C1.49939 25.2453 1.41141 25.0667 1.41141 24.8803V15.8152C1.41141 13.1742 3.63496 11.0225 6.36242 11.0225H8.84992C10.7695 11.0225 12.4412 12.0867 13.257 13.6403C12.3852 14.3005 11.8173 15.3259 11.8173 16.4833C11.8173 17.4465 12.2092 18.3165 12.8491 18.9612C11.1855 19.5515 9.98569 21.0973 9.98569 22.915V28.8418C9.98569 29.7351 10.7375 30.4653 11.6654 30.4653H11.9293V30.8071H11.7373H3.48299H1.76334V30.8149ZM4.18685 36.6096V32.1742H6.90631V37.4641H5.07468C4.58677 37.4719 4.18685 37.0835 4.18685 36.6096ZM10.1457 37.4719H8.31403V32.182H11.0335V36.6096C11.0335 37.0835 10.6336 37.4719 10.1457 37.4719ZM17.7201 29.7895V37.0757C17.7201 37.2932 17.5362 37.4719 17.3122 37.4719H16.2404V31.4984C16.2404 31.1178 15.9285 30.8149 15.5366 30.8149C15.1447 30.8149 14.8327 31.1178 14.8327 31.4984V37.4719H13.7609C13.537 37.4719 13.353 37.2932 13.353 37.0757V29.7895C13.353 29.4089 13.0411 29.1059 12.6492 29.1059H11.6814C11.5374 29.1059 11.4174 28.9894 11.4174 28.8496V22.9228C11.4174 21.3537 12.7371 20.0798 14.3528 20.0798H16.7203C18.336 20.0798 19.6558 21.3537 19.6558 22.9228V28.8496C19.6558 28.9894 19.5358 29.1059 19.3918 29.1059H18.424C18.0321 29.1059 17.7201 29.4089 17.7201 29.7895ZM30.5896 23.6918C30.5896 24.119 30.2296 24.4686 29.7897 24.4686H28.9899V15.2327C28.9899 14.852 28.678 14.5491 28.286 14.5491C27.8941 14.5491 27.5822 14.852 27.5822 15.2327V25.1521V36.4776C27.5822 37.0291 27.1183 37.4719 26.5504 37.4719H24.4788V23.451C24.4788 23.0704 24.1589 22.7674 23.7749 22.7674C23.391 22.7674 23.0711 23.0704 23.0711 23.451V37.4719H21.0155C20.4476 37.4719 19.9837 37.0213 19.9837 36.4776V30.3643C20.6156 30.1313 21.0715 29.5409 21.0715 28.8496V22.9228C21.0715 21.1051 19.8797 19.5593 18.208 18.969C18.8479 18.3242 19.2398 17.4465 19.2398 16.491C19.2398 15.0152 18.32 13.749 17.0083 13.1975C17.3282 10.5797 19.6318 8.54458 22.4232 8.54458H25.1347C28.1421 8.54458 30.5896 10.9138 30.5896 13.8267V23.6918Z" fill="#199ED8"/>
</svg>