<svg width="40" height="39" viewBox="0 0 40 39" fill="none" xmlns="http://www.w3.org/2000/svg">
<path d="M7.84613 8.75435C6.12091 8.75435 4.71735 7.39101 4.71735 5.71589C4.71735 4.04076 6.12091 2.67743 7.84613 2.67743C9.57136 2.67743 10.9749 4.04076 10.9749 5.71589C10.9749 7.39101 9.57136 8.75435 7.84613 8.75435ZM7.84613 3.89139C6.81032 3.89139 5.9674 4.70998 5.9674 5.71589C5.9674 6.72179 6.81032 7.54039 7.84613 7.54039C8.88194 7.54039 9.72487 6.72179 9.72487 5.71589C9.72487 4.70998 8.88194 3.89139 7.84613 3.89139Z" fill="#199ED8"/>
<path d="M12.7404 14.0903H2.95181C2.60664 14.0903 2.32678 13.8189 2.32678 13.4834V12.89C2.32678 9.93455 4.80277 7.53033 7.84611 7.53033C10.8894 7.53033 13.3654 9.93455 13.3654 12.89V13.4834C13.3654 13.8189 13.0856 14.0903 12.7404 14.0903ZM3.57683 12.8764H12.1154C12.1077 10.5967 10.1954 8.7443 7.84611 8.7443C5.49677 8.7443 3.58446 10.5967 3.57683 12.8764Z" fill="#199ED8"/>
<path d="M28.9645 38.286H1.74323C0.781891 38.286 0 37.5261 0 36.5925V2.25364C0 1.32005 0.781892 0.56073 1.74323 0.56073H22.9303C23.7043 0.56073 24.4312 0.854143 24.9772 1.38644L29.8724 6.16285C30.4147 6.69218 30.7135 7.3946 30.7135 8.14147V17.427C30.7135 17.7625 30.4336 18.0339 30.0885 18.0339C29.7433 18.0339 29.4635 17.7625 29.4635 17.427V8.14147C29.4635 7.71824 29.2941 7.31932 28.9861 7.01879L24.0912 2.24297C23.7818 1.94126 23.3692 1.77469 22.9303 1.77469H1.74323C1.47131 1.77469 1.25005 1.98927 1.25005 2.25364V36.5925C1.25005 36.8569 1.47131 37.072 1.74323 37.072H28.9645C29.2397 37.072 29.4635 36.8545 29.4635 36.5872V33.7609C29.4635 33.4254 29.7433 33.1539 30.0885 33.1539C30.4336 33.1539 30.7135 33.4254 30.7135 33.7609V36.5872C30.7135 37.5237 29.9289 38.286 28.9645 38.286Z" fill="#199ED8"/>
<path d="M29.6618 7.78165H24.762C23.9438 7.78165 23.2779 7.13495 23.2779 6.34066V1.55357C23.2779 1.21808 23.5578 0.946594 23.9029 0.946594C24.2481 0.946594 24.5279 1.21808 24.5279 1.55357V6.34066C24.5279 6.46573 24.6329 6.56768 24.762 6.56768H29.6618C30.007 6.56768 30.2868 6.83917 30.2868 7.17467C30.2868 7.51016 30.007 7.78165 29.6618 7.78165Z" fill="#199ED8"/>
<path d="M21.2527 33.1711C18.8758 33.1711 16.496 32.4195 14.5416 30.9121C12.2911 29.176 10.8741 26.6911 10.5518 23.9159C10.2302 21.143 11.0383 18.4133 12.8279 16.229C16.5198 11.7247 23.302 10.976 27.9469 14.5581C31.901 17.6078 33.1388 23.003 30.8902 27.3876C30.5508 28.0545 30.1413 28.6786 29.6728 29.2435C29.1787 29.847 28.6397 30.3781 28.0733 30.8185C26.1088 32.3857 23.6823 33.1711 21.2527 33.1711ZM21.2569 13.5065C18.4556 13.5065 15.6805 14.6979 13.8061 16.9854C12.2243 18.916 11.5095 21.3291 11.794 23.7795C12.0787 26.2323 13.3306 28.4273 15.3192 29.9614C18.8133 32.656 23.8461 32.6199 27.2859 29.8754C27.7858 29.4866 28.2582 29.0207 28.6968 28.4854C29.1106 27.9863 29.4708 27.4368 29.7695 26.8494C29.7698 26.8488 29.7701 26.8482 29.7704 26.8476C31.7584 22.9728 30.6646 18.2041 27.1693 15.5088C25.4224 14.1609 23.3322 13.5065 21.2569 13.5065Z" fill="#199ED8"/>
<path d="M21.2395 30.0017C19.5308 30.0017 17.9194 29.4552 16.5796 28.4214C15.0155 27.2152 14.0307 25.4885 13.8073 23.559C13.5833 21.6302 14.1454 19.7304 15.3906 18.2094C16.8204 16.4656 18.9561 15.4656 21.2505 15.4656C22.9553 15.4656 24.5661 16.0127 25.9089 17.0482C28.6598 19.1703 29.5214 22.9224 27.9573 25.9704C27.7232 26.4321 27.4418 26.8625 27.1226 27.2472C26.7643 27.6846 26.4048 28.0409 26.0264 28.3349C24.6802 29.4078 22.9779 30.0017 21.2395 30.0017ZM21.2505 16.6795C19.3391 16.6795 17.5599 17.5124 16.3687 18.9652C15.3314 20.2325 14.8626 21.8158 15.0494 23.4233C15.2355 25.0297 16.055 26.4671 17.3569 27.4706C18.4736 28.3325 19.8161 28.7877 21.2395 28.7877C22.6895 28.7877 24.1101 28.2916 25.2396 27.3918C25.5506 27.15 25.8454 26.8559 26.1469 26.4884C26.4109 26.1707 26.6423 25.8157 26.8373 25.4316C28.1407 22.891 27.4229 19.7666 25.1313 17.999C24.0121 17.136 22.6702 16.6795 21.2505 16.6795Z" fill="#199ED8"/>
<path d="M29.8165 32.6039C29.6758 32.6039 29.5385 32.5577 29.4274 32.4717L27.292 30.8215C27.1437 30.7071 27.057 30.5334 27.0561 30.3491C27.0552 30.1653 27.1403 29.991 27.2877 29.8748C27.7922 29.4783 28.2662 29.0106 28.6965 28.486C29.1106 27.981 29.4723 27.4297 29.7717 26.8477C29.8559 26.6841 30.0118 26.5661 30.1959 26.5264C30.3793 26.4873 30.5725 26.5299 30.7199 26.6443L32.8489 28.2898C33.119 28.4985 33.1638 28.8796 32.9493 29.1422L30.306 32.3745C30.2029 32.5008 30.0521 32.582 29.8873 32.5997C29.8638 32.6027 29.84 32.6039 29.8165 32.6039ZM28.6553 30.3236L29.7161 31.1433L31.582 28.8618L30.5236 28.0438C30.2688 28.4629 29.9847 28.8642 29.6743 29.2424C29.3554 29.6312 29.0142 29.9934 28.6553 30.3236Z" fill="#199ED8"/>
<path d="M36.2594 37.9701C35.4189 37.9701 34.6086 37.6968 33.9409 37.1805L29.5739 33.8066C28.8863 33.2749 28.7722 32.2998 29.3194 31.6323L31.9858 28.3775C32.533 27.7101 33.5374 27.5986 34.225 28.1292L38.5919 31.5043C40.2036 32.7491 40.4716 35.0359 39.1892 36.6014C38.5678 37.3595 37.68 37.8373 36.6885 37.9464C36.545 37.9624 36.4019 37.9701 36.2594 37.9701ZM33.2334 29.007C33.1321 29.007 33.032 29.0503 32.9639 29.1333L30.2975 32.3881C30.1794 32.5321 30.2041 32.7426 30.3525 32.857L34.7191 36.2309C35.7912 37.059 37.358 36.8871 38.2107 35.845C39.064 34.8042 38.8858 33.2826 37.8137 32.4539L33.4468 29.0793C33.3836 29.0307 33.3085 29.007 33.2334 29.007Z" fill="#199ED8"/>
<path d="M23.6533 26.4421C23.5538 26.4421 23.454 26.419 23.3624 26.3722L21.3881 25.3645L19.4139 26.3722C19.2036 26.4801 18.9485 26.4623 18.7556 26.326C18.5633 26.1902 18.4669 25.9602 18.5069 25.7326L18.8841 23.5975L17.287 22.0854C17.1164 21.9242 17.0551 21.6829 17.1286 21.4636C17.2022 21.2437 17.3978 21.0836 17.6331 21.0504L19.8405 20.7387L20.8278 18.7968C21.0384 18.3819 21.7379 18.3819 21.9485 18.7968L22.9358 20.7387L25.1429 21.0504C25.3782 21.0836 25.5738 21.2437 25.6474 21.4636C25.7209 21.6829 25.6596 21.9242 25.489 22.0854L23.8922 23.5975L24.2694 25.7326C24.3094 25.9602 24.213 26.1902 24.0207 26.326C23.9117 26.403 23.7827 26.4421 23.6533 26.4421ZM19.0663 22.0747L19.9916 22.9508C20.139 23.0901 20.2062 23.2911 20.1717 23.4879L19.9532 24.7255L21.0973 24.1417C21.2792 24.048 21.4971 24.048 21.679 24.1417L22.8231 24.7255L22.6043 23.4879C22.5698 23.2911 22.637 23.0901 22.7844 22.9508L23.7097 22.0747L22.4307 21.8939C22.2271 21.8655 22.0513 21.741 21.9604 21.562L21.3881 20.4364L20.8159 21.562C20.725 21.741 20.5492 21.8655 20.3456 21.8939L19.0663 22.0747Z" fill="#199ED8"/>
<path d="M20.6225 5.83444H14.3844C14.0393 5.83444 13.7594 5.56296 13.7594 5.22746C13.7594 4.89197 14.0393 4.62048 14.3844 4.62048H20.6225C20.9676 4.62048 21.2475 4.89197 21.2475 5.22746C21.2475 5.56296 20.9676 5.83444 20.6225 5.83444Z" fill="#199ED8"/>
<path d="M20.6225 9.90195H14.3844C14.0393 9.90195 13.7594 9.63047 13.7594 9.29497C13.7594 8.95947 14.0393 8.68799 14.3844 8.68799H20.6225C20.9676 8.68799 21.2475 8.95947 21.2475 9.29497C21.2475 9.63047 20.9676 9.90195 20.6225 9.90195Z" fill="#199ED8"/>
<path d="M8.50467 24.0587H3.65432C3.30915 24.0587 3.0293 23.7872 3.0293 23.4517C3.0293 23.1162 3.30915 22.8447 3.65432 22.8447H8.50467C8.84984 22.8447 9.1297 23.1162 9.1297 23.4517C9.1297 23.7872 8.84984 24.0587 8.50467 24.0587Z" fill="#199ED8"/>
<path d="M8.50467 20.0304H3.65432C3.30915 20.0304 3.0293 19.7589 3.0293 19.4234C3.0293 19.0879 3.30915 18.8164 3.65432 18.8164H8.50467C8.84984 18.8164 9.1297 19.0879 9.1297 19.4234C9.1297 19.7589 8.84984 20.0304 8.50467 20.0304Z" fill="#199ED8"/>
<path d="M8.50467 28.0871H3.65432C3.30915 28.0871 3.0293 27.8156 3.0293 27.4801C3.0293 27.1446 3.30915 26.8731 3.65432 26.8731H8.50467C8.84984 26.8731 9.1297 27.1446 9.1297 27.4801C9.1297 27.8156 8.84984 28.0871 8.50467 28.0871Z" fill="#199ED8"/>
<path d="M8.50467 32.116H3.65432C3.30915 32.116 3.0293 31.8445 3.0293 31.509C3.0293 31.1735 3.30915 30.902 3.65432 30.902H8.50467C8.84984 30.902 9.1297 31.1735 9.1297 31.509C9.1297 31.8445 8.84984 32.116 8.50467 32.116Z" fill="#199ED8"/>
</svg>