<svg width="32" height="39" viewBox="0 0 32 39" fill="none" xmlns="http://www.w3.org/2000/svg">
<path d="M23.3334 0H10C9.11628 0.000963929 8.26901 0.342338 7.6441 0.949227C7.0192 1.55612 6.66769 2.37896 6.6667 3.23723V5.17957C4.89859 5.17957 3.20289 5.8617 1.95265 7.07589C0.702409 8.29009 3.05176e-05 9.93689 3.05176e-05 11.654C3.05176e-05 13.3712 0.702409 15.018 1.95265 16.2322C3.20289 17.4464 4.89859 18.1285 6.6667 18.1285V30.43C6.66769 31.2882 7.0192 32.1111 7.6441 32.718C8.26901 33.3248 9.11628 33.6662 10 33.6672H19.3181L19.3334 33.693V38.1993C19.3334 38.371 19.4036 38.5357 19.5286 38.6571C19.6537 38.7785 19.8232 38.8468 20 38.8468H30C30.1768 38.8468 30.3464 38.7785 30.4714 38.6571C30.5965 38.5357 30.6667 38.371 30.6667 38.1993V33.8048L31.9599 30.3511C31.9865 30.2802 32 30.2053 32 30.1298V22.0132C32.0001 21.7024 31.9233 21.3962 31.7762 21.1202C31.6291 20.8442 31.416 20.6066 31.1548 20.4272C30.8935 20.2477 30.5918 20.1318 30.2748 20.0891C29.9579 20.0464 29.635 20.0782 29.3334 20.1818V20.0708C29.3336 19.76 29.257 19.4537 29.11 19.1777C28.9629 18.9016 28.7498 18.6639 28.4884 18.4845C28.2271 18.3051 27.9252 18.1892 27.6082 18.1467C27.2912 18.1042 26.9683 18.1363 26.6667 18.2402V3.23723C26.6657 2.37896 26.3142 1.55612 25.6893 0.949227C25.0644 0.342338 24.2171 0.000963929 23.3334 0ZM10 1.29489H23.3334C23.7468 1.29541 24.1499 1.42014 24.4875 1.65198C24.825 1.88381 25.0804 2.21139 25.2187 2.58978H8.1147C8.25295 2.21139 8.50837 1.88381 8.84592 1.65198C9.18347 1.42014 9.5866 1.29541 10 1.29489ZM8.00003 3.88468H25.3334V17.5928C24.9022 17.4441 24.4314 17.4438 24 17.592V8.4168C24 8.24508 23.9298 8.0804 23.8048 7.95898C23.6797 7.83756 23.5102 7.76935 23.3334 7.76935H11.9964C11.018 6.50335 9.59656 5.62858 8.00003 5.30987V3.88468ZM20.6667 10.3591H18C17.8232 10.3591 17.6537 10.4273 17.5286 10.5488C17.4036 10.6702 17.3334 10.8349 17.3334 11.0066V13.5964C17.3334 13.7681 17.4036 13.9328 17.5286 14.0542C17.6537 14.1756 17.8232 14.2438 18 14.2438H20.1147C20.0387 14.4517 19.9999 14.6707 20 14.8913V15.5387H18C17.8232 15.5387 17.6537 15.6069 17.5286 15.7283C17.4036 15.8498 17.3334 16.0144 17.3334 16.1861V18.7759C17.3334 18.9476 17.4036 19.1123 17.5286 19.2337C17.6537 19.3552 17.8232 19.4234 18 19.4234H20V22.4171C19.7711 22.4575 19.5474 22.5227 19.3334 22.6113V21.3657C19.3334 21.194 19.2631 21.0293 19.1381 20.9079C19.0131 20.7865 18.8435 20.7183 18.6667 20.7183H14.6667C14.4899 20.7183 14.3203 20.7865 14.1953 20.9079C14.0703 21.0293 14 21.194 14 21.3657V24.6029H10.6667V16.83C11.5864 16.158 12.3125 15.2673 12.775 14.2438H15.3334C15.5102 14.2438 15.6797 14.1756 15.8048 14.0542C15.9298 13.9328 16 13.7681 16 13.5964V11.0066C16 10.8349 15.9298 10.6702 15.8048 10.5488C15.6797 10.4273 15.5102 10.3591 15.3334 10.3591H13.1992C13.1054 9.91414 12.9632 9.48007 12.775 9.06424H22.6667V13.0603C22.2354 12.9118 21.7647 12.9118 21.3334 13.0603V11.0066C21.3334 10.8349 21.2631 10.6702 21.1381 10.5488C21.0131 10.4273 20.8435 10.3591 20.6667 10.3591ZM20 11.654V12.9489H18.6667V11.654H20ZM20 16.8336V18.1285H18.6667V16.8336H20ZM18 22.0132V23.7233C17.8209 23.9975 17.6792 24.2932 17.5788 24.6029H15.3334V22.0132H18ZM13.3334 12.9489V11.654H14.6667V12.9489H13.3334ZM6.6667 16.8336C5.61186 16.8336 4.58072 16.5298 3.70366 15.9607C2.82659 15.3915 2.14301 14.5826 1.73934 13.6362C1.33567 12.6897 1.23005 11.6483 1.43584 10.6435C1.64163 9.63881 2.14958 8.71589 2.89546 7.99152C3.64134 7.26714 4.59165 6.77384 5.62622 6.57398C6.66078 6.37413 7.73314 6.4767 8.70768 6.86873C9.68222 7.26076 10.5152 7.92464 11.1012 8.77641C11.6872 9.62819 12 10.6296 12 11.654C11.9984 13.0273 11.436 14.3438 10.4362 15.3148C9.43633 16.2859 8.0807 16.8321 6.6667 16.8336ZM8.00003 17.9982C8.45824 17.9071 8.90519 17.769 9.33336 17.5863V25.2504C9.33336 25.4221 9.4036 25.5868 9.52863 25.7082C9.65365 25.8296 9.82322 25.8978 10 25.8978H17.3435C17.3371 26.0117 17.3334 26.1271 17.3334 26.2447V29.7825H8.00003V17.9982ZM10 32.3723C9.5866 32.3718 9.18347 32.247 8.84592 32.0152C8.50837 31.7834 8.25295 31.4558 8.1147 31.0774H17.7909L18.5544 32.3723H10ZM27.3334 19.4234C27.5101 19.4236 27.6796 19.4918 27.8046 19.6132C27.9295 19.7346 27.9998 19.8992 28 20.0708V25.8978C28 26.0695 28.0703 26.2342 28.1953 26.3556C28.3203 26.4771 28.4899 26.5453 28.6667 26.5453C28.8435 26.5453 29.0131 26.4771 29.1381 26.3556C29.2631 26.2342 29.3334 26.0695 29.3334 25.8978V22.0132C29.3334 21.8414 29.4036 21.6768 29.5286 21.5553C29.6537 21.4339 29.8232 21.3657 30 21.3657C30.1768 21.3657 30.3464 21.4339 30.4714 21.5553C30.5965 21.6768 30.6667 21.8414 30.6667 22.0132V30.0154L29.3734 33.4691C29.3469 33.54 29.3334 33.6149 29.3334 33.6903V37.5519H20.6667V33.5207C20.6667 33.4078 20.6363 33.2969 20.5785 33.199L18.6667 29.9571V26.2447C18.6667 25.5752 18.8119 24.1431 20 23.7548V25.8978C20 26.0695 20.0703 26.2342 20.1953 26.3556C20.3203 26.4771 20.4899 26.5453 20.6667 26.5453C20.8435 26.5453 21.0131 26.4771 21.1381 26.3556C21.2631 26.2342 21.3334 26.0695 21.3334 25.8978V23.3081C21.3332 23.2574 21.3269 23.207 21.3146 23.1578C21.3269 23.1086 21.3332 23.0581 21.3334 23.0075V14.8913C21.3334 14.7195 21.4036 14.5549 21.5286 14.4334C21.6537 14.312 21.8232 14.2438 22 14.2438C22.1768 14.2438 22.3464 14.312 22.4714 14.4334C22.5965 14.5549 22.6667 14.7195 22.6667 14.8913V23.7166C22.6667 23.8883 22.7369 24.053 22.862 24.1744C22.987 24.2958 23.1566 24.364 23.3334 24.364C23.5102 24.364 23.6797 24.2958 23.8048 24.1744C23.9298 24.053 24 23.8883 24 23.7166V19.4234C24 19.2517 24.0703 19.087 24.1953 18.9656C24.3203 18.8441 24.4899 18.7759 24.6667 18.7759C24.8435 18.7759 25.0131 18.8441 25.1381 18.9656C25.2631 19.087 25.3334 19.2517 25.3334 19.4234V24.6029C25.3334 24.7747 25.4036 24.9393 25.5286 25.0608C25.6537 25.1822 25.8232 25.2504 26 25.2504C26.1768 25.2504 26.3464 25.1822 26.4714 25.0608C26.5965 24.9393 26.6667 24.7747 26.6667 24.6029V20.0708C26.6669 19.8992 26.7372 19.7346 26.8622 19.6132C26.9872 19.4918 27.1566 19.4236 27.3334 19.4234Z" fill="#199ED8"/>
<path d="M15.3334 15.5387H12.6667C12.4899 15.5387 12.3203 15.6069 12.1953 15.7283C12.0703 15.8497 12.0001 16.0144 12.0001 16.1861V18.7759C12.0001 18.9476 12.0703 19.1123 12.1953 19.2337C12.3203 19.3552 12.4899 19.4234 12.6667 19.4234H15.3334C15.5102 19.4234 15.6798 19.3552 15.8048 19.2337C15.9298 19.1123 16.0001 18.9476 16.0001 18.7759V16.1861C16.0001 16.0144 15.9298 15.8497 15.8048 15.7283C15.6798 15.6069 15.5102 15.5387 15.3334 15.5387ZM14.6667 18.1285H13.3334V16.8336H14.6667V18.1285Z" fill="#199ED8"/>
<path d="M8.86198 9.25385L5.33339 12.6808L4.47148 11.8436C4.34645 11.7222 4.17687 11.654 4.00006 11.654C3.82324 11.654 3.65367 11.7222 3.52864 11.8436C3.40361 11.9651 3.33337 12.1297 3.33337 12.3015C3.33337 12.4732 3.40361 12.6379 3.52864 12.7593L4.86198 14.0542C4.92388 14.1143 4.99738 14.162 5.07826 14.1945C5.15915 14.2271 5.24584 14.2438 5.33339 14.2438C5.42094 14.2438 5.50764 14.2271 5.58852 14.1945C5.66941 14.162 5.7429 14.1143 5.80481 14.0542L9.80481 10.1695C9.92984 10.0481 10.0001 9.88339 10.0001 9.71167C10.0001 9.53995 9.92984 9.37527 9.80481 9.25385C9.67978 9.13242 9.51021 9.06421 9.33339 9.06421C9.15658 9.06421 8.98701 9.13242 8.86198 9.25385Z" fill="#199ED8"/>
<path d="M15.3333 6.47446H23.3333C23.5101 6.47446 23.6797 6.40624 23.8047 6.28482C23.9298 6.1634 24 5.99872 24 5.82701C24 5.6553 23.9298 5.49062 23.8047 5.3692C23.6797 5.24778 23.5101 5.17957 23.3333 5.17957H15.3333C15.1565 5.17957 14.9869 5.24778 14.8619 5.3692C14.7369 5.49062 14.6667 5.6553 14.6667 5.82701C14.6667 5.99872 14.7369 6.1634 14.8619 6.28482C14.9869 6.40624 15.1565 6.47446 15.3333 6.47446Z" fill="#199ED8"/>
<path d="M12.6667 6.47446C13.0349 6.47446 13.3334 6.18459 13.3334 5.82701C13.3334 5.46944 13.0349 5.17957 12.6667 5.17957C12.2985 5.17957 12.0001 5.46944 12.0001 5.82701C12.0001 6.18459 12.2985 6.47446 12.6667 6.47446Z" fill="#199ED8"/>
<path d="M12.6667 27.1927H10C9.82323 27.1927 9.65366 27.261 9.52864 27.3824C9.40361 27.5038 9.33337 27.6685 9.33337 27.8402C9.33337 28.0119 9.40361 28.1766 9.52864 28.298C9.65366 28.4194 9.82323 28.4876 10 28.4876H12.6667C12.8435 28.4876 13.0131 28.4194 13.1381 28.298C13.2631 28.1766 13.3334 28.0119 13.3334 27.8402C13.3334 27.6685 13.2631 27.5038 13.1381 27.3824C13.0131 27.261 12.8435 27.1927 12.6667 27.1927Z" fill="#199ED8"/>
</svg>