<svg width="40" height="39" viewBox="0 0 40 39" fill="none" xmlns="http://www.w3.org/2000/svg">
<path d="M39.6677 5.70138L31.5849 1.16926C31.4317 1.08341 31.2498 1.06014 31.079 1.10458C30.9082 1.14902 30.7626 1.25752 30.6742 1.40622L29.3408 3.64963C29.253 3.79815 29.2294 3.9744 29.2752 4.13979C29.3209 4.30518 29.4322 4.44624 29.5848 4.53209L35.3583 7.76932L33.0249 11.6941L29.5581 9.75181L31.0695 7.20928C31.1565 7.06066 31.1795 6.88464 31.1333 6.71964C31.0872 6.55465 30.9758 6.41407 30.8233 6.32858C30.6708 6.24309 30.4897 6.21964 30.3195 6.26334C30.1493 6.30704 30.0038 6.41435 29.9148 6.56184L28.4034 9.10436L27.2487 8.45691C27.1729 8.41443 27.0892 8.38688 27.0023 8.37583C26.9155 8.36477 26.8273 8.37044 26.7427 8.39251C26.6581 8.41457 26.5789 8.4526 26.5094 8.50442C26.44 8.55625 26.3818 8.62084 26.3381 8.69453L15.0044 27.7579C14.9605 27.8316 14.932 27.9129 14.9206 27.9973C14.9091 28.0816 14.9148 28.1674 14.9375 28.2496C14.9602 28.3318 14.9993 28.4088 15.0526 28.4763C15.106 28.5438 15.1725 28.6005 15.2484 28.643L17.5578 29.9379L15.8911 32.7413C15.8027 32.89 15.7787 33.0667 15.8245 33.2326C15.8703 33.3985 15.982 33.5399 16.1351 33.6257L16.7118 33.9495L14.3784 37.8743C14.29 38.0231 14.2661 38.1999 14.3119 38.3658C14.3577 38.5317 14.4695 38.6731 14.6227 38.759C14.776 38.8449 14.958 38.8681 15.1289 38.8236C15.2997 38.7791 15.4454 38.6705 15.5338 38.5217L17.8672 34.5969L18.4445 34.9206C18.5459 34.9775 18.6608 35.0074 18.7779 35.0074C18.8362 35.0075 18.8942 35.0001 18.9505 34.9854C19.1213 34.9409 19.2668 34.8324 19.3552 34.6837L21.0219 31.8802L23.3313 33.1751C23.4072 33.2176 23.4909 33.2451 23.5777 33.2562C23.6645 33.2672 23.7528 33.2616 23.8373 33.2395C23.9219 33.2174 24.0012 33.1794 24.0706 33.1276C24.14 33.0758 24.1983 33.0112 24.242 32.9375L25.9087 30.1321C25.9532 30.0585 25.9822 29.977 25.9941 29.8924C26.006 29.8078 26.0006 29.7217 25.9781 29.6392C25.9556 29.5566 25.9166 29.4792 25.8632 29.4114C25.8098 29.3436 25.7431 29.2867 25.6669 29.244C25.5908 29.2013 25.5067 29.1736 25.4195 29.1626C25.3323 29.1516 25.2437 29.1575 25.1589 29.1798C25.074 29.2022 24.9946 29.2407 24.9251 29.293C24.8556 29.3453 24.7975 29.4104 24.754 29.4847L23.4206 31.7294L16.4925 27.8447L17.1591 26.724L18.8925 27.6951C19.0457 27.781 19.2278 27.8042 19.3986 27.7597C19.5695 27.7152 19.7151 27.6066 19.8035 27.4578C19.892 27.309 19.9159 27.1322 19.8701 26.9663C19.8242 26.8004 19.7124 26.659 19.5592 26.5731L17.8258 25.6019L18.4925 24.4806L21.3793 26.0992C21.4551 26.1424 21.539 26.1705 21.6261 26.1821C21.7132 26.1937 21.8018 26.1884 21.8868 26.1666C21.9718 26.1447 22.0515 26.1068 22.1214 26.0549C22.1912 26.0031 22.2498 25.9383 22.2938 25.8644C22.3377 25.7904 22.3662 25.7088 22.3775 25.6241C22.3889 25.5394 22.3829 25.4534 22.3598 25.371C22.3368 25.2886 22.2972 25.2114 22.2433 25.1439C22.1895 25.0765 22.1224 25.02 22.0459 24.9778L19.1592 23.3592L19.8259 22.2384L21.5593 23.2096C21.7125 23.2955 21.8945 23.3187 22.0654 23.2742C22.2362 23.2297 22.3819 23.1211 22.4703 22.9723C22.5587 22.8235 22.5826 22.6467 22.5368 22.4808C22.491 22.3149 22.3792 22.1735 22.2259 22.0876L20.4926 21.1164L21.1592 19.995L24.046 21.6137C24.1218 21.6568 24.2057 21.685 24.2928 21.6966C24.38 21.7082 24.4686 21.7029 24.5536 21.6811C24.6386 21.6592 24.7183 21.6213 24.7881 21.5694C24.858 21.5176 24.9166 21.4528 24.9605 21.3789C25.0045 21.3049 25.033 21.2232 25.0443 21.1386C25.0556 21.0539 25.0496 20.9679 25.0266 20.8855C25.0035 20.8031 24.9639 20.7259 24.9101 20.6584C24.8562 20.591 24.7891 20.5345 24.7127 20.4923L21.8259 18.8737L22.4926 17.7523L29.4208 21.637L26.0874 27.2419C26.0004 27.3905 25.9774 27.5666 26.0235 27.7316C26.0697 27.8966 26.1811 28.0371 26.3336 28.1226C26.486 28.2081 26.6671 28.2316 26.8373 28.1879C27.0075 28.1442 27.153 28.0369 27.2421 27.8894L35.5756 13.8741C35.664 13.7258 35.6883 13.5494 35.643 13.3838C35.5978 13.2181 35.4868 13.0766 35.3343 12.9903L34.1796 12.3429L36.513 8.41677L37.6677 9.06422C37.8207 9.14872 38.002 9.17101 38.1719 9.12621C38.3418 9.08141 38.4865 8.97317 38.5746 8.82511C38.6626 8.67705 38.6867 8.50118 38.6417 8.33589C38.5967 8.1706 38.4862 8.02931 38.3344 7.94284L36.601 6.97167L30.8275 3.73444L31.4942 2.61306L38.9997 6.82146C39.1529 6.90732 39.335 6.93055 39.5058 6.88605C39.6767 6.84155 39.8223 6.73296 39.9107 6.58418C39.9991 6.43539 40.0231 6.25858 39.9773 6.09266C39.9314 5.92674 39.8196 5.7853 39.6664 5.69944L39.6677 5.70138ZM19.8672 31.2341L18.5338 33.4768L17.3791 32.8294L18.7125 30.5866L19.2899 30.9103L19.8672 31.2341ZM27.1621 9.9059L28.3161 10.5533L25.6494 15.0382L24.4947 14.3908L27.1621 9.9059ZM23.6066 15.8864L23.8287 15.5128L25.562 16.4839L27.2954 17.4551L30.7622 19.3975L30.0955 20.5188L23.1673 16.6342L23.6066 15.8864ZM31.4235 18.2761L30.2688 17.6286L31.8675 14.9417C31.9559 14.7929 31.9799 14.6161 31.934 14.4502C31.8882 14.2843 31.7764 14.1429 31.6232 14.057C31.47 13.9711 31.2879 13.9479 31.1171 13.9924C30.9462 14.0369 30.8006 14.1455 30.7122 14.2943L29.1141 16.9792L26.8047 15.6844L29.4715 11.1988L34.0903 13.7886L31.4235 18.2761Z" fill="#199ED8"/>
<path d="M6.13816 25.7638C6.01314 25.6424 5.84359 25.5743 5.66681 25.5743C5.49003 25.5743 5.32049 25.6424 5.19547 25.7638L4.66679 26.2772L4.1381 25.7638C4.07661 25.702 4.00304 25.6527 3.9217 25.6187C3.84036 25.5848 3.75288 25.5669 3.66436 25.5662C3.57584 25.5654 3.48805 25.5818 3.40612 25.6144C3.32418 25.6469 3.24975 25.695 3.18715 25.7558C3.12455 25.8166 3.07505 25.8889 3.04153 25.9684C3.00801 26.048 2.99114 26.1333 2.99191 26.2192C2.99268 26.3052 3.01107 26.3902 3.04601 26.4692C3.08095 26.5481 3.13174 26.6196 3.19541 26.6793L3.72409 27.1927L3.19541 27.7062C3.13174 27.7659 3.08095 27.8373 3.04601 27.9163C3.01107 27.9953 2.99268 28.0803 2.99191 28.1662C2.99114 28.2522 3.00801 28.3375 3.04153 28.417C3.07505 28.4966 3.12455 28.5689 3.18715 28.6297C3.24975 28.6905 3.32418 28.7385 3.40612 28.7711C3.48805 28.8036 3.57584 28.82 3.66436 28.8193C3.75288 28.8185 3.84036 28.8007 3.9217 28.7667C4.00304 28.7328 4.07661 28.6835 4.1381 28.6216L4.66679 28.1082L5.19547 28.6216C5.3212 28.7396 5.48961 28.8048 5.66441 28.8034C5.83921 28.8019 6.00643 28.7338 6.13004 28.6138C6.25364 28.4937 6.32376 28.3313 6.32528 28.1616C6.3268 27.9918 6.2596 27.8283 6.13816 27.7062L5.60948 27.1927L6.13816 26.6793C6.26314 26.5579 6.33335 26.3932 6.33335 26.2216C6.33335 26.0499 6.26314 25.8852 6.13816 25.7638Z" fill="#199ED8"/>
<path d="M9.33362 36.9044C9.70182 36.9044 10.0003 36.6145 10.0003 36.2569C10.0003 35.8994 9.70182 35.6095 9.33362 35.6095C8.96542 35.6095 8.66693 35.8994 8.66693 36.2569C8.66693 36.6145 8.96542 36.9044 9.33362 36.9044Z" fill="#199ED8"/>
<path d="M6.66681 36.257C7.03501 36.257 7.33349 35.9671 7.33349 35.6095C7.33349 35.252 7.03501 34.9621 6.66681 34.9621C6.29861 34.9621 6.00012 35.252 6.00012 35.6095C6.00012 35.9671 6.29861 36.257 6.66681 36.257Z" fill="#199ED8"/>
<path d="M12.0003 37.5518C12.3685 37.5518 12.667 37.262 12.667 36.9044C12.667 36.5468 12.3685 36.257 12.0003 36.257C11.6321 36.257 11.3336 36.5468 11.3336 36.9044C11.3336 37.262 11.6321 37.5518 12.0003 37.5518Z" fill="#199ED8"/>
<path d="M4.66681 34.3146C5.03501 34.3146 5.33349 34.0247 5.33349 33.6672C5.33349 33.3096 5.03501 33.0197 4.66681 33.0197C4.29861 33.0197 4.00012 33.3096 4.00012 33.6672C4.00012 34.0247 4.29861 34.3146 4.66681 34.3146Z" fill="#199ED8"/>
<path d="M3.33337 21.3657C3.70157 21.3657 4.00006 21.0758 4.00006 20.7182C4.00006 20.3607 3.70157 20.0708 3.33337 20.0708C2.96517 20.0708 2.66669 20.3607 2.66669 20.7182C2.66669 21.0758 2.96517 21.3657 3.33337 21.3657Z" fill="#199ED8"/>
<path d="M4.66681 19.4234C5.03501 19.4234 5.33349 19.1335 5.33349 18.7759C5.33349 18.4184 5.03501 18.1285 4.66681 18.1285C4.29861 18.1285 4.00012 18.4184 4.00012 18.7759C4.00012 19.1335 4.29861 19.4234 4.66681 19.4234Z" fill="#199ED8"/>
<path d="M4.66679 22.6606C3.74379 22.6606 2.84151 22.9264 2.07406 23.4244C1.30661 23.9224 0.708458 24.6302 0.35524 25.4583C0.00202204 26.2865 -0.0903959 27.1977 0.0896731 28.0769C0.269742 28.956 0.714211 29.7636 1.36687 30.3974C2.01954 31.0312 2.85108 31.4629 3.75635 31.6377C4.66161 31.8126 5.59995 31.7229 6.45269 31.3798C7.30544 31.0368 8.03429 30.4559 8.54709 29.7106C9.05988 28.9653 9.33358 28.0891 9.33358 27.1927C9.33217 25.9911 8.84004 24.8392 7.96515 23.9895C7.09026 23.1399 5.90407 22.662 4.66679 22.6606ZM4.66679 30.4299C4.0075 30.4299 3.36302 30.2401 2.81484 29.8844C2.26666 29.5287 1.83941 29.0231 1.58711 28.4315C1.33481 27.84 1.2688 27.1891 1.39742 26.5612C1.52604 25.9332 1.84352 25.3564 2.30971 24.9036C2.77589 24.4509 3.36985 24.1426 4.01647 24.0177C4.66309 23.8928 5.33333 23.9569 5.94244 24.2019C6.55154 24.4469 7.07215 24.8618 7.43843 25.3942C7.80471 25.9266 8.00021 26.5524 8.00021 27.1927C7.99915 28.051 7.64761 28.8738 7.02271 29.4806C6.3978 30.0875 5.55054 30.4289 4.66679 30.4299Z" fill="#199ED8"/>
<path d="M36.7043 31.1862C36.4881 31.0465 36.3107 30.8571 36.188 30.6348C36.0653 30.4125 36.0011 30.1642 36.0009 29.912V29.6653C36.4469 29.5143 36.8231 29.2146 37.0629 28.8194C37.3027 28.4243 37.3903 27.9594 37.3104 27.5074C37.2304 27.0554 36.9879 26.6456 36.6261 26.3509C36.2642 26.0562 35.8065 25.8957 35.3343 25.8978H31.3342C30.8629 25.897 30.4066 26.0581 30.046 26.3527C29.6853 26.6473 29.4437 27.0563 29.3638 27.5073C29.284 27.9583 29.3711 28.4222 29.6097 28.8168C29.8483 29.2115 30.223 29.5114 30.6675 29.6634V29.912C30.6677 30.1646 30.6036 30.4132 30.4809 30.6359C30.3581 30.8585 30.1806 31.0482 29.9641 31.1881C29.5654 31.4457 29.2384 31.795 29.0122 32.2049C28.786 32.6148 28.6675 33.0726 28.6674 33.5377V36.9044C28.6674 37.4196 28.8781 37.9136 29.2532 38.2779C29.6283 38.6421 30.137 38.8468 30.6675 38.8468H36.0009C36.5314 38.8468 37.0401 38.6421 37.4152 38.2779C37.7903 37.9136 38.001 37.4196 38.001 36.9044V33.5377C38.0012 33.0723 37.8829 32.6141 37.6567 32.2038C37.4305 31.7936 37.1033 31.444 36.7043 31.1862ZM31.3342 27.1927H35.3343C35.5111 27.1927 35.6807 27.261 35.8057 27.3824C35.9307 27.5038 36.0009 27.6685 36.0009 27.8402C36.0009 28.0119 35.9307 28.1766 35.8057 28.298C35.6807 28.4194 35.5111 28.4876 35.3343 28.4876H31.3342C31.1573 28.4876 30.9878 28.4194 30.8627 28.298C30.7377 28.1766 30.6675 28.0119 30.6675 27.8402C30.6675 27.6685 30.7377 27.5038 30.8627 27.3824C30.9878 27.261 31.1573 27.1927 31.3342 27.1927ZM30.7041 32.2635C31.1031 32.0058 31.4303 31.6562 31.6565 31.2459C31.8828 30.8356 32.0011 30.3774 32.0008 29.912V29.7825H34.6676V29.912C34.667 30.3777 34.7852 30.8364 35.0114 31.247C35.2377 31.6576 35.565 32.0075 35.9643 32.2655C36.0109 32.2992 36.0554 32.3355 36.0976 32.3743H32.0675C31.8907 32.3743 31.7211 32.4425 31.5961 32.5639C31.4711 32.6853 31.4008 32.85 31.4008 33.0217C31.4008 33.1934 31.4711 33.3581 31.5961 33.4795C31.7211 33.6009 31.8907 33.6691 32.0675 33.6691H36.6676V34.964H30.0008V33.5377C30.0009 33.2855 30.0652 33.0372 30.1879 32.8149C30.3106 32.5927 30.4879 32.4032 30.7041 32.2635ZM36.0009 37.5519H30.6675C30.4907 37.5519 30.3211 37.4837 30.1961 37.3622C30.071 37.2408 30.0008 37.0761 30.0008 36.9044V36.257H36.6676V36.9044C36.6676 37.0761 36.5974 37.2408 36.4724 37.3622C36.3473 37.4837 36.1778 37.5519 36.0009 37.5519Z" fill="#199ED8"/>
<path d="M5.90084 6.00441C5.7039 5.82491 5.47127 5.68637 5.21722 5.5973C4.96317 5.50823 4.69306 5.47051 4.42347 5.48645L4.09479 5.50717C4.00741 5.51261 3.922 5.53471 3.84341 5.57221C3.76483 5.60971 3.69463 5.66187 3.6368 5.72572C3.57898 5.78957 3.53468 5.86385 3.50642 5.94433C3.47816 6.02481 3.4665 6.10991 3.47211 6.19476C3.47647 6.28009 3.49842 6.3637 3.53667 6.44064C3.57492 6.51758 3.62868 6.58628 3.69476 6.64267C3.76085 6.69906 3.83792 6.742 3.92141 6.76893C4.00489 6.79587 4.0931 6.80625 4.18079 6.79948L4.50947 6.77876C4.63533 6.7714 4.76066 6.79996 4.87 6.86094C4.97934 6.92191 5.06792 7.01263 5.12482 7.1219C4.96734 7.43904 4.84874 7.77303 4.77147 8.11703C4.43688 8.02858 4.08418 8.02737 3.74896 8.11354C3.41373 8.1997 3.10783 8.37018 2.86209 8.60779C2.73691 8.72919 2.66651 8.89392 2.66638 9.06573C2.66626 9.23753 2.73642 9.40235 2.86142 9.52393C2.98643 9.6455 3.15605 9.71387 3.33297 9.71399C3.50988 9.71411 3.6796 9.64598 3.80478 9.52458C3.89955 9.4316 4.02222 9.37018 4.15517 9.34912C4.28813 9.32807 4.42453 9.34847 4.5448 9.40739L4.68814 9.47666C4.71932 9.81048 4.78864 10.1399 4.89481 10.4588C4.55939 10.5446 4.25325 10.7149 4.0074 10.9526C3.76155 11.1902 3.58471 11.4867 3.49477 11.812C3.47209 11.8941 3.46628 11.9798 3.4777 12.0641C3.48911 12.1484 3.51751 12.2297 3.56128 12.3034C3.60505 12.377 3.66333 12.4416 3.73279 12.4934C3.80226 12.5451 3.88154 12.5831 3.96612 12.6051C4.02268 12.6197 4.08094 12.6271 4.13946 12.6271C4.2861 12.627 4.4286 12.5799 4.54491 12.4932C4.66121 12.4065 4.74483 12.2849 4.78281 12.1474C4.81745 12.021 4.8922 11.9085 4.99643 11.8257C5.10067 11.743 5.2291 11.6942 5.36349 11.6864L5.52683 11.6773C5.71916 11.9398 5.9395 12.1817 6.18418 12.3992C5.99838 12.5901 5.85511 12.8162 5.76335 13.0633C5.67158 13.3103 5.63327 13.5732 5.65083 13.8353L5.67217 14.1545C5.68319 14.3188 5.75826 14.4728 5.88212 14.5853C6.00597 14.6978 6.16929 14.7602 6.33885 14.7598C6.35352 14.7598 6.36818 14.7598 6.38285 14.7598C6.47023 14.7543 6.55563 14.7321 6.63418 14.6946C6.71274 14.657 6.78289 14.6047 6.84066 14.5408C6.89842 14.4769 6.94265 14.4026 6.97083 14.3221C6.999 14.2416 7.01057 14.1564 7.00487 14.0716L6.98353 13.753C6.97401 13.6305 7.0022 13.5079 7.06452 13.401C7.12683 13.294 7.22047 13.2074 7.33354 13.1522C7.84581 13.3902 8.39881 13.5347 8.96492 13.5782C9.0345 13.6802 9.07161 13.7997 9.07161 13.922C9.07161 14.0443 9.0345 14.1639 8.96492 14.2658L8.78225 14.5319C8.68411 14.6748 8.64844 14.8497 8.68307 15.0181C8.71771 15.1865 8.81981 15.3346 8.96692 15.4299C9.11403 15.5252 9.2941 15.5599 9.46751 15.5262C9.64092 15.4926 9.79348 15.3935 9.89161 15.2506L10.0743 14.9838C10.2237 14.7656 10.3253 14.5199 10.3728 14.262C10.4203 14.004 10.4126 13.7393 10.3503 13.4844C10.6899 13.4103 11.0198 13.2991 11.3336 13.1529C11.4466 13.2073 11.5404 13.293 11.6033 13.3991C11.6661 13.5052 11.6953 13.627 11.687 13.7492L11.6657 14.0684C11.66 14.1532 11.6715 14.2383 11.6997 14.3188C11.7279 14.3994 11.7721 14.4737 11.8299 14.5376C11.8876 14.6015 11.9578 14.6537 12.0363 14.6913C12.1149 14.7289 12.2003 14.7511 12.2877 14.7566C12.3023 14.7566 12.317 14.7566 12.3317 14.7566C12.5012 14.7569 12.6646 14.6945 12.7884 14.5821C12.9123 14.4696 12.9873 14.3155 12.9984 14.1512L13.0197 13.8314C13.0368 13.5699 12.9982 13.3078 12.9065 13.0614C12.8147 12.815 12.6717 12.5896 12.4863 12.3992C12.5841 12.3129 12.6777 12.2216 12.767 12.1254C13.131 12.4597 13.6127 12.6464 14.1137 12.6472C14.1564 12.6472 14.1997 12.6472 14.2431 12.6433L14.5717 12.6226C14.6591 12.6172 14.7445 12.5951 14.8231 12.5576C14.9017 12.5201 14.9719 12.4679 15.0297 12.4041C15.0875 12.3402 15.1319 12.2659 15.1601 12.1854C15.1884 12.105 15.2 12.0199 15.1944 11.935C15.1898 11.8498 15.1677 11.7663 15.1293 11.6895C15.091 11.6127 15.0372 11.5441 14.9712 11.4877C14.9052 11.4314 14.8282 11.3884 14.7448 11.3614C14.6615 11.3344 14.5734 11.3238 14.4857 11.3303L14.1571 11.351C14.0318 11.359 13.9068 11.331 13.7979 11.2704C13.6889 11.2098 13.6007 11.1194 13.5444 11.0105C13.791 10.5106 13.9407 9.97093 13.9857 9.4184C14.0908 9.35278 14.2133 9.31833 14.3382 9.31925C14.4631 9.32017 14.585 9.35642 14.6891 9.42357L14.9631 9.60162C15.0359 9.64881 15.1176 9.6816 15.2035 9.69813C15.2894 9.71465 15.3778 9.71459 15.4637 9.69793C15.5495 9.68128 15.6312 9.64837 15.7039 9.60107C15.7767 9.55377 15.8392 9.49302 15.8878 9.42228C15.9364 9.35154 15.9701 9.2722 15.9871 9.18878C16.0042 9.10537 16.0041 9.01952 15.9869 8.93613C15.9698 8.85275 15.9359 8.77345 15.8872 8.70279C15.8385 8.63212 15.7759 8.57146 15.7031 8.52427L15.4291 8.34687C15.1048 8.13601 14.7233 8.02345 14.3331 8.02345C13.9428 8.02345 13.5613 8.13601 13.237 8.34687L12.963 8.52427C12.8717 8.58361 12.7969 8.66396 12.7452 8.75817C12.6936 8.85237 12.6667 8.95752 12.667 9.06424C12.6668 9.84963 12.3725 10.6081 11.8391 11.1985C11.3057 11.7888 10.5695 12.1707 9.76766 12.2729C8.96582 12.3752 8.15304 12.1909 7.48076 11.7543C6.80848 11.3178 6.32254 10.6588 6.11348 9.9001C5.90442 9.14141 5.9865 8.33478 6.34443 7.63051C6.70236 6.92623 7.31172 6.37234 8.05899 6.07203C8.80626 5.77172 9.64046 5.74548 10.4062 5.99819C11.1719 6.2509 11.8169 6.76533 12.221 7.44563C12.2787 7.54961 12.3659 7.63537 12.4722 7.69274C12.5786 7.75011 12.6996 7.77669 12.821 7.76935C12.9417 7.76545 13.0591 7.72977 13.1605 7.66614C13.262 7.60251 13.3437 7.51331 13.397 7.40808L13.5417 7.1219C13.5967 7.01082 13.6849 6.91841 13.7948 6.85674C13.9047 6.79507 14.0312 6.76699 14.1577 6.77617L14.4864 6.79689C14.574 6.8033 14.6621 6.79266 14.7454 6.76559C14.8287 6.73852 14.9057 6.69556 14.9717 6.63924C15.0377 6.58291 15.0914 6.51436 15.1298 6.43759C15.1682 6.36082 15.1904 6.27738 15.1951 6.19217C15.2007 6.10732 15.189 6.02222 15.1608 5.94174C15.1325 5.86126 15.0882 5.78698 15.0304 5.72313C14.9726 5.65928 14.9024 5.60712 14.8238 5.56962C14.7452 5.53212 14.6598 5.51002 14.5724 5.50458L14.2437 5.48387C13.9748 5.46791 13.7053 5.50513 13.4516 5.59327C13.1979 5.68141 12.9652 5.81864 12.7677 5.99664C12.5432 5.76057 12.2933 5.54851 12.0223 5.36409L12.0317 5.20741C12.0397 5.07681 12.0899 4.95199 12.1751 4.85065C12.2603 4.74931 12.3762 4.6766 12.5063 4.64283C12.593 4.62269 12.6745 4.58589 12.7463 4.53461C12.818 4.48334 12.8784 4.41863 12.924 4.3443C12.9695 4.26997 12.9993 4.18753 13.0115 4.10185C13.0237 4.01617 13.0181 3.92899 12.995 3.84545C12.9719 3.7619 12.9318 3.6837 12.8771 3.61545C12.8224 3.5472 12.7541 3.49029 12.6764 3.44808C12.5987 3.40587 12.513 3.37921 12.4245 3.36969C12.336 3.36016 12.2464 3.36796 12.161 3.39261C11.8261 3.48019 11.521 3.65201 11.2763 3.89073C11.0317 4.12945 10.8562 4.42662 10.7676 4.75225C10.4225 4.64479 10.0656 4.57699 9.70427 4.55025C9.6343 4.44835 9.59696 4.32861 9.59696 4.20613C9.59696 4.08365 9.6343 3.96391 9.70427 3.86201L9.88694 3.59591C9.98508 3.45305 10.0208 3.27817 9.98612 3.10977C9.95149 2.94136 9.84938 2.79321 9.70227 2.6979C9.55516 2.6026 9.37509 2.56796 9.20168 2.60159C9.02827 2.63523 8.87571 2.73438 8.77758 2.87725L8.59491 3.14399C8.44551 3.36196 8.34391 3.60746 8.29643 3.86521C8.24894 4.12295 8.25659 4.38743 8.3189 4.64219C7.97851 4.71705 7.64795 4.82913 7.33354 4.97627C7.22021 4.92205 7.126 4.83638 7.06286 4.7301C6.99971 4.62383 6.97048 4.50175 6.97887 4.37932L7.0002 4.06013C7.0059 3.97528 6.99433 3.89016 6.96616 3.80965C6.93798 3.72913 6.89375 3.6548 6.83599 3.59089C6.77823 3.52698 6.70807 3.47474 6.62952 3.43717C6.55097 3.39959 6.46556 3.37741 6.37818 3.3719C6.2905 3.36494 6.20228 3.37517 6.11875 3.402C6.03523 3.42883 5.95812 3.47169 5.892 3.52805C5.82588 3.58441 5.77211 3.6531 5.73389 3.73005C5.69566 3.807 5.67377 3.89063 5.6695 3.97596L5.64816 4.2958C5.63066 4.55781 5.66899 4.82052 5.76076 5.06749C5.85253 5.31447 5.99576 5.54041 6.18151 5.73119C6.08462 5.81795 5.99106 5.90902 5.90084 6.00441Z" fill="#199ED8"/>
<path d="M8.66693 8.41679C8.66693 8.24508 8.59669 8.0804 8.47166 7.95898C8.34663 7.83756 8.17706 7.76935 8.00024 7.76935C7.82343 7.76935 7.65385 7.83756 7.52882 7.95898C7.4038 8.0804 7.33356 8.24508 7.33356 8.41679C7.33356 9.10365 7.61452 9.76237 8.11463 10.248C8.61474 10.7337 9.29303 11.0066 10.0003 11.0066C10.1771 11.0066 10.3467 10.9384 10.4717 10.8169C10.5967 10.6955 10.667 10.5308 10.667 10.3591C10.667 10.1874 10.5967 10.0227 10.4717 9.90132C10.3467 9.7799 10.1771 9.71169 10.0003 9.71169C9.64666 9.71169 9.30752 9.57526 9.05746 9.33242C8.80741 9.08958 8.66693 8.76022 8.66693 8.41679Z" fill="#199ED8"/>
<path d="M10.6669 9.06424C11.0351 9.06424 11.3336 8.77437 11.3336 8.41679C11.3336 8.05922 11.0351 7.76935 10.6669 7.76935C10.2987 7.76935 10.0002 8.05922 10.0002 8.41679C10.0002 8.77437 10.2987 9.06424 10.6669 9.06424Z" fill="#199ED8"/>
<path d="M9.33353 18.1285C10.8086 18.1307 12.2632 17.7934 13.578 17.1442C14.8929 16.495 16.0306 15.5524 16.8979 14.3937C17.7651 13.235 18.3373 11.8932 18.5674 10.4782C18.7975 9.06327 18.679 7.61551 18.2216 6.25364C17.7642 4.89177 16.981 3.65456 15.9361 2.64345C14.8913 1.63234 13.6145 0.876125 12.2105 0.436803C10.8066 -0.00251917 9.3154 -0.112438 7.85924 0.11606C6.40309 0.344557 5.02343 0.904963 3.83338 1.75133C3.76273 1.80158 3.70296 1.86485 3.65749 1.93753C3.61201 2.01022 3.58173 2.09088 3.56835 2.17493C3.55498 2.25898 3.55879 2.34477 3.57955 2.42739C3.60032 2.51001 3.63764 2.58785 3.68938 2.65646C3.74112 2.72508 3.80627 2.78312 3.88112 2.82728C3.95596 2.87144 4.03902 2.90086 4.12557 2.91384C4.21211 2.92683 4.30045 2.92313 4.38552 2.90297C4.4706 2.8828 4.55075 2.84656 4.62141 2.79631C6.25283 1.6381 8.27424 1.12046 10.2816 1.34685C12.289 1.57323 14.1344 2.52697 15.4491 4.01743C16.7638 5.5079 17.4509 7.42529 17.3731 9.38638C17.2952 11.3475 16.4581 13.2078 15.0292 14.5955C13.6002 15.9833 11.6846 16.7962 9.66525 16.8718C7.64588 16.9474 5.67152 16.2801 4.13677 15.0034C2.60201 13.7266 1.61994 11.9344 1.38683 9.98496C1.15371 8.03551 1.68673 6.07243 2.87936 4.48809C2.93284 4.41963 2.97175 4.34152 2.99383 4.2583C3.01591 4.17509 3.02071 4.08844 3.00795 4.00341C2.9952 3.91838 2.96514 3.83666 2.91953 3.76303C2.87392 3.68939 2.81367 3.62531 2.7423 3.57452C2.67093 3.52373 2.58986 3.48724 2.50382 3.46719C2.41778 3.44714 2.32849 3.44392 2.24115 3.45772C2.15382 3.47152 2.07018 3.50207 1.99513 3.54758C1.92008 3.59309 1.8551 3.65266 1.804 3.72281C0.785012 5.07274 0.171335 6.67059 0.0311396 8.33884C-0.109056 10.0071 0.22972 11.6804 1.00983 13.173C1.78994 14.6655 2.98085 15.9188 4.45024 16.7936C5.91964 17.6684 7.61 18.1305 9.33353 18.1285Z" fill="#199ED8"/>
</svg>