<svg version="1.1" id="Layer_1" xmlns="http://www.w3.org/2000/svg" xmlns:xlink="http://www.w3.org/1999/xlink">
	 <symbol id="life" viewBox="0 0 32 32">
			<g>
				<path class="st1" d="M0,16C0,7.2,7.3,0,16.4,0c9.1,0,16.4,7.2,16.4,16s-7.3,16-16.4,16c-1.8,0-3.5-0.3-5.1-0.8
					c1.2-6.6,5.4-12,11.1-14.3c0.7,0.8,1.7,1.2,2.8,1.2c2,0,3.6-1.6,3.6-3.6c0-2-1.6-3.6-3.6-3.6c-2,0-3.6,1.6-3.6,3.6
					c-7.2,2.1-13,7-16,13.3c-0.9-0.8-1.8-1.7-2.5-2.8c0.2-6.1,3.3-11.5,7.9-14.7c0.7,0.8,1.7,1.2,2.7,1.2c2,0,3.6-1.6,3.6-3.6
					c0-2-1.6-3.6-3.6-3.6c-2,0-3.6,1.6-3.6,3.6c0,0.1,0,0.2,0,0.3c-4.3,1.5-7.9,4.4-10,8.2C0,16.4,0,16.2,0,16"
					style="fill:#fff; fill-opacity:1;fill-rule:evenodd"/>
			</g>
	 </symbol>
</svg>
