<?xml version="1.0" encoding="UTF-8"?>
<svg width="133px" height="108px"  version="1.1" xmlns="http://www.w3.org/2000/svg" xmlns:xlink="http://www.w3.org/1999/xlink">
    <symbol viewBox="0 0 133 108" id="logo">
    <title>лого</title>
    <desc>Created with Sketch.</desc>
    <defs></defs>
    <g id="Page-3" stroke="none" stroke-width="1" fill="none" fill-rule="evenodd">
        <g id="Логотип-Dis" transform="translate(-159.000000, -158.000000)">
            <g id="лого" transform="translate(159.000000, 158.000000)">
                <path d="M19.9233709,101.476608 L19.9233709,107.186616 L18,107.186616 L18,92.6010534 L23.3794279,92.6010534 C24.20755,92.6010534 24.9388243,92.7112454 25.5732727,92.9316328 C26.2077212,93.1520201 26.7403159,93.4608917 27.171073,93.8582567 C27.6018301,94.2556218 27.929067,94.7264423 28.1527936,95.2707322 C28.3765201,95.8150222 28.4883817,96.4110608 28.4883817,97.0588661 C28.4883817,97.7600985 28.3765201,98.3861895 28.1527936,98.9371579 C27.929067,99.4881263 27.6018301,99.9505988 27.171073,100.324589 C26.7403159,100.69858 26.2077212,100.984078 25.5732727,101.181091 C24.9388243,101.378104 24.20755,101.476608 23.3794279,101.476608 L19.9233709,101.476608 Z M19.9233709,99.9038521 L23.3794279,99.9038521 C23.9404138,99.9038521 24.4229213,99.8337299 24.8269648,99.6934834 C25.2310083,99.5532369 25.5615843,99.3578965 25.8187029,99.1074564 C26.0758215,98.8570162 26.2644835,98.5598317 26.3846948,98.2158938 C26.5049061,97.871956 26.5650108,97.4929622 26.5650108,97.0789012 C26.5650108,96.7049105 26.5049061,96.3426125 26.3846948,95.9919963 C26.2644835,95.6413801 26.0758215,95.3325085 25.8187029,95.0653723 C25.5615843,94.7982361 25.2310083,94.5845304 24.8269648,94.4242487 C24.4229213,94.263967 23.9404138,94.1838273 23.3794279,94.1838273 L19.9233709,94.1838273 L19.9233709,99.9038521 Z M39.1871321,100.4448 L32.8660539,100.4448 L32.8660539,105.613859 L40.2089229,105.613859 L40.2089229,107.186616 L30.9426831,107.186616 L30.9426831,92.6010534 L40.1087473,92.6010534 L40.1087473,94.1838273 L32.8660539,94.1838273 L32.8660539,98.8720438 L39.1871321,98.8720438 L39.1871321,100.4448 Z M49.805742,94.0535991 L50.076216,94.0535991 C50.917695,94.0535991 51.6990566,94.1971826 52.4203243,94.484354 C53.141592,94.7715254 53.767683,95.1738932 54.2986161,95.6914696 C54.8295493,96.2090459 55.2469433,96.8267891 55.5508107,97.5447175 C55.8546781,98.262646 56.0066095,99.0556947 56.0066095,99.9238872 C56.0066095,100.79208 55.8546781,101.586798 55.5508107,102.308066 C55.2469433,103.029333 54.8295493,103.650416 54.2986161,104.171331 C53.767683,104.692247 53.141592,105.096284 52.4203243,105.383456 C51.6990566,105.670627 50.917695,105.81421 50.076216,105.81421 L49.805742,105.81421 L49.805742,107.787669 L47.9524941,107.787669 L47.9524941,105.81421 L47.6619849,105.81421 C46.820506,105.81421 46.0391444,105.670627 45.3178767,105.383456 C44.596609,105.096284 43.970518,104.695586 43.4395848,104.181349 C42.9086517,103.667112 42.4929272,103.049368 42.192399,102.328101 C41.8918709,101.606833 41.741609,100.812115 41.741609,99.9439223 C41.741609,99.0757298 41.8918709,98.2810116 42.192399,97.5597439 C42.4929272,96.8384762 42.9086517,96.2173939 43.4395848,95.6964784 C43.970518,95.1755628 44.596609,94.7715254 45.3178767,94.484354 C46.0391444,94.1971826 46.820506,94.0535991 47.6619849,94.0535991 L47.9524941,94.0535991 L47.9524941,92 L49.805742,92 L49.805742,94.0535991 Z M47.6619849,95.5762677 C47.0075013,95.5762677 46.4264888,95.681451 45.9189301,95.8918207 C45.4113713,96.1021905 44.9839599,96.3977054 44.6366828,96.7783745 C44.2894058,97.1590435 44.0272824,97.6181769 43.8503047,98.1557885 C43.6733269,98.6934001 43.5848394,99.2894387 43.5848394,99.9439223 C43.5848394,100.605084 43.6733269,101.202793 43.8503047,101.737065 C44.0272824,102.271337 44.2894058,102.728801 44.6366828,103.10947 C44.9839599,103.490139 45.4113713,103.783985 45.9189301,103.991015 C46.4264888,104.198046 47.0075013,104.301559 47.6619849,104.301559 L47.9524941,104.301559 L47.9524941,95.5762677 L47.6619849,95.5762677 Z M49.805742,95.5762677 L49.805742,104.301559 L50.0962512,104.301559 C50.7440564,104.301559 51.3217297,104.196376 51.8292884,103.986006 C52.3368472,103.775637 52.7625891,103.480122 53.1065269,103.099453 C53.4504647,102.718784 53.7125882,102.25965 53.8929051,101.722039 C54.073222,101.184427 54.1633791,100.585049 54.1633791,99.9238872 C54.1633791,99.2694036 54.073222,98.6750345 53.8929051,98.1407622 C53.7125882,97.6064898 53.4504647,97.149026 53.1065269,96.7683569 C52.7625891,96.3876879 52.3368472,96.0938425 51.8292884,95.8868119 C51.3217297,95.6797814 50.7440564,95.5762677 50.0962512,95.5762677 L49.805742,95.5762677 Z M69.6605391,100.36466 C69.6605391,101.459918 69.5219643,102.439959 69.2448105,103.304813 C68.9676567,104.169666 68.5753063,104.905949 68.0677476,105.513684 C67.5601889,106.121419 66.9457849,106.585561 66.2245172,106.906124 C65.5032495,107.226688 64.6985139,107.386967 63.8102861,107.386967 C62.9487719,107.386967 62.1573928,107.226688 61.4361252,106.906124 C60.7148575,106.585561 60.0937752,106.121419 59.5728597,105.513684 C59.0519441,104.905949 58.6479067,104.169666 58.3607353,103.304813 C58.0735639,102.439959 57.9299804,101.459918 57.9299804,100.36466 L57.9299804,99.4430445 C57.9299804,98.3544646 58.0735639,97.3744234 58.3607353,96.5028917 C58.6479067,95.6313599 59.048605,94.8917377 59.5628421,94.2840029 C60.0770792,93.6762681 60.6948224,93.2104564 61.4160901,92.8865538 C62.1373577,92.5626511 62.9287368,92.4007023 63.790251,92.4007023 C64.6784787,92.4007023 65.484884,92.5626511 66.2094909,92.8865538 C66.9340977,93.2104564 67.5518409,93.6762681 68.0627388,94.2840029 C68.5736368,94.8917377 68.9676567,95.6313599 69.2448105,96.5028917 C69.5219643,97.3744234 69.6605391,98.3544646 69.6605391,99.4430445 L69.6605391,100.36466 Z M67.7471858,99.4230094 C67.7471858,98.5548168 67.6586983,97.7868118 67.4817205,97.1189714 C67.3047428,96.451131 67.0459585,95.8901534 66.7053599,95.4360219 C66.3647613,94.9818904 65.9490368,94.6379577 65.4581741,94.4042136 C64.9673114,94.1704694 64.4113426,94.0535991 63.790251,94.0535991 C63.195873,94.0535991 62.6549303,94.1704694 62.1674068,94.4042136 C61.6798833,94.6379577 61.2641588,94.9818904 60.920221,95.4360219 C60.5762832,95.8901534 60.3108206,96.451131 60.1238253,97.1189714 C59.9368299,97.7868118 59.8433337,98.5548168 59.8433337,99.4230094 L59.8433337,100.36466 C59.8433337,101.239531 59.9384995,102.010875 60.128834,102.678715 C60.3191686,103.346556 60.5879703,103.909203 60.9352473,104.366674 C61.2825244,104.824144 61.6999184,105.169746 62.1874419,105.403491 C62.6749654,105.637235 63.2159081,105.754105 63.8102861,105.754105 C64.4380561,105.754105 64.9956945,105.637235 65.483218,105.403491 C65.9707415,105.169746 66.3831268,104.824144 66.7203862,104.366674 C67.0576457,103.909203 67.3130908,103.346556 67.4867293,102.678715 C67.6603678,102.010875 67.7471858,101.239531 67.7471858,100.36466 L67.7471858,99.4230094 Z M74.4689662,101.476608 L74.4689662,107.186616 L72.5455954,107.186616 L72.5455954,92.6010534 L77.9250232,92.6010534 C78.7531454,92.6010534 79.4844197,92.7112454 80.1188681,92.9316328 C80.7533165,93.1520201 81.2859113,93.4608917 81.7166684,93.8582567 C82.1474255,94.2556218 82.4746624,94.7264423 82.6983889,95.2707322 C82.9221155,95.8150222 83.0339771,96.4110608 83.0339771,97.0588661 C83.0339771,97.7600985 82.9221155,98.3861895 82.6983889,98.9371579 C82.4746624,99.4881263 82.1474255,99.9505988 81.7166684,100.324589 C81.2859113,100.69858 80.7533165,100.984078 80.1188681,101.181091 C79.4844197,101.378104 78.7531454,101.476608 77.9250232,101.476608 L74.4689662,101.476608 Z M74.4689662,99.9038521 L77.9250232,99.9038521 C78.4860092,99.9038521 78.9685167,99.8337299 79.3725602,99.6934834 C79.7766036,99.5532369 80.1071797,99.3578965 80.3642983,99.1074564 C80.6214168,98.8570162 80.8100789,98.5598317 80.9302902,98.2158938 C81.0505015,97.871956 81.1106062,97.4929622 81.1106062,97.0789012 C81.1106062,96.7049105 81.0505015,96.3426125 80.9302902,95.9919963 C80.8100789,95.6413801 80.6214168,95.3325085 80.3642983,95.0653723 C80.1071797,94.7982361 79.7766036,94.5845304 79.3725602,94.4242487 C78.9685167,94.263967 78.4860092,94.1838273 77.9250232,94.1838273 L74.4689662,94.1838273 L74.4689662,99.9038521 Z M87.9726324,92.6010534 L92.7409894,104.501911 L97.5093463,92.6010534 L100.003718,92.6010534 L100.003718,107.186616 L98.080347,107.186616 L98.080347,101.506661 L98.260663,95.3759166 L93.472271,107.186616 L91.9996902,107.186616 L87.2213157,95.4059692 L87.4116493,101.506661 L87.4116493,107.186616 L85.4882784,107.186616 L85.4882784,92.6010534 L87.9726324,92.6010534 Z M111.634101,103.379944 L105.523392,103.379944 L104.150986,107.186616 L102.16751,107.186616 L107.737272,92.6010534 L109.420221,92.6010534 L115,107.186616 L113.026541,107.186616 L111.634101,103.379944 Z M106.10441,101.79717 L111.0631,101.79717 L108.578746,94.9752143 L106.10441,101.79717 Z" id="реформа-copy-3" fill="#585F73"></path>
                <path d="M111.635377,43.1893743 C111.470321,31.6292685 102.001335,22.2756972 90.3853833,22.2756972 C79.8032017,22.2756972 71.19114,29.145366 69.4413011,38.9910021 C69.4040705,39.2528574 69.4779112,39.505405 69.6491721,39.7039683 C69.8309816,39.9137008 70.1058676,40.0390439 70.3844767,40.0390439 L75.5750449,40.0526951 L75.6507471,40.0433874 C76.1186119,39.9267315 76.2836676,39.6363327 76.3364109,39.4247387 C78.2053878,33.0099038 84.1982757,28.6911526 90.8948222,28.9033671 C98.7045641,29.1819762 105.05921,35.8841073 105.05921,43.8440127 L105.05921,48.9272326 C105.05921,49.4416355 105.432757,49.8158032 105.94778,49.8158032 L111.096154,49.8158032 C119.067849,49.8158032 125.779908,56.1598999 126.058517,63.9553701 C126.168347,67.9458715 124.697118,71.7179532 121.916611,74.5760234 C119.139207,77.430991 115.419869,79.0027435 111.443639,79.0027435 L70.6196501,79.0027435 C70.1046266,79.0027435 69.7304589,79.3756701 69.7304589,79.8900731 L69.7304589,84.7430837 C69.7304589,85.2574867 70.1046266,85.6304133 70.6196501,85.6304133 L111.443639,85.6304133 C123.161975,85.6304133 132.696115,76.1111657 132.696115,64.4058605 C132.579459,52.8085241 123.161355,43.3550506 111.635377,43.1893743 M95.8235351,53.1473227 L95.8235351,70.823798 C95.8235351,71.1700427 96.0549854,71.401493 96.4018506,71.401493 L101.261687,71.401493 C101.608552,71.401493 101.840002,71.1700427 101.840002,70.823798 L101.840002,53.1169177 C101.840002,52.7700525 101.550845,52.4815152 101.203979,52.5392227 L96.3441432,52.5696277 C96.0549854,52.6273351 95.8235351,52.8581649 95.8235351,53.1473227 M84.7157812,71.8631526 C82.4018986,71.8631526 80.0880159,71.3437855 78.583899,70.7083831 C78.2947413,70.5929681 78.1787059,70.2461029 78.2947413,69.9575657 L79.7405301,66.5491029 C79.8565655,66.2599451 80.2034308,66.0868228 80.4932091,66.2599451 C81.5921327,66.7799327 83.4431147,67.2422128 84.5426589,67.2422128 C85.9307403,67.2422128 86.7988341,66.6068104 86.7988341,65.6245426 C86.7988341,64.5274805 85.69929,64.007493 84.3112086,63.5452128 C81.9973259,62.7360675 78.583899,61.5229699 78.583899,57.5374327 C78.583899,53.8981401 81.3606824,51.5296525 86.1621906,51.5296525 C88.5344013,51.5296525 90.5014187,51.9919326 92.0055356,52.6850426 C92.2946933,52.8004575 92.4101082,53.1473227 92.2946933,53.43586 L90.9643194,56.3820426 C90.848284,56.6712004 90.5014187,56.7866153 90.2116405,56.6712004 C89.3441671,56.2666277 87.9560857,55.862055 86.972577,55.862055 C85.5838751,55.862055 84.7157812,56.4974575 84.7157812,57.4797252 C84.7157812,58.6928227 85.8153254,59.1544824 87.2611143,59.6744699 C89.6333249,60.4836153 93.0467518,61.5812979 93.0467518,65.6822501 C93.0467518,69.4375781 90.2699684,71.8631526 84.7157812,71.8631526 M69.5008701,47.0967273 L69.5008701,70.823798 C69.5008701,71.1700427 69.7323204,71.401493 70.0791857,71.401493 L74.9390219,71.401493 C75.2865076,71.401493 75.5179579,71.1700427 75.5179579,70.823798 L75.5179579,47.0954863 C75.5179579,46.7492416 75.2666513,46.5109657 74.8813144,46.5177913 C74.8813144,46.5177913 71.1836939,46.5109657 70.0214782,46.5190323 C69.6696489,46.5215143 69.5008701,46.8075696 69.5008701,47.0967273 M66.3188936,62.4475302 L54.1122161,64.0652004 C54.5751168,66.2022377 56.4267193,67.2422128 58.8566374,67.2422128 C60.5915841,67.2422128 62.4431866,66.8959681 63.8318886,66.2599451 C64.1210463,66.1445302 64.4679116,66.3176526 64.583947,66.6068104 L65.8566135,69.9575657 C65.9720284,70.2461029 65.798906,70.5929681 65.5091277,70.7083831 C63.7158531,71.401493 61.0551052,71.9214806 58.3937368,71.9214806 C51.6252111,71.9214806 48.2694917,67.4730427 48.2694917,61.6967128 C48.2694917,55.6889327 51.740626,51.5296525 57.6416784,51.5296525 C63.3689879,51.5296525 66.3772216,55.3420674 66.3772216,60.7144451 C66.434929,61.2344327 66.434929,61.8121277 66.3188936,62.4475302 Z M57.525643,55.6312252 C55.4432106,55.6312252 53.7653509,57.0751525 53.7653509,60.3098724 L60.649912,59.4436401 C60.649912,57.0174451 59.434953,55.6312252 57.525643,55.6312252 Z M38.2035746,51.5296525 C36.8725801,51.5296525 35.5422061,51.8765177 34.442662,52.3381774 L34.3731648,42.4391775 C34.3731648,42.0923122 34.0833866,41.803775 33.7365213,41.8608619 L28.9461823,41.8540363 C28.6570245,41.9117438 28.4255742,42.1425736 28.4255742,42.4311108 L28.4268152,70.8815054 C28.4268152,71.2277501 28.657645,71.4592004 29.0051307,71.4592004 L33.8643464,71.4592004 C34.2118322,71.4592004 34.442662,71.2277501 34.442662,70.8815054 L34.442662,56.7282873 C35.021598,56.43975 35.8313639,56.2089202 36.6411298,56.2089202 C38.5504398,56.2089202 39.4762411,57.13286 39.4762411,58.8659451 L39.4762411,70.8815054 C39.4762411,71.2277501 39.7076914,71.4592004 40.0545566,71.4592004 L44.9143928,71.4592004 C45.261258,71.4592004 45.4927084,71.2277501 45.4927084,70.8815054 L45.4927084,58.2305426 C45.4350009,53.8981401 42.8896679,51.5296525 38.2035746,51.5296525" id="Combined-Shape" fill="#FE8380" fill-rule="nonzero"></path>
                <path d="M81.7664961,15.8267342 C77.1306641,6.15856415 67.979379,0.613064119 56.6581697,0.613064119 C41.0554396,0.613064119 28.3424258,13.2063195 28.1755085,28.7469985 C12.6100091,28.9126747 0,41.6076937 0,57.1880854 C0,72.8714818 12.7781674,85.6304133 28.4839021,85.6304133 L62.2086338,85.6304133 C62.7236573,85.6304133 63.0978249,85.2574867 63.0978249,84.7430837 L63.0978249,79.8900731 C63.0978249,79.3756701 62.7236573,79.0027435 62.2086338,79.0027435 L28.8897158,79.0027435 C16.9008375,79.0027435 6.91868919,69.4462652 6.63697754,57.7012474 C6.50046529,51.7846822 8.70141512,46.196367 12.8364954,41.9638666 C16.9895704,37.7146125 22.5462396,35.3740479 28.4839021,35.3740479 L33.9220539,35.3740479 C34.4370774,35.3740479 34.8112451,35.0005007 34.8112451,34.4860977 L34.8112451,29.4605853 C34.8112451,17.7521775 44.5284354,7.57705056 56.0314543,7.24073401 C64.951289,6.96088389 72.1318335,11.0891385 75.70287,18.5607023 C75.8784744,18.9987826 76.3947389,19.207274 76.8719113,19.0161569 L81.3129031,17.0001191 C81.5176715,16.9182117 81.6796246,16.7587406 81.7677371,16.5514902 C81.8632957,16.3293475 81.8657777,16.0724563 81.7664961,15.8267342" id="path-15-path" fill="#63AEFF"></path>
            </g>
        </g>
    </g>
    </symbol>
</svg>