<svg width="265px" height="136px"  version="1.1" xmlns="http://www.w3.org/2000/svg" xmlns:xlink="http://www.w3.org/1999/xlink">
    <symbol id="garantee" viewBox="0 0 265 136">
        <defs>
            <polygon id="path-1" points="146.999971 0.0382647508 -3.4058174e-13 0.0382647508 -3.4058174e-13 137.522939 147 137.522939 147 0.0382647508 146.999971 88.4211503 -2.87109378e-05 88.4211503 -2.87109378e-05 0.0382072098 146.999971 0.0382072098"/>
            <polygon id="path-3" points="76 54.5643044 76 0.123858057 5.93750001e-05 0.123858057 5.93750001e-05 54.5643044"/>
        </defs>
        <g id="Symbols" stroke="none" stroke-width="1" fill="none" fill-rule="evenodd">
            <g id="Artboard-6">
                <g id="Page-1" transform="translate(0.000000, -1.000000)">
                    <g id="Group">
                        <path d="M47.0399426,132.862091 L100.205134,132.862091 C99.2249426,129.91628 96.5298469,127.952119 93.3449426,127.952119 L53.900134,127.952119 C50.7149426,127.952119 48.020134,129.91628 47.0399426,132.862091 M102.90023,137.77235 L44.0999426,137.77235 C42.6299426,137.77235 41.6500383,136.790126 41.6500383,135.317364 C41.6500383,128.443231 47.0399426,123.04186 53.900134,123.04186 L93.1000383,123.04186 C99.9599426,123.04186 105.350134,128.443231 105.350134,135.317364 C105.350134,136.790126 104.369943,137.77235 102.90023,137.77235" id="Fill-1" fill="#199ED8"/>
                        <path d="M59.5349713,123.041888 L87.4649713,123.041888 L83.7899713,108.311398 L63.2099713,108.311398 L59.5349713,123.041888 Z M90.6501627,127.95186 L56.350067,127.95186 C55.615067,127.95186 54.880067,127.706448 54.3899713,126.969923 C53.9001627,126.478811 53.9001627,125.742574 53.9001627,125.005762 L58.7999713,105.3653 C59.0448756,104.383075 60.025067,103.401139 61.2501627,103.401139 L85.750067,103.401139 C86.9751627,103.401139 87.955067,104.137663 88.1999713,105.3653 L93.100067,125.005762 C93.3449713,125.742574 93.100067,126.478811 92.6099713,127.215623 C92.1201627,127.706448 91.3848756,127.95186 90.6501627,127.95186 L90.6501627,127.95186 Z" id="Fill-3" fill="#199ED8"/>
                        <g id="Group-7" transform="translate(0.000000, 0.249440)">
                            <mask id="mask-2" fill="white">
                                <use xlink:href="#path-1"/>
                            </mask>
                            <g id="Clip-6"/>
                            <path d="M4.90006699,83.5111786 L142.100163,83.5111786 L142.100163,11.0863628 C142.100163,7.64915245 139.405067,4.94846662 135.974971,4.94846662 L11.0249713,4.94846662 C7.59487559,4.94846662 4.90006699,7.64915245 4.90006699,11.0863628 L4.90006699,83.5111786 Z M144.550067,88.4211503 L2.44987559,88.4211503 C0.980162695,88.4211503 -2.87109378e-05,87.4392135 -2.87109378e-05,85.9661645 L-2.87109378e-05,11.0863628 C-2.87109378e-05,4.94846662 4.90006699,0.0382072098 11.0249713,0.0382072098 L135.974971,0.0382072098 C142.100163,0.0382072098 146.999971,4.94846662 146.999971,11.0863628 L146.999971,85.9661645 C146.999971,87.4392135 146.020067,88.4211503 144.550067,88.4211503 L144.550067,88.4211503 Z" id="Fill-5" fill="#000000" mask="url(#mask-2)"/>
                        </g>
                        <g id="Group-10" transform="translate(0.000000, 83.683859)" fill="#199ED8">
                            <path d="M4.90006699,4.98687522 L4.90006699,13.5797573 C4.90006699,17.0166799 7.59487559,19.7173657 11.0249713,19.7173657 L135.974971,19.7173657 C139.405067,19.7173657 142.100163,17.0166799 142.100163,13.5797573 L142.100163,4.98687522 L4.90006699,4.98687522 Z M135.974971,24.6276251 L11.0249713,24.6276251 C4.90006699,24.6276251 -2.87109378e-05,19.7173657 -2.87109378e-05,13.5797573 L-2.87109378e-05,2.53188937 C-2.87109378e-05,1.05884032 0.980162695,0.0769035179 2.44987559,0.0769035179 L144.550067,0.0769035179 C146.020067,0.0769035179 146.999971,1.05884032 146.999971,2.53188937 L146.999971,13.5797573 C146.999971,19.7173657 142.100163,24.6276251 135.974971,24.6276251 L135.974971,24.6276251 Z" id="Fill-8"/>
                        </g>
                        <path d="M83.300134,78.850532 C81.830134,78.850532 80.8499426,77.8683075 80.8499426,76.3952584 L80.8499426,69.0300132 C80.8499426,67.5569641 81.830134,66.5750273 83.300134,66.5750273 C84.7698469,66.5750273 85.7500383,67.5569641 85.7500383,69.0300132 L85.7500383,76.3952584 C85.7500383,77.8683075 84.7698469,78.850532 83.300134,78.850532" id="Fill-11" fill="#199ED8"/>
                        <path d="M93.0999809,78.850532 C91.6299809,78.850532 90.6500766,77.8683075 90.6500766,76.3952584 L90.6500766,59.209782 C90.6500766,57.736733 91.6299809,56.7547962 93.0999809,56.7547962 C94.5699809,56.7547962 95.5498852,57.736733 95.5498852,59.209782 L95.5498852,76.3952584 C95.5498852,77.8683075 94.5699809,78.850532 93.0999809,78.850532" id="Fill-13" fill="#199ED8"/>
                        <path d="M102.900115,78.850532 C101.430115,78.850532 100.449923,77.8683075 100.449923,76.3952584 L100.449923,64.1197538 C100.449923,62.6469924 101.430115,61.6647679 102.900115,61.6647679 C104.369828,61.6647679 105.350019,62.6469924 105.350019,64.1197538 L105.350019,76.3952584 C105.350019,77.8683075 104.369828,78.850532 102.900115,78.850532" id="Fill-15" fill="#199ED8"/>
                        <path d="M112.699962,78.850532 C111.229962,78.850532 110.250057,77.8683075 110.250057,76.3952584 L110.250057,46.9342774 C110.250057,45.4612283 111.229962,44.4792915 112.699962,44.4792915 C114.169962,44.4792915 115.149866,45.4612283 115.149866,46.9342774 L115.149866,76.3952584 C115.149866,77.8683075 114.169962,78.850532 112.699962,78.850532" id="Fill-17" fill="#199ED8"/>
                        <path d="M122.500096,78.850532 C121.030096,78.850532 120.050191,77.8683075 120.050191,76.3952584 L120.050191,56.7547962 C120.050191,55.2817471 121.030096,54.2995226 122.500096,54.2995226 C123.970096,54.2995226 124.95,55.2817471 124.95,56.7547962 L124.95,76.3952584 C124.95,77.8683075 123.970096,78.850532 122.500096,78.850532" id="Fill-19" fill="#199ED8"/>
                        <path d="M42.8750479,19.9284836 C30.1348564,19.9284836 19.5999521,30.4852392 19.5999521,43.2515684 C19.5999521,56.0181854 30.1348564,66.574941 42.8750479,66.574941 C55.6149521,66.574941 66.1498564,56.0181854 66.1498564,43.2515684 C66.1498564,30.4852392 55.6149521,19.9284836 42.8750479,19.9284836 M42.8750479,71.4852004 C27.4400479,71.4852004 14.7001436,58.7188712 14.7001436,43.2515684 C14.7001436,27.7848411 27.4400479,15.0182242 42.8750479,15.0182242 C58.3100479,15.0182242 71.0499521,27.7848411 71.0499521,43.2515684 C71.0499521,58.7188712 58.3100479,71.4852004 42.8750479,71.4852004" id="Fill-21" fill="#199ED8"/>
                        <path d="M44.1000287,42.0241906 L66.1500287,42.0241906 C65.9051244,36.1319944 63.454933,30.9763227 59.2901244,26.8025878 C55.1250287,22.6291406 49.9800287,20.1738671 44.1000287,19.9284548 L44.1000287,42.0241906 Z M68.599933,46.93445 L41.6501244,46.93445 C40.1801244,46.93445 39.199933,45.7068132 39.199933,44.4791764 L39.199933,17.473469 C39.199933,16.7366567 39.4451244,16.2458322 39.934933,15.7547199 C40.4250287,15.2638954 40.9151244,15.0181954 41.6501244,15.0181954 C49.489933,14.7727831 57.3300287,17.7188812 62.9651244,23.3653775 C68.599933,29.0121614 71.539933,36.6231066 71.2950287,44.7248764 C71.2950287,45.461401 71.0501244,45.9522255 70.5600287,46.4433378 C69.8250287,46.68875 69.0900287,46.93445 68.599933,46.93445 L68.599933,46.93445 Z" id="Fill-23" fill="#199ED8"/>
                        <path d="M59.7800191,65.1019495 C59.0450191,65.1019495 58.5549234,64.8562495 58.0651148,64.365425 L39.9350191,46.1977241 C38.9551148,45.2157873 38.9551148,43.7427382 39.9350191,42.7608014 C40.9149234,41.7785769 42.3849234,41.7785769 43.3651148,42.7608014 L61.4949234,60.9282146 C62.4751148,61.9104391 62.4751148,63.3834882 61.4949234,64.365425 C61.0051148,64.8562495 60.5150191,65.1019495 59.7800191,65.1019495" id="Fill-25" fill="#199ED8"/>
                        <path d="M110.25,29.748801 L90.6499043,29.748801 C89.1799043,29.748801 88.2,28.7665765 88.2,27.2935275 C88.2,25.8207661 89.1799043,24.8385416 90.6499043,24.8385416 L110.25,24.8385416 C111.72,24.8385416 112.699904,25.8207661 112.699904,27.2935275 C112.699904,28.7665765 111.72,29.748801 110.25,29.748801" id="Fill-27" fill="#199ED8"/>
                        <path d="M122.500096,29.748801 C121.764809,29.748801 121.275,29.503101 120.784904,29.0122765 C120.54,28.7665765 120.294809,28.5211642 120.294809,28.275752 C120.294809,28.030052 120.050191,27.7846397 120.050191,27.2935275 C120.050191,26.5572906 120.294809,26.0661784 120.784904,25.5750661 C121.275,25.0842416 122.254904,24.8385416 122.989904,24.8385416 C123.235096,24.8385416 123.235096,24.8385416 123.48,25.0842416 C123.725191,25.0842416 123.725191,25.3296539 123.970096,25.3296539 C124.215,25.3296539 124.215,25.5750661 124.459904,25.5750661 C124.95,26.0661784 125.195191,26.5572906 125.195191,27.2935275 C125.195191,27.5392274 125.195191,28.030052 124.95,28.275752 C124.705096,28.5211642 124.705096,28.7665765 124.459904,29.0122765 C124.459904,29.0122765 124.215,29.2576888 123.970096,29.2576888 C123.970096,29.2576888 123.725191,29.503101 123.48,29.503101 C123.235096,29.503101 123.235096,29.503101 122.989904,29.748801 L122.500096,29.748801 Z" id="Fill-29" fill="#199ED8"/>
                        <path d="M122.500096,17.4733251 L115.149809,17.4733251 C113.679809,17.4733251 112.699904,16.4913883 112.699904,15.0183393 C112.699904,13.5452902 113.679809,12.5633534 115.149809,12.5633534 L122.500096,12.5633534 C123.970096,12.5633534 124.95,13.5452902 124.95,15.0183393 C124.95,16.4913883 123.970096,17.4733251 122.500096,17.4733251" id="Fill-31" fill="#199ED8"/>
                        <path d="M95.5499426,17.4733251 L90.650134,17.4733251 C89.1798469,17.4733251 88.1999426,16.4913883 88.1999426,15.0183393 C88.1999426,13.5452902 89.1798469,12.5633534 90.650134,12.5633534 L95.5499426,12.5633534 C97.0199426,12.5633534 97.9998469,13.5452902 97.9998469,15.0183393 C97.9998469,16.4913883 97.0199426,17.4733251 95.5499426,17.4733251" id="Fill-33" fill="#199ED8"/>
                        <path d="M105.350077,17.4733251 L104.859981,17.4733251 C104.614789,17.4733251 104.614789,17.4733251 104.369885,17.2279128 C104.124981,17.2279128 104.124981,16.9822129 103.880077,16.9822129 L103.634885,16.7368006 C103.144789,16.2456883 102.900172,15.7548638 102.900172,15.0183393 C102.900172,14.7726393 102.900172,14.2818147 103.144789,14.0364025 C103.144789,13.7907025 103.389981,13.5452902 103.634885,13.2998779 L103.880077,13.054178 C104.124981,13.054178 104.124981,12.8087657 104.369885,12.8087657 C104.614789,12.8087657 104.614789,12.8087657 104.859981,12.5633534 L105.839885,12.5633534 C106.085077,12.5633534 106.085077,12.5633534 106.329981,12.8087657 C106.575172,12.8087657 106.575172,13.054178 106.820077,13.054178 C107.064981,13.054178 107.064981,13.2998779 107.309885,13.2998779 C107.555077,13.5452902 107.799981,13.7907025 107.799981,14.0364025 L107.799981,15.0183393 C107.799981,15.7548638 107.555077,16.2456883 107.064981,16.7368006 C107.064981,16.7368006 106.820077,16.9822129 106.575172,16.9822129 C106.575172,16.9822129 106.329981,17.2279128 106.085077,17.2279128 C105.839885,17.2279128 105.839885,17.2279128 105.595268,17.4733251 L105.350077,17.4733251 Z" id="Fill-35" fill="#199ED8"/>
                        <path d="M4.9000957,84.0414156 L142.100191,84.0414156 L142.100191,11.553311 C142.100191,8.11309699 139.405096,5.41005115 135.975,5.41005115 L11.025,5.41005115 C7.5949043,5.41005115 4.9000957,8.11309699 4.9000957,11.553311 L4.9000957,84.0414156 Z M144.550096,88.9556779 L2.4499043,88.9556779 C0.980191406,88.9556779 0,87.972883 0,86.4985467 L0,11.553311 C0,5.41005115 4.9000957,0.495500885 11.025,0.495500885 L135.975,0.495500885 C142.100191,0.495500885 147,5.41005115 147,11.553311 L147,86.4985467 C147,87.972883 146.020096,88.9556779 144.550096,88.9556779 L144.550096,88.9556779 Z" id="Fill-1" fill="#199ED8"/>
                    </g>
                </g>
                <g id="Page-1" transform="translate(189.000000, 30.000000)">
                    <path d="M20.244025,8.35715394 L33.4781187,8.35715394 C34.1407437,8.35715394 34.6780875,7.81762299 34.6780875,7.15196793 C34.6780875,6.48616379 34.1407437,5.94678193 33.4781187,5.94678193 L20.244025,5.94678193 C19.5812516,5.94678193 19.0440562,6.48616379 19.0440562,7.15196793 C19.0440562,7.81762299 19.5812516,8.35715394 20.244025,8.35715394" id="Fill-1" fill="#199ED8"/>
                    <path d="M20.244025,13.6761628 L46.7122125,13.6761628 C47.3749859,13.6761628 47.9121812,13.1366318 47.9121812,12.4709768 C47.9121812,11.8051726 47.3749859,11.2657908 46.7122125,11.2657908 L20.244025,11.2657908 C19.5812516,11.2657908 19.0440562,11.8051726 19.0440562,12.4709768 C19.0440562,13.1366318 19.5812516,13.6761628 20.244025,13.6761628" id="Fill-3" fill="#199ED8"/>
                    <path d="M20.244025,30.2466355 L33.4781187,30.2466355 C34.1407437,30.2466355 34.6780875,29.7071045 34.6780875,29.0414495 C34.6780875,28.3756453 34.1407437,27.8362635 33.4781187,27.8362635 L20.244025,27.8362635 C19.5812516,27.8362635 19.0440562,28.3756453 19.0440562,29.0414495 C19.0440562,29.7071045 19.5812516,30.2466355 20.244025,30.2466355" id="Fill-5" fill="#199ED8"/>
                    <path d="M20.244025,35.5659425 L46.4208297,35.5659425 C47.0836031,35.5659425 47.6207984,35.0265606 47.6207984,34.3607565 C47.6207984,33.6949523 47.0836031,33.1555705 46.4208297,33.1555705 L20.244025,33.1555705 C19.5812516,33.1555705 19.0440562,33.6949523 19.0440562,34.3607565 C19.0440562,35.0262624 19.5812516,35.5659425 20.244025,35.5659425" id="Fill-7" fill="#199ED8"/>
                    <path d="M20.244025,52.1366388 L33.4781187,52.1366388 C34.1407437,52.1366388 34.6780875,51.5971079 34.6780875,50.9313037 C34.6780875,50.2654996 34.1407437,49.7261177 33.4781187,49.7261177 L20.244025,49.7261177 C19.5812516,49.7261177 19.0440562,50.2654996 19.0440562,50.9313037 C19.0440562,51.5969588 19.5812516,52.1366388 20.244025,52.1366388" id="Fill-9" fill="#199ED8"/>
                    <path d="M46.2330562,55.0453502 L20.244025,55.0453502 C19.5812516,55.0453502 19.0440562,55.584732 19.0440562,56.2505362 C19.0440562,56.9161912 19.5812516,57.4557222 20.244025,57.4557222 L46.2330562,57.4557222 C46.8959781,57.4557222 47.4331734,56.9161912 47.4331734,56.2505362 C47.4331734,55.5848811 46.8959781,55.0453502 46.2330562,55.0453502" id="Fill-11" fill="#199ED8"/>
                    <g id="Group-15" transform="translate(0.000000, 21.766101)">
                        <mask id="mask-4" fill="white">
                            <use xlink:href="#path-3"/>
                        </mask>
                        <g id="Clip-14"/>
                        <path d="M58.6302,39.1603158 L56.4115047,36.9898181 L56.4115047,35.0940802 C56.8998641,35.185468 57.4024734,35.2355599 57.9165125,35.2355599 L59.435325,35.2355599 C59.9496609,35.2355599 60.4521219,35.1856171 60.9401844,35.0942293 L60.9401844,36.6120421 L60.9401844,36.6163655 L60.9401844,36.7532236 L58.6302,39.1603158 Z M46.8594031,38.5836632 C46.4614422,38.7209686 45.9941609,38.9402695 45.5019422,39.2443985 C45.4361844,39.2330682 45.3689422,39.2260614 45.2999188,39.2260614 L2.39999688,39.2260614 L2.39999688,24.4242185 L45.7884266,24.4242185 C45.764825,24.6059505 45.7513172,24.7908133 45.7513172,24.9789559 C45.7513172,27.3292475 47.655325,29.2410864 49.9957391,29.2410864 C50.0059813,29.2410864 50.0165203,29.2398937 50.0269109,29.2394464 C50.6338719,31.3927996 52.0907859,33.1913354 54.0115672,34.2401335 L54.0115672,35.7704693 L46.8594031,38.5836632 Z M58.2597,9.95155062 L59.0559188,9.95155062 C63.6632703,9.95155062 67.4116141,13.7163406 67.4116141,18.3437241 L67.4116141,20.3119163 C67.4099813,20.3096801 67.4083484,20.307742 67.4068641,20.3053567 C67.3958797,20.2900011 67.3848953,20.2747947 67.3728719,20.2598864 C67.3615906,20.2455744 67.3497156,20.2318588 67.3375438,20.2181432 C67.3237391,20.2023404 67.3099344,20.1866867 67.2953875,20.1714802 C67.2839578,20.1597027 67.2717859,20.1485215 67.2600594,20.1370421 C67.2435828,20.1216866 67.2274031,20.106331 67.2100359,20.0915718 C67.1981609,20.0814342 67.1856922,20.072042 67.1733719,20.0622025 C67.1554109,20.0480396 67.1373016,20.0340258 67.11845,20.0209065 C67.1047938,20.0115143 67.0906922,20.0027184 67.0765906,19.9939225 C67.0583328,19.982145 67.0399266,19.9703674 67.0209266,19.9597825 C67.0043016,19.9503903 66.9869344,19.9420417 66.9698641,19.9332458 C66.9524969,19.9248972 66.935575,19.9161013 66.9182078,19.908349 C66.8972781,19.8991058 66.8757547,19.8912044 66.8542313,19.8831539 C66.8392391,19.8774888 66.8240984,19.8715255 66.8089578,19.8666057 C66.7849109,19.8585553 66.759825,19.8521447 66.7351844,19.8457341 C66.7239031,19.8427525 66.7132156,19.8388763 66.7019344,19.8361928 C64.0904734,19.2395632 63.2730281,15.8488221 63.2660516,15.8187074 C63.1618484,15.3566995 62.7980281,14.9989006 62.3360906,14.9039348 C61.8741531,14.8083727 61.39945,14.9944281 61.1232078,15.3784656 C57.9657938,19.7625459 51.0166922,19.8063763 50.9206531,19.8063763 L50.9202078,19.8063763 L50.9156063,19.8063763 C50.8743406,19.8063763 50.8335203,19.8086125 50.7932938,19.8126377 C50.7806766,19.8138304 50.7685047,19.8165139 50.7557391,19.8183029 C50.728575,19.8217318 50.7011141,19.8253098 50.6743953,19.8308259 C50.657325,19.8342548 50.6407,19.8396217 50.6237781,19.8437961 C50.6022547,19.8491631 50.5805828,19.8536355 50.5596531,19.8603443 C50.5402078,19.8664567 50.5216531,19.8743581 50.5025047,19.881514 C50.4851375,19.8879246 50.4670281,19.8934407 50.4499578,19.9007457 C50.4279891,19.9099889 50.4070594,19.9208719 50.3861297,19.9314568 C50.3724734,19.9380164 50.3585203,19.9439798 50.3453094,19.9511357 C50.3236375,19.9627642 50.3033016,19.9761817 50.2826688,19.9891519 C50.2707938,19.996606 50.258325,20.0033147 50.24645,20.0112161 C50.2271531,20.0244845 50.2088953,20.0389456 50.1901922,20.0534066 C50.1781688,20.0625007 50.1657,20.0708493 50.153825,20.0805397 C50.1370516,20.0944044 50.1214656,20.1097599 50.1054344,20.124221 C50.0931141,20.1357003 50.0802,20.1462852 50.0686219,20.1579137 C50.0537781,20.1729711 50.0402703,20.1887739 50.0263172,20.2044276 C50.0147391,20.2173978 50.0024188,20.2299207 49.9909891,20.2431891 C49.9785203,20.2585446 49.9673875,20.2747947 49.9555125,20.2908956 C49.9442313,20.305953 49.9322078,20.320414 49.9218172,20.3359187 C49.9151375,20.345609 49.9097938,20.3558958 49.9035594,20.3658843 L49.9035594,18.3437241 C49.9037078,13.7163406 53.6522,9.95155062 58.2597,9.95155062 L58.2597,9.95155062 Z M67.6357547,26.7988106 L67.6357547,23.1589521 C68.4937234,23.317129 69.1465516,24.0723829 69.1465516,24.9789559 C69.1465516,25.885678 68.4937234,26.6404846 67.6357547,26.7988106 L67.6357547,26.7988106 Z M49.7159344,23.1503053 L49.7159344,26.8073083 C48.8316922,26.6711957 48.1512547,25.9044624 48.1512547,24.9789559 C48.1511062,24.0533003 48.8315437,23.2864179 49.7159344,23.1503053 L49.7159344,23.1503053 Z M59.4354734,32.8251879 L57.9168094,32.8251879 C54.7182781,32.8251879 52.1160203,30.2116159 52.1160203,26.9993271 L52.1160203,22.1554752 C54.2106219,21.9741904 58.5715672,21.2511385 61.6799969,18.3607196 C62.3157547,19.6218117 63.4216141,21.1421589 65.2356688,21.8880205 L65.2356688,26.9993271 C65.2356688,30.211765 62.6338563,32.8251879 59.4354734,32.8251879 L59.4354734,32.8251879 Z M70.3114891,38.5854522 L63.3402703,35.7779234 L63.3402703,34.2402826 C65.2606063,33.1916336 66.7172234,31.3933959 67.3244813,29.2406391 C69.6546531,29.2284143 71.5466375,27.3217933 71.5466375,24.9789559 C71.5466375,23.5710172 70.8627859,22.3208081 69.8115516,21.5440863 L69.8115516,18.3437241 C69.8115516,12.3872667 64.9864422,7.54102952 59.0557703,7.54102952 L58.2595516,7.54102952 C57.3702625,7.54102952 56.5066531,7.65194719 55.6798563,7.8573834 L55.6798563,1.32904406 C55.6798563,0.663239918 55.1428094,0.123858057 54.4798875,0.123858057 L50.9157547,0.123858057 C50.2528328,0.123858057 49.7157859,0.663239918 49.7157859,1.32904406 C49.7157859,1.99484821 50.2528328,2.53423007 50.9157547,2.53423007 L53.2799188,2.53423007 L53.2799188,8.77319953 C50.1308172,10.4326411 47.8966844,13.6122807 47.5521609,17.3360729 L2.39999688,17.3360729 L2.39999688,2.53423007 L46.8993328,2.53423007 C47.5622547,2.53423007 48.09945,1.99484821 48.09945,1.32904406 C48.09945,0.663239918 47.5622547,0.123858057 46.8993328,0.123858057 L1.20002813,0.123858057 C0.537254688,0.123858057 5.93750001e-05,0.663239918 5.93750001e-05,1.32904406 L5.93750001e-05,18.5412589 C5.93750001e-05,19.2070631 0.537254688,19.746594 1.20002813,19.746594 L47.5036219,19.746594 L47.5036219,21.5314143 C47.3057547,21.6760247 47.1208016,21.8376305 46.9506922,22.0135483 L1.20002813,22.0135483 C0.537254688,22.0135483 5.93750001e-05,22.5530793 5.93750001e-05,23.2188834 L5.93750001e-05,40.4310983 C5.93750001e-05,41.0969024 0.537254688,41.6362843 1.20002813,41.6362843 L42.9390203,41.6362843 C41.9251922,43.0366198 41.1666766,44.9237109 41.1666766,47.3646449 L41.1666766,53.3573294 C41.1666766,54.0228354 41.7037234,54.5640063 42.3666453,54.5640063 L46.8997781,54.5640063 C47.5625516,54.5640063 48.0997469,54.0244753 48.0997469,53.3588203 C48.0997469,52.6931652 47.5625516,52.1534852 46.8997781,52.1534852 L43.5666141,52.1534852 L43.5666141,47.3646449 C43.5666141,42.3527766 47.4936766,40.914425 47.6539891,40.8582207 C47.6725438,40.8519592 47.6910984,40.8451014 47.7092078,40.8379455 L54.2781609,38.2543391 C54.3078484,38.2913117 54.3396141,38.3275388 54.3743484,38.3618279 L57.8201766,41.7322937 C58.0443172,41.9517437 58.3447547,42.0741407 58.6573641,42.0741407 C58.6635984,42.0741407 58.6699813,42.0741407 58.6762156,42.0739916 C58.9955047,42.0690719 59.2996531,41.936239 59.5212703,41.7053097 L62.8913953,38.1938115 L69.4480281,40.8343675 C69.4646531,40.8412253 69.4884031,40.8500212 69.505325,40.8559845 C69.6724656,40.9147231 73.6001219,42.3529257 73.6001219,47.364943 L73.6001219,52.1539324 L63.7302156,52.1539324 L55.2115359,52.1539324 L53.4351844,52.1539324 L51.9444266,52.1539324 L50.7392625,52.1539324 C50.0763406,52.1539324 49.5392938,52.6934634 49.5392938,53.3591184 C49.5392938,54.0249226 50.0763406,54.5643044 50.7392625,54.5643044 L51.9444266,54.5643044 L53.4351844,54.5643044 L55.2115359,54.5643044 L63.7302156,54.5643044 L74.8000906,54.5643044 C75.4628641,54.5643044 76.0000594,54.0129959 76.0000594,53.3473409 L76.0000594,47.364943 C76.0000594,41.9705281 72.2998094,39.2730225 70.3114891,38.5854522 L70.3114891,38.5854522 Z" id="Fill-13" fill="#199ED8" mask="url(#mask-4)"/>
                    </g>
                    <path d="M12.2593492,7.02268326 C12.9221227,7.02268326 13.459318,6.4833014 13.459318,5.81749725 C13.459318,5.15169311 12.9221227,4.61231125 12.2593492,4.61231125 L6.20651328,4.61231125 C5.54388828,4.61231125 5.00654453,5.15169311 5.00654453,5.81749725 L5.00654453,13.8055071 C5.00654453,14.4713112 5.54388828,15.0106931 6.20651328,15.0106931 L14.550482,15.0106931 C15.213107,15.0106931 15.7504508,14.4713112 15.7504508,13.8055071 L15.7504508,11.6503649 C15.7504508,10.9845608 15.213107,10.4450299 14.550482,10.4450299 C13.8877086,10.4450299 13.3503648,10.9845608 13.3503648,11.6503649 L13.3503648,12.600172 L7.40663047,12.600172 L7.40663047,7.02268326 L12.2593492,7.02268326 Z" id="Fill-16" fill="#199ED8"/>
                    <path d="M16.8958539,4.94039794 C16.413432,4.48390616 15.6540258,4.50656676 15.1995102,4.99078796 L11.2136664,9.23875555 L9.98133828,7.89059906 C9.53320547,7.40011639 8.77409609,7.3677654 8.28588516,7.81769753 C7.79782266,8.26792783 7.76531484,9.03033768 8.21329922,9.52052219 L10.3179945,11.8231073 C10.5433227,12.0698394 10.8608305,12.2113191 11.1940727,12.2135553 L11.2019398,12.2135553 C11.5323617,12.2135553 11.8483852,12.0765482 12.0751977,11.8348848 L16.9458773,6.6441171 C17.4006898,6.15974682 17.3781273,5.39688972 16.8958539,4.94039794" id="Fill-18" fill="#199ED8"/>
                    <path d="M12.2593492,28.9123884 C12.9221227,28.9123884 13.459318,28.3728575 13.459318,27.7072024 C13.459318,27.0413983 12.9221227,26.5020164 12.2593492,26.5020164 L6.20651328,26.5020164 C5.54388828,26.5020164 5.00654453,27.0413983 5.00654453,27.7072024 L5.00654453,35.6952122 C5.00654453,36.3608673 5.54388828,36.9003982 6.20651328,36.9003982 L14.550482,36.9003982 C15.213107,36.9003982 15.7504508,36.3608673 15.7504508,35.6952122 L15.7504508,33.5400701 C15.7504508,32.874266 15.213107,32.3348841 14.550482,32.3348841 C13.8877086,32.3348841 13.3503648,32.874266 13.3503648,33.5400701 L13.3503648,34.4900262 L7.40663047,34.4900262 L7.40663047,28.9123884 L12.2593492,28.9123884 Z" id="Fill-20" fill="#199ED8"/>
                    <path d="M16.8958539,26.8300435 C16.413432,26.3735517 15.6540258,26.3962123 15.1995102,26.8807316 L11.2136664,31.1284011 L9.98133828,29.7802446 C9.53320547,29.2896128 8.77409609,29.2574109 8.28588516,29.7073431 C7.79782266,30.1575734 7.76531484,30.9199832 8.21329922,31.4101677 L10.3179945,33.7127528 C10.5433227,33.959485 10.8608305,34.1009646 11.1940727,34.1032009 L11.2019398,34.1032009 C11.5323617,34.1032009 11.8483852,33.9661937 12.0751977,33.7245304 L16.9458773,28.5337626 C17.4006898,28.0493923 17.3781273,27.2866843 16.8958539,26.8300435" id="Fill-22" fill="#199ED8"/>
                    <path d="M14.5504227,54.2248129 C13.8876492,54.2248129 13.3504539,54.7641947 13.3504539,55.4299989 L13.3504539,56.379955 L7.40657109,56.379955 L7.40657109,50.8023172 L12.2592898,50.8023172 C12.9220633,50.8023172 13.459407,50.2627863 13.459407,49.5971312 C13.459407,48.9313271 12.9220633,48.3919452 12.2592898,48.3919452 L6.20660234,48.3919452 C5.54382891,48.3919452 5.00663359,48.9313271 5.00663359,49.5971312 L5.00663359,57.585141 C5.00663359,58.2509452 5.54382891,58.790327 6.20660234,58.790327 L14.5504227,58.790327 C15.2130477,58.790327 15.7503914,58.2509452 15.7503914,57.585141 L15.7503914,55.4299989 C15.7503914,54.7641947 15.2130477,54.2248129 14.5504227,54.2248129" id="Fill-24" fill="#199ED8"/>
                    <path d="M15.1995547,48.7706306 L11.2135625,53.0183 L9.98138281,51.6701436 C9.53325,51.1795118 8.77399219,51.147459 8.28592969,51.597242 C7.79771875,52.0474723 7.76535937,52.8098822 8.21334375,53.3002158 L10.3178906,55.6028009 C10.5433672,55.8493839 10.860875,55.9908636 11.1941172,55.9930998 L11.2019844,55.9930998 C11.5322578,55.9930998 11.8482812,55.8560927 12.0752422,55.6144293 L16.9459219,50.4238107 C17.4004375,49.9394404 17.377875,49.1765833 16.89575,48.7199424 C16.4134766,48.2635997 15.6540703,48.2861113 15.1995547,48.7706306" id="Fill-26" fill="#199ED8"/>
                    <path d="M1.19996875,19.6230341 L54.4799766,19.6230341 C55.1428984,19.6230341 55.6799453,19.0835032 55.6799453,18.4178481 L55.6799453,1.20518601 C55.6799453,0.539530944 55.1428984,0 54.4799766,0 L50.9159922,0 C50.2530703,0 49.7160234,0.539530944 49.7160234,1.20518601 C49.7160234,1.87099015 50.2530703,2.41037201 50.9159922,2.41037201 L53.2798594,2.41037201 L53.2798594,17.212513 L2.3999375,17.212513 L2.3999375,2.41037201 L46.8992734,2.41037201 C47.5621953,2.41037201 48.0993906,1.87099015 48.0993906,1.20518601 C48.0993906,0.539530944 47.5621953,0 46.8992734,0 L1.19996875,0 C0.53734375,0 0,0.539680027 0,1.20518601 L0,18.417699 C0,19.0833541 0.53734375,19.6230341 1.19996875,19.6230341" id="Fill-28" fill="#199ED8"/>
                </g>
            </g>
        </g>
    </symbol>
</svg>