<svg width="409px" height="288px" version="1.1" xmlns="http://www.w3.org/2000/svg" xmlns:xlink="http://www.w3.org/1999/xlink">
    <symbol id="medicines" viewBox="0 0 409 288">
        
    <defs>
        <polygon id="path-1" points="107.948561 108.999894 107.948561 0 6.40316212e-05 0 6.40316212e-05 108.999894 107.948561 108.999894"/>
        <polygon id="path-3" points="0 109 107.948561 109 107.948561 0 0 0"/>
        <polygon id="path-5" points="1.20250271e-15 8.37147646 1.20250271e-15 0.595164794 31.0976221 0.595164794 31.0976221 8.37147646 0 8.37147646"/>
        <polygon id="path-7" points="31.6927869 -3.55271368e-15 31.6927869 7.77257414 0.598453823 7.77257414 0.598453823 -8.97036582e-16 31.6927869 -8.97036582e-16"/>
        <polygon id="path-9" points="0 6.87631366 0 0.297507646 15.5487363 0.297507646 31.0974726 0.297507646 31.0974726 6.87631366"/>
        <polygon id="path-11" points="1.20250271e-15 8.06993228 1.20250271e-15 0.297358145 31.0976221 0.297358145 31.0976221 8.06993228 0 8.06993228"/>
        <polygon id="path-13" points="0 5.67880801 0 0.127823637 31.0974726 0.127823637 31.0974726 5.67880801"/>
    </defs>
    <g id="Page-12_Аптекам" stroke="none" stroke-width="1" fill="none" fill-rule="evenodd">
        <g id="ГЛАВНАЯ-Аптеки_DIS_1440px_ОК" transform="translate(-811.000000, -4276.000000)">
            <g id="Group-21" transform="translate(811.000000, 4277.000000)">
                <g id="Group-55" transform="translate(301.000000, 69.000000)" fill="#199ED8">
                    <path d="M31.3824472,136 L30.5543222,133.28125 L26.3902597,133.28125 L25.5621347,136 L22.9527597,136 L26.9840097,124.53125 L29.9449472,124.53125 L33.9918222,136 L31.3824472,136 Z M29.9761972,131.25 C29.2105683,128.786446 28.7795831,127.393231 28.6832284,127.070312 C28.5868738,126.747394 28.517864,126.492188 28.4761972,126.304688 C28.3043213,126.971357 27.8121387,128.619779 26.9996347,131.25 L29.9761972,131.25 Z M44.4683847,136 L42.0543222,136 L42.0543222,126.59375 L37.8511972,126.59375 L37.8511972,136 L35.4293222,136 L35.4293222,124.578125 L44.4683847,124.578125 L44.4683847,136 Z M51.7574472,136 L49.3355722,136 L49.3355722,126.59375 L46.2340097,126.59375 L46.2340097,124.578125 L54.8590097,124.578125 L54.8590097,126.59375 L51.7574472,126.59375 L51.7574472,136 Z M63.1949472,136 L56.6168222,136 L56.6168222,124.578125 L63.1949472,124.578125 L63.1949472,126.5625 L59.0386972,126.5625 L59.0386972,129.070312 L62.9058847,129.070312 L62.9058847,131.054688 L59.0386972,131.054688 L59.0386972,134 L63.1949472,134 L63.1949472,136 Z M74.8902597,136 L72.1402597,136 L67.9996347,130.210938 L67.9996347,136 L65.5777597,136 L65.5777597,124.578125 L67.9996347,124.578125 L67.9996347,130.109375 L72.0933847,124.578125 L74.6715097,124.578125 L70.5074472,130.0625 L74.8902597,136 Z M83.3199472,136 L82.4918222,133.28125 L78.3277597,133.28125 L77.4996347,136 L74.8902597,136 L78.9215097,124.53125 L81.8824472,124.53125 L85.9293222,136 L83.3199472,136 Z M81.9136972,131.25 C81.1480683,128.786446 80.7170831,127.393231 80.6207284,127.070312 C80.5243738,126.747394 80.455364,126.492188 80.4136972,126.304688 C80.2418213,126.971357 79.7496387,128.619779 78.9371347,131.25 L81.9136972,131.25 Z" id="АПТЕКА"/>
                    <g id="Атека">
                        <path d="M3.57978201,39.3776022 L103.813678,39.3776022 L103.813678,35.7978201 L3.57978201,35.7978201 L3.57978201,39.3776022 Z M100.233896,103.813678 L91.2844413,103.813678 L91.2844413,53.6967302 C91.2844413,52.7082629 90.4830177,51.9068392 89.4945503,51.9068392 L62.6461852,51.9068392 C61.6577179,51.9068392 60.8562942,52.7082629 60.8562942,53.6967302 L60.8562942,103.813678 L7.15956403,103.813678 L7.15956403,42.9573842 L100.233896,42.9573842 L100.233896,103.813678 Z M64.4360762,64.4360762 L87.7046593,64.4360762 L87.7046593,55.4866212 L64.4360762,55.4866212 L64.4360762,64.4360762 Z M64.4360762,85.9147683 L87.7046593,85.9147683 L87.7046593,68.0158583 L64.4360762,68.0158583 L64.4360762,85.9147683 Z M64.4360762,103.813678 L87.7046593,103.813678 L87.7046593,89.4945503 L64.4360762,89.4945503 L64.4360762,103.813678 Z M7.15956403,32.2180381 L35.7978201,32.2180381 L35.7978201,14.3191281 L7.15956403,14.3191281 L7.15956403,32.2180381 Z M39.3776022,32.2180381 L68.0158583,32.2180381 L68.0158583,3.57978201 L39.3776022,3.57978201 L39.3776022,32.2180381 Z M71.5956403,32.2180381 L100.233896,32.2180381 L100.233896,14.3191281 L71.5956403,14.3191281 L71.5956403,32.2180381 Z M105.603569,32.2180381 L103.813678,32.2180381 L103.813678,12.529237 C103.813678,11.5407697 103.012255,10.739346 102.023787,10.739346 L71.5956403,10.739346 L71.5956403,1.78989101 C71.5956403,0.801423698 70.7942166,0 69.8057493,0 L37.5877111,0 C36.5992438,0 35.7978201,0.801423698 35.7978201,1.78989101 L35.7978201,10.739346 L5.36967302,10.739346 C4.38120571,10.739346 3.57978201,11.5407697 3.57978201,12.529237 L3.57978201,32.2180381 L1.78989101,32.2180381 C0.801423698,32.2180381 0,33.0194618 0,34.0079291 L0,41.1674932 C0,42.1559605 0.801423698,42.9573842 1.78989101,42.9573842 L3.57978201,42.9573842 L3.57978201,105.603569 C3.57978201,106.592037 4.38120571,107.39346 5.36967302,107.39346 L102.023787,107.39346 C103.012255,107.39346 103.813678,106.592037 103.813678,105.603569 L103.813678,42.9573842 L105.603569,42.9573842 C106.592037,42.9573842 107.39346,42.1559605 107.39346,41.1674932 L107.39346,34.0079291 C107.39346,33.0194618 106.592037,32.2180381 105.603569,32.2180381 L105.603569,32.2180381 Z M17.8989101,91.2844413 C16.9104428,91.2844413 16.1090191,90.4830177 16.1090191,89.4945503 L16.1090191,80.5450953 C16.1090191,79.556628 16.9104428,78.7552043 17.8989101,78.7552043 L19.6888011,78.7552043 L19.6888011,53.6967302 C19.6888011,52.7082629 20.4902248,51.9068392 21.4786921,51.9068392 L46.5371662,51.9068392 C47.5256335,51.9068392 48.3270572,52.7082629 48.3270572,53.6967302 L48.3270572,78.7552043 L50.1169482,78.7552043 C51.1054155,78.7552043 51.9068392,79.556628 51.9068392,80.5450953 L51.9068392,89.4945503 C51.9068392,90.4830177 51.1054155,91.2844413 50.1169482,91.2844413 L17.8989101,91.2844413 Z M19.6888011,87.7046593 L48.3270572,87.7046593 L48.3270572,82.3349863 L19.6888011,82.3349863 L19.6888011,87.7046593 Z M23.2685831,78.7552043 L44.7472752,78.7552043 L44.7472752,55.4866212 L23.2685831,55.4866212 L23.2685831,78.7552043 Z M82.3349863,78.7552043 C81.346519,78.7552043 80.5450953,77.9537806 80.5450953,76.9653133 L80.5450953,75.1754223 C80.5450953,74.186955 81.346519,73.3855313 82.3349863,73.3855313 C83.3234536,73.3855313 84.1248773,74.186955 84.1248773,75.1754223 L84.1248773,76.9653133 C84.1248773,77.9537806 83.3234536,78.7552043 82.3349863,78.7552043 Z M62.6461852,12.529237 C63.6346525,12.529237 64.4360762,13.3306607 64.4360762,14.3191281 L64.4360762,21.4786921 C64.4360762,22.4671594 63.6346525,23.2685831 62.6461852,23.2685831 L59.0664032,23.2685831 L59.0664032,26.8483651 C59.0664032,27.8368324 58.2649795,28.6382561 57.2765122,28.6382561 L50.1169482,28.6382561 C49.1284809,28.6382561 48.3270572,27.8368324 48.3270572,26.8483651 L48.3270572,23.2685831 L44.7472752,23.2685831 C43.7588079,23.2685831 42.9573842,22.4671594 42.9573842,21.4786921 L42.9573842,14.3191281 C42.9573842,13.3306607 43.7588079,12.529237 44.7472752,12.529237 L48.3270572,12.529237 L48.3270572,8.94945503 C48.3270572,7.96098773 49.1284809,7.15956403 50.1169482,7.15956403 L57.2765122,7.15956403 C58.2649795,7.15956403 59.0664032,7.96098773 59.0664032,8.94945503 L59.0664032,12.529237 L62.6461852,12.529237 Z M60.8562942,19.6888011 L60.8562942,16.1090191 L57.2765122,16.1090191 C56.2880449,16.1090191 55.4866212,15.3075954 55.4866212,14.3191281 L55.4866212,10.739346 L51.9068392,10.739346 L51.9068392,14.3191281 C51.9068392,15.3075954 51.1054155,16.1090191 50.1169482,16.1090191 L46.5371662,16.1090191 L46.5371662,19.6888011 L50.1169482,19.6888011 C51.1054155,19.6888011 51.9068392,20.4902248 51.9068392,21.4786921 L51.9068392,25.0584741 L55.4866212,25.0584741 L55.4866212,21.4786921 C55.4866212,20.4902248 56.2880449,19.6888011 57.2765122,19.6888011 L60.8562942,19.6888011 Z M29.9037538,67.4914873 C29.4544912,67.9564115 28.7886517,68.1434551 28.1628611,67.9792326 C27.5370704,67.8156813 27.0484302,67.3272648 26.8851026,66.7014742 C26.7206564,66.0756835 26.9077,65.4096203 27.3726242,64.9603577 L32.7425209,59.5906847 C33.4450532,58.9125397 34.5610502,58.9221604 35.2515007,59.6126108 C35.9419511,60.3030613 35.9515718,61.4190583 35.2734268,62.1218143 L29.9037538,67.4914873 Z M38.1120821,63.1705786 C38.814838,62.4924336 39.9308351,62.5020543 40.6212855,63.1925047 C41.311736,63.8829552 41.3213567,64.9989522 40.6432117,65.7017082 L31.6937567,74.6511632 C31.244494,75.1160874 30.5784308,75.303131 29.9526402,75.1386848 C29.3268496,74.9753572 28.838433,74.486717 28.6748818,73.8609263 C28.5106593,73.2351357 28.6977029,72.5692962 29.1626271,72.1200336 L38.1120821,63.1705786 Z" id="Combined-Shape"/>
                    </g>
                </g>
                <g id="Group-17" transform="translate(0.000000, 69.000000)">
                    <g id="Page-1">
                        <g id="Group-3">
                            <mask id="mask-2" fill="white">
                                <use xlink:href="#path-1"/>
                            </mask>
                            <g id="Clip-2"/>
                            <path d="M103.150736,104.214325 L74.3657478,104.214325 L74.3657478,73.6692041 C74.3657478,72.347792 73.2915107,71.2765264 71.9666964,71.2765264 C70.6416688,71.2765264 69.5676451,72.347792 69.5676451,73.6692041 L69.5676451,104.214325 L64.1953921,104.214325 L64.1953921,83.8851865 C64.1953921,82.5635615 63.1215818,81.4925088 61.7965542,81.4925088 L46.1523486,81.4925088 C44.8275344,81.4925088 43.7535107,82.5635615 43.7535107,83.8851865 L43.7535107,104.214325 L38.3812577,104.214325 L38.3812577,73.6692041 C38.3812577,72.347792 37.307234,71.2765264 35.9822063,71.2765264 C34.6573921,71.2765264 33.5831549,72.347792 33.5831549,73.6692041 L33.5831549,104.214325 L4.79795336,104.214325 L4.79795336,59.0766162 L10.0724514,59.0766162 L97.8762379,59.0766162 L103.150736,59.0766162 L103.150736,104.214325 Z M48.5514,104.214325 L59.3977162,104.214325 L59.3977162,86.2778643 L48.5514,86.2778643 L48.5514,104.214325 Z M12.4715028,47.593083 L26.3048941,47.593083 L81.6440087,47.593083 L95.4776134,47.593083 L95.4776134,54.2910479 L12.4715028,54.2910479 L12.4715028,47.593083 Z M53.9744514,23.6650283 C65.6800719,23.6650283 75.8677162,31.7210225 78.725234,42.8075146 L29.2236688,42.8075146 C32.0814,31.7210225 42.2688308,23.6650283 53.9744514,23.6650283 L53.9744514,23.6650283 Z M56.2981589,4.78546191 L68.4436767,4.78546191 L68.4436767,11.3659111 L56.2981589,11.3659111 L56.2981589,8.29517676 L56.2981589,4.78546191 Z M105.549787,54.2910479 L100.275076,54.2910479 L100.275076,45.2001924 C100.275076,43.8787803 99.2010522,42.8075146 97.8762379,42.8075146 L83.6522538,42.8075146 C82.2922221,36.4597549 78.8972656,30.6810518 73.9521036,26.3636299 C69.0088625,22.0479111 62.8123091,19.4678896 56.297732,18.9699385 L56.297732,16.1514795 L70.8423012,16.1514795 C72.1673289,16.1514795 73.2411391,15.0802139 73.2411391,13.7585889 L73.2411391,2.39278418 C73.2411391,1.07115918 72.1673289,-0.000106445313 70.8423012,-0.000106445313 L53.8988941,-0.000106445313 C52.5740798,-0.000106445313 51.4998427,1.07115918 51.4998427,2.39278418 L51.4998427,8.29517676 L51.4998427,13.7585889 L51.4998427,18.9818604 C45.0407597,19.5077002 38.9016213,22.081335 33.9963723,26.3636299 C29.0512103,30.6810518 25.6562538,36.4597549 24.2962221,42.8075146 L10.0724514,42.8075146 C8.74763715,42.8075146 7.67361344,43.8787803 7.67361344,45.2001924 L7.67361344,54.2910479 L2.39890198,54.2910479 C1.07387431,54.2910479 6.40316212e-05,55.3621006 6.40316212e-05,56.6837256 L6.40316212e-05,106.607216 C6.40316212e-05,107.928628 1.07387431,108.999894 2.39890198,108.999894 L46.1521352,108.999894 L61.7963407,108.999894 L105.549574,108.999894 C106.874388,108.999894 107.948625,107.928628 107.948625,106.607216 L107.948625,56.6837256 C107.948625,55.3621006 106.874602,54.2910479 105.549787,54.2910479 L105.549787,54.2910479 Z" id="Fill-1" fill="#199ED8" mask="url(#mask-2)"/>
                        </g>
                        <path d="M74.1810166,64.8584488 C74.1210403,64.7124059 74.0465502,64.5738141 73.9603209,64.4445895 C73.8738783,64.3128102 73.7731352,64.1908238 73.6627874,64.0809723 C73.5524395,63.9709078 73.4299257,63.8702105 73.2980206,63.7842027 C73.1686767,63.697982 73.0293012,63.6238961 72.8830957,63.5640738 C72.7392379,63.5042516 72.5879099,63.4589059 72.4344474,63.4276109 C72.1249613,63.3654469 71.8084316,63.3654469 71.4989455,63.4276109 C71.345483,63.4589059 71.1943684,63.5042516 71.0502972,63.5640738 C70.9038783,63.6238961 70.7647162,63.697982 70.6353723,63.7842027 C70.5034672,63.8702105 70.3809534,63.9709078 70.2706055,64.0809723 C70.1602577,64.1908238 70.0595146,64.3128102 69.9730719,64.4445895 C69.8868427,64.5738141 69.8123526,64.7124059 69.7523763,64.8584488 C69.6926134,65.00215 69.6445897,65.1528766 69.6155621,65.3061578 C69.5846134,65.4590133 69.5677518,65.6169781 69.5677518,65.7726012 C69.5677518,65.9280113 69.5846134,66.0861891 69.6155621,66.2415992 C69.6445897,66.3923258 69.6926134,66.5430523 69.7523763,66.6890953 C69.8123526,66.8325836 69.8868427,66.9713883 69.9730719,67.1006129 C70.0595146,67.2321793 70.1602577,67.3543785 70.2706055,67.4642301 C70.3809534,67.5745074 70.5034672,67.6747789 70.6353723,67.7635543 C70.7647162,67.8495621 70.9038783,67.923648 71.0502972,67.9836832 C71.1943684,68.0432926 71.345483,68.0888512 71.4989455,68.1199332 C71.6524079,68.1510152 71.8107794,68.1652789 71.9668032,68.1652789 C72.1226134,68.1652789 72.280985,68.1510152 72.4344474,68.1199332 C72.5881233,68.0888512 72.7392379,68.0432926 72.8830957,67.9836832 C73.0293012,67.923648 73.1686767,67.8495621 73.2980206,67.7635543 C73.4299257,67.6747789 73.5524395,67.5745074 73.6627874,67.4642301 C73.7731352,67.3543785 73.8740917,67.2321793 73.9603209,67.1006129 C74.0465502,66.9713883 74.1210403,66.8325836 74.1810166,66.6890953 C74.2407794,66.5430523 74.2890166,66.3923258 74.3199652,66.2415992 C74.3513407,66.0861891 74.3656411,65.9280113 74.3656411,65.7726012 C74.3656411,65.6169781 74.3513407,65.4590133 74.3199652,65.3061578 C74.2885897,65.1528766 74.2407794,65.0019371 74.1810166,64.8584488" id="Fill-4" fill="#199ED8"/>
                        <path d="M38.1964625,64.8584488 C38.1364862,64.7124059 38.0622095,64.5738141 37.9757668,64.4445895 C37.8895375,64.3128102 37.788581,64.1908238 37.6782332,64.0809723 C37.5678854,63.9709078 37.445585,63.8702105 37.3136798,63.7842027 C37.1841225,63.697982 37.0449605,63.6238961 36.9011028,63.5640738 C36.7546838,63.5042516 36.6035692,63.4589059 36.4501067,63.4276109 C36.1429684,63.3654469 35.8238775,63.3654469 35.5146047,63.4276109 C35.3609289,63.4589059 35.2098142,63.5042516 35.0659565,63.5640738 C34.9195375,63.6238961 34.7803755,63.697982 34.6508182,63.7842027 C34.518913,63.8702105 34.3966126,63.9709078 34.2862648,64.0809723 C34.175917,64.1908238 34.0749605,64.3128102 33.9887312,64.4445895 C33.9022885,64.5738141 33.8280119,64.7124059 33.7680356,64.8584488 C33.7080593,65.00215 33.6600356,65.1528766 33.6312213,65.3061578 C33.6000593,65.4590133 33.5831976,65.6169781 33.5831976,65.7726012 C33.5831976,66.4044605 33.8399644,67.0190758 34.2862648,67.4642301 C34.3966126,67.5745074 34.518913,67.6747789 34.6508182,67.7635543 C34.7803755,67.8495621 34.9195375,67.923648 35.0659565,67.9836832 C35.2098142,68.0432926 35.3609289,68.0888512 35.5143913,68.1199332 C35.6680672,68.1510152 35.8264387,68.1652789 35.982249,68.1652789 C36.1380593,68.1652789 36.2966443,68.1510152 36.4501067,68.1199332 C36.6035692,68.0888512 36.7546838,68.0432926 36.9011028,67.9836832 C37.0449605,67.923648 37.1841225,67.8495621 37.3136798,67.7635543 C37.445585,67.6747789 37.5678854,67.5745074 37.6782332,67.4642301 C38.1245336,67.0190758 38.3813004,66.4044605 38.3813004,65.7726012 C38.3813004,65.6169781 38.3644387,65.4590133 38.3332767,65.3061578 C38.304249,65.1528766 38.2564387,65.0019371 38.1964625,64.8584488" id="Fill-6" fill="#199ED8"/>
                        <mask id="mask-4" fill="white">
                            <use xlink:href="#path-3"/>
                        </mask>
                        <g id="Clip-9"/>
                        <path d="M15.6813439,73.0742812 L24.4383083,73.0742812 L24.4383083,67.5706328 L15.6813439,67.5706328 L15.6813439,73.0742812 Z M26.8371462,62.7852773 L13.2822925,62.7852773 C11.9572648,62.7852773 10.8834545,63.8563301 10.8834545,65.1779551 L10.8834545,75.466959 C10.8834545,76.788584 11.9572648,77.8598496 13.2822925,77.8598496 L26.8371462,77.8598496 C28.1621739,77.8598496 29.2361976,76.788584 29.2361976,75.466959 L29.2361976,65.1779551 C29.2361976,63.8563301 28.1621739,62.7852773 26.8371462,62.7852773 L26.8371462,62.7852773 Z" id="Fill-8" fill="#199ED8" mask="url(#mask-4)"/>
                        <path d="M15.6813439,94.4178437 L24.4383083,94.4178437 L24.4383083,88.9141953 L15.6813439,88.9141953 L15.6813439,94.4178437 Z M26.8371462,84.1288398 L13.2822925,84.1288398 C11.9572648,84.1288398 10.8834545,85.1998926 10.8834545,86.5215176 L10.8834545,96.8105215 C10.8834545,98.1321465 11.9572648,99.2034121 13.2822925,99.2034121 L26.8371462,99.2034121 C28.1621739,99.2034121 29.2361976,98.1321465 29.2361976,96.8105215 L29.2361976,86.5215176 C29.2361976,85.1998926 28.1621739,84.1288398 26.8371462,84.1288398 L26.8371462,84.1288398 Z" id="Fill-10" fill="#199ED8" mask="url(#mask-4)"/>
                        <path d="M49.5959051,73.0742812 L58.353083,73.0742812 L58.353083,67.5706328 L49.5959051,67.5706328 L49.5959051,73.0742812 Z M60.7521344,62.7852773 L47.1968538,62.7852773 C45.8720395,62.7852773 44.7980158,63.8563301 44.7980158,65.1779551 L44.7980158,75.466959 C44.7980158,76.788584 45.8720395,77.8598496 47.1968538,77.8598496 L60.7521344,77.8598496 C62.0769486,77.8598496 63.1509723,76.788584 63.1509723,75.466959 L63.1509723,65.1779551 C63.1509723,63.8563301 62.0769486,62.7852773 60.7521344,62.7852773 L60.7521344,62.7852773 Z" id="Fill-11" fill="#199ED8" mask="url(#mask-4)"/>
                        <path d="M83.5104664,73.0742812 L92.2674308,73.0742812 L92.2674308,67.5706328 L83.5104664,67.5706328 L83.5104664,73.0742812 Z M94.6662688,62.7852773 L81.111415,62.7852773 C79.7866008,62.7852773 78.7125771,63.8563301 78.7125771,65.1779551 L78.7125771,75.466959 C78.7125771,76.788584 79.7866008,77.8598496 81.111415,77.8598496 L94.6662688,77.8598496 C95.9912964,77.8598496 97.0655336,76.788584 97.0655336,75.466959 L97.0655336,65.1779551 C97.0655336,63.8563301 95.9912964,62.7852773 94.6662688,62.7852773 L94.6662688,62.7852773 Z" id="Fill-12" fill="#199ED8" mask="url(#mask-4)"/>
                        <path d="M83.5104664,94.4178437 L92.2674308,94.4178437 L92.2674308,88.9141953 L83.5104664,88.9141953 L83.5104664,94.4178437 Z M94.6662688,84.1288398 L81.111415,84.1288398 C79.7866008,84.1288398 78.7125771,85.1998926 78.7125771,86.5215176 L78.7125771,96.8105215 C78.7125771,98.1321465 79.7866008,99.2034121 81.111415,99.2034121 L94.6662688,99.2034121 C95.9912964,99.2034121 97.0655336,98.1321465 97.0655336,96.8105215 L97.0655336,86.5215176 C97.0655336,85.1998926 95.9912964,84.1288398 94.6662688,84.1288398 L94.6662688,84.1288398 Z" id="Fill-13" fill="#199ED8" mask="url(#mask-4)"/>
                    </g>
                    <path d="M41.82151,137 L39.4074475,137 L39.4074475,132.070312 L34.88401,132.070312 L34.88401,137 L32.462135,137 L32.462135,125.578125 L34.88401,125.578125 L34.88401,130.054688 L39.4074475,130.054688 L39.4074475,125.578125 L41.82151,125.578125 L41.82151,137 Z M49.555885,127.429688 C48.6444221,127.429688 47.9387,127.772132 47.4386975,128.457031 C46.938695,129.141931 46.6886975,130.096348 46.6886975,131.320312 C46.6886975,133.8672 47.6444171,135.140625 49.555885,135.140625 C50.3579724,135.140625 51.3293168,134.940106 52.4699475,134.539062 L52.4699475,136.570312 C51.5324428,136.960939 50.4855783,137.15625 49.3293225,137.15625 C47.6678559,137.15625 46.3970353,136.652349 45.5168225,135.644531 C44.6366098,134.636714 44.19651,133.190114 44.19651,131.304688 C44.19651,130.117182 44.4126537,129.076827 44.8449475,128.183594 C45.2772414,127.29036 45.8983289,126.605471 46.7082288,126.128906 C47.5181287,125.652341 48.4673379,125.414062 49.555885,125.414062 C50.6652656,125.414062 51.7798378,125.682289 52.899635,126.21875 L52.118385,128.1875 C51.6912996,127.984374 51.2616164,127.807292 50.8293225,127.65625 C50.3970287,127.505208 49.9725538,127.429688 49.555885,127.429688 Z M62.79026,128.25 C62.79026,128.984379 62.529846,129.591143 62.00901,130.070312 C61.4881741,130.549482 60.782452,130.854166 59.8918225,130.984375 L59.8918225,131.03125 C60.9387028,131.135417 61.7420802,131.424477 62.3019788,131.898438 C62.8618774,132.372398 63.1418225,132.98958 63.1418225,133.75 C63.1418225,134.802089 62.7160455,135.632809 61.8644788,136.242188 C61.012912,136.851566 59.8345384,137.15625 58.3293225,137.15625 C56.6522308,137.15625 55.3058901,136.950523 54.29026,136.539062 L54.29026,134.507812 C54.7798458,134.742189 55.3540588,134.925781 56.0129163,135.058594 C56.6717737,135.191407 57.287653,135.257812 57.8605725,135.257812 C59.7824571,135.257812 60.743385,134.697922 60.743385,133.578125 C60.743385,133.072914 60.4347944,132.684897 59.8176038,132.414062 C59.2004132,132.143228 58.2876619,132.007812 57.0793225,132.007812 L56.00901,132.007812 L56.00901,130.117188 L56.9699475,130.117188 C58.1782869,130.117188 59.0584864,130.002605 59.6105725,129.773438 C60.1626586,129.54427 60.4386975,129.164065 60.4386975,128.632812 C60.4386975,128.242186 60.2655222,127.930991 59.9191663,127.699219 C59.5728104,127.467447 59.0532843,127.351562 58.3605725,127.351562 C57.2876505,127.351562 56.2512025,127.661455 55.2511975,128.28125 L54.19651,126.664062 C54.847555,126.231769 55.5376522,125.915366 56.2668225,125.714844 C56.9959928,125.514322 57.8058806,125.414062 58.69651,125.414062 C59.9413079,125.414062 60.9347876,125.674477 61.6769788,126.195312 C62.41917,126.716148 62.79026,127.401037 62.79026,128.25 Z M74.274635,125.578125 L70.743385,133.65625 C70.3006745,134.67188 69.8853141,135.401039 69.4972913,135.84375 C69.1092685,136.286461 68.6496377,136.615884 68.118385,136.832031 C67.5871324,137.048178 66.9413055,137.15625 66.180885,137.15625 C65.5298401,137.15625 64.9230753,137.078126 64.3605725,136.921875 L64.3605725,134.84375 C64.8189082,135.031251 65.389215,135.125 66.07151,135.125 C66.5038039,135.125 66.8527587,135.024741 67.118385,134.824219 C67.3840114,134.623697 67.6053633,134.276044 67.7824475,133.78125 L63.8293225,125.578125 L66.3918225,125.578125 L69.2043225,131.945312 L69.2824475,131.945312 L69.4230725,131.554688 L71.7824475,125.578125 L74.274635,125.578125 Z" id="НСЗУ" fill="#199ED8"/>
                </g>
                <g id="Page-1" transform="translate(200.305109, 48.729356) scale(-1, 1) rotate(1.000000) translate(-200.305109, -48.729356) translate(100.805109, 1.729356)">
                    <path d="M0.0993843369,75.3598095 C8.7072883,32.5030736 46.5606191,0.218559451 91.9543958,0.218559451 C134.686839,0.218559451 170.736701,28.823024 181.998628,67.931471" id="Stroke-1" stroke="#199ED8" stroke-width="5"/>
                    <polygon id="Fill-3" fill="#199ED8" points="162.519955 65.736358 185.643339 93.9118897 198.489393 59.7995364"/>
                </g>
                <g id="Page-1-Copy-4" transform="translate(205.072809, 237.390323) scale(1, -1) rotate(-8.000000) translate(-205.072809, -237.390323) translate(105.572809, 190.390323)">
                    <path d="M0.0993843369,75.3598095 C8.7072883,32.5030736 46.5606191,0.218559451 91.9543958,0.218559451 C134.686839,0.218559451 170.736701,28.823024 181.998628,67.931471" id="Stroke-1" stroke="#199ED8" stroke-width="5"/>
                    <polygon id="Fill-3" fill="#199ED8" points="162.519955 65.736358 185.643339 93.9118897 198.489393 59.7995364"/>
                </g>
                <g id="Page-1" transform="translate(186.000000, 22.000000)">
                    <path d="M17.3415562,27.657746 C8.75419987,27.657746 1.79267045,25.8854077 1.79267045,24.0689666 L1.79267045,28.2535088 C1.7986505,30.06995 8.75718989,31.8452783 17.3415562,31.8452783 C25.9259226,31.8452783 32.884462,30.06995 32.8904421,28.2535088 L32.8904421,24.0689666 C32.8904421,25.8854077 25.9289126,27.657746 17.3415562,27.657746" id="Fill-1" fill="#E4AF18"/>
                    <g id="Group-5" transform="translate(0.000000, 16.895145)">
                        <mask id="mask-6" fill="white">
                            <use xlink:href="#path-5"/>
                        </mask>
                        <g id="Clip-4"/>
                        <path d="M15.5487363,4.18394422 C6.96063241,4.18394422 -0.00014950133,2.41459598 -0.00014950133,0.595164794 L-0.00014950133,4.77970701 C0.00583055186,6.59614817 6.96362244,8.37147646 15.5487363,8.37147646 C24.1331027,8.37147646 31.0916421,6.59614817 31.0976221,4.77970701 L31.0976221,0.595164794 C31.0976221,2.41459598 24.1360927,4.18394422 15.5487363,4.18394422" id="Fill-3" fill="#F4BF1A" mask="url(#mask-6)"/>
                    </g>
                    <g id="Group-8" transform="translate(2.990027, 10.915092)">
                        <mask id="mask-8" fill="white">
                            <use xlink:href="#path-7"/>
                        </mask>
                        <g id="Clip-7"/>
                        <path d="M16.1473396,3.58504189 C7.55923574,3.58504189 0.598453823,1.81569365 0.598453823,0 L0.598453823,4.18080469 C0.602191356,5.99724584 7.56297327,7.77257414 16.1473396,7.77257414 C24.731706,7.77257414 31.6902454,5.99724584 31.6932354,4.18080469 L31.6932354,0 C31.6932354,1.81569365 24.731706,3.58504189 16.1473396,3.58504189" id="Fill-6" fill="#E4AF18" mask="url(#mask-8)"/>
                    </g>
                    <g id="Group-11" transform="translate(0.000000, 0.449999)">
                        <mask id="mask-10" fill="white">
                            <use xlink:href="#path-9"/>
                        </mask>
                        <g id="Clip-10"/>
                        <path d="M31.0974726,3.36602244 C31.0974726,5.1824636 24.1359432,6.87631366 15.5485868,6.87631366 C6.96048291,6.87631366 -0.00029900266,5.1824636 -0.00029900266,3.36602244 C-0.00029900266,1.54733876 6.96048291,0.297507646 15.5485868,0.297507646 C24.1359432,0.297507646 31.0974726,1.54733876 31.0974726,3.36602244" id="Fill-9" fill="#FFD949" mask="url(#mask-10)"/>
                    </g>
                    <g id="Group-14" transform="translate(0.000000, 3.440026)">
                        <mask id="mask-12" fill="white">
                            <use xlink:href="#path-11"/>
                        </mask>
                        <g id="Clip-13"/>
                        <path d="M15.5487363,3.88613757 C6.96063241,3.88613757 -0.00014950133,2.1137993 -0.00014950133,0.297358145 L-0.00014950133,4.48190037 C0.00583055186,6.29759402 6.96362244,8.06993228 15.5487363,8.06993228 C24.1331027,8.06993228 31.0916421,6.29759402 31.0976221,4.48190037 L31.0976221,0.297358145 C31.0976221,2.1137993 24.1360927,3.88613757 15.5487363,3.88613757" id="Fill-12" fill="#F4BF1A" mask="url(#mask-12)"/>
                    </g>
                    <path d="M2.39142327,5.57707236 L2.39142327,9.75862455 C2.75695402,9.89242824 3.15388005,10.0209994 3.58892892,10.1435905 L3.58892892,5.96278579 C3.15388005,5.83720467 2.75695402,5.70863353 2.39142327,5.57707236" id="Fill-15" fill="#DCA815"/>
                    <path d="M27.5088427,5.96293529 L27.5088427,10.14374 C27.9409015,10.0211489 28.3408176,9.89257774 28.7033583,9.75877405 L28.7033583,5.57722186 C28.3408176,5.70878303 27.9409015,5.83735417 27.5088427,5.96293529" id="Fill-17" fill="#DCA815"/>
                    <path d="M5.38144987,6.39506888 L5.38144987,10.5788636 C5.76417327,10.6610893 6.16408933,10.7335975 6.57895552,10.8068531 L6.57895552,6.6223109 C6.16408933,6.54980276 5.76417327,6.47654711 5.38144987,6.39506888" id="Fill-19" fill="#DCA815"/>
                    <path d="M24.5188161,6.62208665 L24.5188161,10.8066289 C24.9336823,10.7333732 25.3306083,10.6608651 25.7133317,10.5786393 L25.7133317,6.39484463 C25.3306083,6.47632286 24.9336823,6.54957851 24.5188161,6.62208665" id="Fill-21" fill="#DCA815"/>
                    <path d="M8.37147646,6.88819902 L8.37147646,11.0727412 C8.76316995,11.1220767 9.16009598,11.1684221 9.56898211,11.212525 L9.56898211,7.02798276 C9.16009598,6.98462738 8.76316995,6.93753446 8.37147646,6.88819902" id="Fill-23" fill="#DCA815"/>
                    <path d="M21.5287895,7.02798276 L21.5287895,11.212525 C21.9376756,11.1684221 22.3346017,11.1220767 22.7233051,11.0727412 L22.7233051,6.88819902 C22.3346017,6.93753446 21.9376756,6.98462738 21.5287895,7.02798276" id="Fill-25" fill="#DCA815"/>
                    <path d="M11.3615031,7.17980136 L11.3615031,11.3673336 C11.7561866,11.3934963 12.1531126,11.4196591 12.5590087,11.4375992 L12.5590087,7.25305701 C12.1531126,7.23287434 11.7561866,7.20970163 11.3615031,7.17980136" id="Fill-27" fill="#DCA815"/>
                    <path d="M18.5387629,7.25313177 L18.5387629,11.437674 C18.941669,11.4197338 19.341585,11.3935711 19.7332785,11.3674084 L19.7332785,7.17987611 C19.341585,7.20977638 18.941669,7.23294909 18.5387629,7.25313177" id="Fill-29" fill="#DCA815"/>
                    <path d="M15.5487363,7.32616316 C15.3469095,7.32616316 15.1488202,7.32317314 14.9499835,7.32317314 L14.9499835,11.5077154 C15.1488202,11.5099579 15.3469095,11.5099579 15.5487363,11.5099579 C15.7468256,11.5099579 15.9486524,11.5099579 16.1474891,11.5077154 L16.1474891,7.32317314 C15.9486524,7.32317314 15.7468256,7.32616316 15.5487363,7.32616316" id="Fill-31" fill="#DCA815"/>
                    <path d="M5.98005319,12.7517907 L5.98005319,16.9355854 C6.34483644,17.0701366 6.74250997,17.1987077 7.17755884,17.3212988 L7.17755884,13.1367566 C6.74250997,13.0141655 6.34483644,12.8855944 5.98005319,12.7517907" id="Fill-33" fill="#C49214"/>
                    <path d="M31.0974726,13.1368313 L31.0974726,17.3213736 C31.5295314,17.1987825 31.9294475,17.0702113 32.2919882,16.9356601 L32.2919882,12.7518654 C31.9294475,12.8856691 31.5295314,13.0142403 31.0974726,13.1368313" id="Fill-35" fill="#C49214"/>
                    <path d="M8.97007979,13.571955 L8.97007979,17.7564972 C9.35280319,17.8349854 9.75271925,17.9112311 10.1675854,17.9807492 L10.1675854,13.7969545 C9.75271925,13.7266888 9.35280319,13.6511907 8.97007979,13.571955" id="Fill-37" fill="#C49214"/>
                    <path d="M28.107446,13.7967302 L28.107446,17.9842625 C28.5223122,17.9110068 28.9192382,17.8347611 29.3019616,17.7562729 L29.3019616,13.5717307 C28.9192382,13.6509664 28.5223122,13.7264646 28.107446,13.7967302" id="Fill-39" fill="#C49214"/>
                    <path d="M11.9601064,14.0650104 L11.9601064,18.2495526 C12.3510524,18.2996355 12.7487259,18.3459809 13.157612,18.3900838 L13.157612,14.2025516 C12.7487259,14.1614387 12.3510524,14.1150933 11.9601064,14.0650104" id="Fill-41" fill="#C49214"/>
                    <path d="M25.1174194,14.2026263 L25.1174194,18.3901586 C25.5233155,18.3460557 25.9232316,18.2989628 26.311935,18.2496273 L26.311935,14.0650851 C25.9232316,14.1151681 25.5233155,14.1615135 25.1174194,14.2026263" id="Fill-43" fill="#C49214"/>
                    <path d="M14.950133,14.3573602 L14.950133,18.5419024 C15.344069,18.5710552 15.7417425,18.5942279 16.1476386,18.6144106 L16.1476386,14.4276258 C15.7417425,14.4096857 15.344069,14.3835229 14.950133,14.3573602" id="Fill-45" fill="#C49214"/>
                    <path d="M22.1273928,14.4274763 L22.1273928,18.6150086 C22.5302989,18.5940784 22.930215,18.5709057 23.3219084,18.5417529 L23.3219084,14.3572107 C22.930215,14.3833734 22.5302989,14.4095362 22.1273928,14.4274763" id="Fill-47" fill="#C49214"/>
                    <path d="M19.1373662,14.500134 C18.9355394,14.500134 18.7374502,14.500134 18.5386134,14.4978915 L18.5386134,18.6846762 C18.7374502,18.6846762 18.9355394,18.6876662 19.1373662,18.6876662 C19.336203,18.6876662 19.5342923,18.6846762 19.733129,18.6846762 L19.733129,14.4978915 C19.5342923,14.500134 19.336203,14.500134 19.1373662,14.500134" id="Fill-49" fill="#C49214"/>
                    <path d="M2.39142327,19.3300734 L2.39142327,23.5146157 C2.75695402,23.6454293 3.15388005,23.7740005 3.58892892,23.8995816 L3.58892892,19.7157869 C3.15388005,19.5931958 2.75695402,19.4646246 2.39142327,19.3300734" id="Fill-51" fill="#DCA815"/>
                    <path d="M27.5088427,19.7154879 L27.5088427,23.9000301 C27.9409015,23.777439 28.3408176,23.6458778 28.7033583,23.5143167 L28.7033583,19.3297744 C28.3408176,19.4643256 27.9409015,19.5928968 27.5088427,19.7154879" id="Fill-53" fill="#DCA815"/>
                    <path d="M5.38144987,20.1505367 L5.38144987,24.335079 C5.76417327,24.4135672 6.16408933,24.4898128 6.57895552,24.559331 L6.57895552,20.3755362 C6.16408933,20.3052706 5.76417327,20.2290249 5.38144987,20.1505367" id="Fill-55" fill="#DCA815"/>
                    <path d="M24.5188161,20.3753867 L24.5188161,24.559929 C24.9336823,24.4896633 25.3306083,24.4134177 25.7133317,24.3349295 L25.7133317,20.1503872 C25.3306083,20.2296229 24.9336823,20.3051211 24.5188161,20.3753867" id="Fill-57" fill="#DCA815"/>
                    <path d="M8.37147646,20.6440406 L8.37147646,24.8285828 C8.76316995,24.8779183 9.16009598,24.9250112 9.56898211,24.9653766 L9.56898211,20.7815818 C9.16009598,20.740469 8.76316995,20.6933761 8.37147646,20.6440406" id="Fill-59" fill="#DCA815"/>
                    <path d="M21.5287895,20.7812828 L21.5287895,24.9658251 C21.9376756,24.9247122 22.3346017,24.8776193 22.7233051,24.8282838 L22.7233051,20.6437416 C22.3346017,20.6938246 21.9376756,20.74017 21.5287895,20.7812828" id="Fill-61" fill="#DCA815"/>
                    <path d="M11.3615031,20.9360167 L11.3615031,25.1205589 C11.7561866,25.1497117 12.1531126,25.1728844 12.5590087,25.1930671 L12.5590087,21.0062823 C12.1531126,20.9853522 11.7561866,20.9621795 11.3615031,20.9360167" id="Fill-63" fill="#DCA815"/>
                    <path d="M18.5387629,21.0061328 L18.5387629,25.1936651 C18.941669,25.1727349 19.341585,25.1495622 19.7332785,25.1204094 L19.7332785,20.9358672 C19.341585,20.96203 18.941669,20.9859502 18.5387629,21.0061328" id="Fill-65" fill="#DCA815"/>
                    <path d="M15.5487363,21.0790895 C15.3469095,21.0790895 15.1488202,21.0790895 14.9499835,21.0760995 L14.9499835,25.2636317 C15.1488202,25.2636317 15.3469095,25.2666217 15.5487363,25.2666217 C15.7468256,25.2666217 15.9486524,25.2636317 16.1474891,25.2636317 L16.1474891,21.0760995 C15.9486524,21.0790895 15.7468256,21.0790895 15.5487363,21.0790895" id="Fill-67" fill="#DCA815"/>
                    <path d="M4.187607,25.90873 L4.187607,30.0902821 C4.54940022,30.2240858 4.94931627,30.352657 5.38137512,30.4782381 L5.38137512,26.2944434 C4.94931627,26.1718523 4.54940022,26.0402911 4.187607,25.90873" id="Fill-69" fill="#C49214"/>
                    <path d="M29.3016626,26.2941444 L29.3016626,30.4786866 C29.7367115,30.3531055 30.13289,30.2245343 30.4991683,30.0899831 L30.4991683,25.908431 C30.13289,26.0429821 29.7367115,26.1715533 29.3016626,26.2941444" id="Fill-71" fill="#C49214"/>
                    <path d="M7.17763359,26.7291933 L7.17763359,30.9137355 C7.55960949,30.9922237 7.95728303,31.0684693 8.37140171,31.1379875 L8.37140171,26.9541928 C7.95728303,26.8839271 7.55960949,26.8076814 7.17763359,26.7291933" id="Fill-73" fill="#C49214"/>
                    <path d="M26.311636,26.9540433 L26.311636,31.1385855 C26.7265022,31.0683198 27.1264183,30.9920742 27.5091417,30.913586 L27.5091417,26.7290437 C27.1264183,26.8082795 26.7265022,26.8837776 26.311636,26.9540433" id="Fill-75" fill="#C49214"/>
                    <path d="M10.1676602,27.2197819 L10.1676602,31.4073141 C10.5556161,31.4566496 10.9525422,31.502995 11.3614283,31.5441078 L11.3614283,27.3595656 C10.9525422,27.3162102 10.5556161,27.2691173 10.1676602,27.2197819" id="Fill-77" fill="#C49214"/>
                    <path d="M23.3216094,27.3599394 L23.3216094,31.5444816 C23.7304956,31.5033687 24.1274216,31.4562758 24.5191151,31.4069404 L24.5191151,27.2201556 C24.1274216,27.2724811 23.7304956,27.3188265 23.3216094,27.3599394" id="Fill-79" fill="#C49214"/>
                    <path d="M13.1576868,27.5146732 L13.1576868,31.6992155 C13.5486328,31.7253782 13.9485488,31.7515409 14.3514549,31.7717236 L14.3514549,27.5849389 C13.9485488,27.5640087 13.5486328,27.540836 13.1576868,27.5146732" id="Fill-81" fill="#C49214"/>
                    <path d="M20.3315828,27.5847894 L20.3315828,31.7723216 C20.737479,31.7513914 21.134405,31.7252287 21.5290885,31.699066 L21.5290885,27.5145237 C21.134405,27.5406865 20.737479,27.5646067 20.3315828,27.5847894" id="Fill-83" fill="#C49214"/>
                    <path d="M17.3415562,27.657746 C17.143467,27.657746 16.9416402,27.654756 16.7428034,27.654756 L16.7428034,31.8392982 C16.9416402,31.8422882 17.143467,31.8452783 17.3415562,31.8452783 C17.543383,31.8452783 17.7414723,31.8422882 17.9403091,31.8392982 L17.9403091,27.654756 C17.7414723,27.654756 17.543383,27.657746 17.3415562,27.657746" id="Fill-85" fill="#C49214"/>
                    <path d="M30.6244504,22.4982309 C28.9276103,23.9932442 22.821976,25.266248 15.5487363,25.266248 C9.8602107,25.266248 4.8907865,24.4865986 2.17808487,23.4326142 C1.92991267,23.6606037 1.79237144,23.8968158 1.79237144,24.147978 C1.79237144,25.9644192 8.75390086,27.6575218 17.3412572,27.6575218 C25.9293611,27.6575218 32.8901431,25.9644192 32.8901431,24.147978 C32.8901431,23.5200725 32.0611582,22.9624325 30.6244504,22.4982309" id="Fill-87" fill="#FCC62D"/>
                    <g id="Group-91" transform="translate(0.000000, 15.400132)">
                        <mask id="mask-14" fill="white">
                            <use xlink:href="#path-13"/>
                        </mask>
                        <g id="Clip-90"/>
                        <path d="M19.1373662,3.28753424 C11.2354734,3.28753424 4.71646795,1.78355086 3.72228411,0.127823637 C1.40426599,0.654068318 -0.00029900266,1.35448205 -0.00029900266,2.1692643 C-0.00029900266,3.98570545 6.96048291,5.67880801 15.5485868,5.67880801 C24.1359432,5.67880801 31.0974726,3.98570545 31.0974726,2.1692643 C31.0974726,2.09002859 31.0772899,2.01154039 31.0511272,1.93305219 C28.2008843,2.73587434 23.9199138,3.28753424 19.1373662,3.28753424" id="Fill-89" fill="#FFD949" mask="url(#mask-14)"/>
                    </g>
                    <path d="M30.4930387,8.85040397 C28.6332422,10.2953343 22.650199,11.5100326 15.5488858,11.5100326 C10.9614375,11.5100326 6.84118085,11.0054656 3.99467553,10.254969 C3.73155319,10.488191 3.58877942,10.7333732 3.58877942,10.9905155 C3.58877942,12.8069567 10.5495613,14.5000592 19.1376652,14.5000592 C27.7220316,14.5000592 34.6828135,12.8069567 34.6828135,10.9905155 C34.6828135,10.1234078 33.0921193,9.38487123 30.4930387,8.85040397" id="Fill-92" fill="#FCC62D"/>
                </g>
                <path d="M185.38401,250.578125 L181.85276,258.65625 C181.410049,259.67188 180.994689,260.401039 180.606666,260.84375 C180.218644,261.286461 179.759013,261.615884 179.22776,261.832031 C178.696507,262.048178 178.050681,262.15625 177.29026,262.15625 C176.639215,262.15625 176.03245,262.078126 175.469948,261.921875 L175.469948,259.84375 C175.928283,260.031251 176.49859,260.125 177.180885,260.125 C177.613179,260.125 177.962134,260.024741 178.22776,259.824219 C178.493386,259.623697 178.714738,259.276044 178.891823,258.78125 L174.938698,250.578125 L177.501198,250.578125 L180.313698,256.945312 L180.391823,256.945312 L180.532448,256.554688 L182.891823,250.578125 L185.38401,250.578125 Z M194.04026,250.578125 L194.04026,252.578125 L189.243385,252.578125 L189.243385,262 L186.82151,262 L186.82151,250.578125 L194.04026,250.578125 Z M206.16526,256.273438 C206.16526,258.164072 205.696515,259.617182 204.75901,260.632812 C203.821505,261.648443 202.477769,262.15625 200.72776,262.15625 C198.977751,262.15625 197.634015,261.648443 196.69651,260.632812 C195.759005,259.617182 195.29026,258.158864 195.29026,256.257812 C195.29026,254.356761 195.760307,252.904953 196.700416,251.902344 C197.640525,250.899735 198.988168,250.398438 200.743385,250.398438 C202.498602,250.398438 203.841037,250.903641 204.770729,251.914062 C205.700421,252.924484 206.16526,254.377595 206.16526,256.273438 Z M197.829323,256.273438 C197.829323,257.549486 198.071508,258.510413 198.555885,259.15625 C199.040262,259.802087 199.764214,260.125 200.72776,260.125 C202.660061,260.125 203.626198,258.841159 203.626198,256.273438 C203.626198,253.700508 202.66527,252.414062 200.743385,252.414062 C199.779839,252.414062 199.053283,252.738278 198.563698,253.386719 C198.074112,254.035159 197.829323,254.997389 197.829323,256.273438 Z M207.173073,259.984375 L208.055885,259.984375 C208.811097,258.473951 209.407445,256.964851 209.844948,255.457031 C210.28245,253.949211 210.607967,252.322925 210.82151,250.578125 L217.47776,250.578125 L217.47776,259.984375 L219.001198,259.984375 L219.001198,265.328125 L216.66526,265.328125 L216.66526,262 L209.50901,262 L209.50901,265.328125 L207.173073,265.328125 L207.173073,259.984375 Z M212.743385,252.59375 C212.576718,253.786464 212.299377,255.049473 211.911354,256.382812 C211.523331,257.716153 211.087137,258.916661 210.60276,259.984375 L215.063698,259.984375 L215.063698,252.59375 L212.743385,252.59375 Z M227.751198,262 L226.923073,259.28125 L222.75901,259.28125 L221.930885,262 L219.32151,262 L223.35276,250.53125 L226.313698,250.53125 L230.360573,262 L227.751198,262 Z M226.344948,257.25 C225.579319,254.786446 225.148333,253.393231 225.051979,253.070312 C224.955624,252.747394 224.886614,252.492188 224.844948,252.304688 C224.673072,252.971358 224.180889,254.619779 223.368385,257.25 L226.344948,257.25 Z" id="УГОДА" fill="#199ED8"/>
                <g id="Group-20" transform="translate(119.000000, 109.000000)">
                    <path d="M46.0871925,79.1997184 L39.0685463,79.1997184 C17.5260539,79.1997184 0,61.6733697 0,40.1295016 L0,39.4627811 C0,17.9203869 17.5260539,0.394431283 39.0685463,0.394431283 L46.0871925,0.394431283 L124.891939,0.394431283 L131.909947,0.394431283 C153.452832,0.394431283 170.97869,17.9203869 170.97869,39.4627811 L170.97869,40.1295016 C170.97869,61.6733697 153.452832,79.1997184 131.909947,79.1997184 L124.891939,79.1997184 L46.0871925,79.1997184 Z" id="Shape" fill="#FFFFFE"/>
                    <path d="M131.909455,6.65836166 L118.627616,6.65836166 L52.3500911,6.65836166 L39.0681041,6.65836166 C20.9799316,6.65836166 6.2633408,21.3738716 6.2633408,39.4632724 L6.2633408,40.1295016 C6.2633408,58.2184111 20.9799316,72.9358863 39.0681041,72.9358863 L52.3500911,72.9358863 L118.627616,72.9358863 L131.909455,72.9358863 C149.998856,72.9358863 164.714857,58.2184111 164.714857,40.1295016 L164.714857,39.4632724 C164.714857,21.3738716 149.998856,6.65836166 131.909455,6.65836166 Z" id="Shape" fill="#FFFFFE"/>
                    <path d="M85.4890991,72.9373602 L39.0681041,72.9373602 C20.9799316,72.9373602 6.2633408,58.219885 6.2633408,40.1314669 L6.2633408,39.464255 C6.2633408,21.3758368 20.9799316,6.65983562 39.0681041,6.65983562 L85.4890991,6.65983562 L85.4890991,16.1064354 L39.0681041,16.1064354 C26.1883112,16.1064354 15.7096457,26.584806 15.7096457,39.464255 L15.7096457,40.1314669 C15.7096457,53.0114072 26.1883112,63.4902692 39.0681041,63.4902692 L85.4890991,63.4902692 L85.4890991,72.9373602 Z" id="Shape" fill="#F9C623"/>
                    <path d="M131.909947,72.9373602 L85.4895904,72.9373602 L85.4895904,63.4902692 L131.909947,63.4902692 C144.789887,63.4902692 155.268258,53.0114072 155.268258,40.1314669 L155.268258,39.464255 C155.268258,26.584806 144.789887,16.1064354 131.909947,16.1064354 L85.4895904,16.1064354 L85.4895904,6.65983562 L131.909947,6.65983562 C149.999348,6.65983562 164.71584,21.3758368 164.71584,39.464255 L164.71584,40.1314669 C164.71584,58.219885 149.999348,72.9373602 131.909947,72.9373602 Z" id="Shape" fill="#007DAC"/>
                    <path d="M100.955836,28.8139225 C101.030517,28.9770406 101.132712,29.1205059 101.260455,29.2448097 C101.388689,29.3681309 101.536085,29.4649208 101.703133,29.5356709 C101.870673,29.6064209 102.048531,29.6417959 102.234741,29.6417959 C102.419477,29.6417959 102.59537,29.6064209 102.763401,29.5356709 C102.931432,29.4649208 103.078828,29.3656743 103.206571,29.2379312 C103.334805,29.1096969 103.435526,28.9632837 103.51168,28.8001656 C103.586361,28.6370475 103.623701,28.4631204 103.623701,28.2783843 L103.623701,24.2136982 C103.623701,24.0191357 103.586361,23.8358735 103.51168,23.6639117 C103.435526,23.4919499 103.337753,23.3425887 103.213941,23.2133717 C103.090128,23.0851373 102.944206,22.9844168 102.776175,22.909245 C102.608635,22.8335818 102.42783,22.7972241 102.234741,22.7972241 C102.040179,22.7972241 101.85839,22.8335818 101.69085,22.909245 C101.522328,22.9844168 101.375423,23.0851373 101.24768,23.2133717 C101.118463,23.3425887 101.020199,23.4919499 100.949449,23.6639117 C100.878208,23.8358735 100.843816,24.0191357 100.843816,24.2136982 L100.843816,28.2906673 C100.843816,28.476386 100.881156,28.6508045 100.955836,28.8139225 Z M99.5452583,23.0733457 C99.6867583,22.7195956 99.88476,22.4135036 100.14172,22.1531043 C100.396715,21.8931963 100.70379,21.6878247 101.06147,21.537481 C101.418659,21.3881198 101.81368,21.3129479 102.246533,21.3129479 C102.643519,21.3129479 103.01643,21.3881198 103.364776,21.537481 C103.713121,21.6878247 104.019213,21.8951615 104.27863,22.1594914 C104.538538,22.4248039 104.745875,22.7333526 104.901132,23.0866113 C105.055406,23.4393787 105.132543,23.8191686 105.132543,24.2259812 L105.132543,28.2631534 C105.132543,28.6606308 105.055406,29.0335423 104.901132,29.3813965 C104.745875,29.7307247 104.538538,30.0353428 104.27863,30.2952508 C104.019213,30.5551588 103.713121,30.7624956 103.364776,30.9177526 C103.01643,31.0715356 102.643519,31.149164 102.246533,31.149164 C101.857899,31.149164 101.487444,31.0739922 101.133694,30.9231571 C100.780927,30.773796 100.472869,30.5689157 100.208048,30.3075338 C99.9427357,30.0476258 99.730977,29.7479209 99.5717895,29.4084191 C99.4130933,29.068426 99.3339909,28.713202 99.3339909,28.3432385 L99.3339909,24.2122242 C99.3339909,23.805903 99.4042496,23.4261131 99.5452583,23.0733457 Z" id="Shape" fill="#343534"/>
                    <path d="M110.598964,28.9264347 C110.82841,28.9264347 111.010198,29.0040632 111.142363,29.1583375 C111.274037,29.3126118 111.341348,29.4909608 111.341348,29.6938757 C111.341348,29.8702594 111.27895,30.0304296 111.155629,30.1709469 C110.873612,30.4790043 110.548849,30.7207335 110.182816,30.8917126 C109.816292,31.0641658 109.421271,31.150638 108.997754,31.150638 C108.600768,31.150638 108.225891,31.0725182 107.872632,30.9192265 C107.518882,30.7644609 107.210334,30.5566327 106.946004,30.2967247 C106.681182,30.0363254 106.472863,29.7317073 106.323993,29.3833618 C106.172667,29.0350163 106.097986,28.6625961 106.097986,28.264136 L106.097986,24.17341 C106.097986,23.7754412 106.172667,23.4015471 106.323993,23.0482884 C106.472863,22.6945383 106.681182,22.3884463 106.946004,22.128047 C107.210334,21.8676476 107.518882,21.6632587 107.872632,21.5124237 C108.225891,21.3625712 108.600768,21.2878907 108.997754,21.2878907 C109.501356,21.2878907 109.915539,21.3738716 110.241775,21.5458334 C110.568011,21.7173039 110.873612,21.9580504 111.155629,22.2670904 C111.288777,22.4174342 111.353631,22.5810435 111.353631,22.7579186 C111.353631,22.9510071 111.283372,23.1254255 111.142363,23.2796998 C111.000863,23.4339742 110.820058,23.512094 110.598964,23.512094 C110.449603,23.512094 110.324808,23.4777016 110.228018,23.4118648 C110.131228,23.3455367 110.034438,23.2728214 109.937648,23.1942103 C109.831523,23.0964377 109.708202,23.0060349 109.567684,22.9225106 C109.425693,22.8384949 109.236535,22.7967328 108.997754,22.7967328 C108.812035,22.7967328 108.635651,22.8296512 108.468111,22.8959793 C108.301063,22.9623075 108.152684,23.0546755 108.02445,23.1730835 C107.896707,23.2929655 107.795004,23.4388874 107.719832,23.6113405 C107.645151,23.7823197 107.606337,23.970495 107.606337,24.17341 L107.606337,28.264136 C107.606337,28.4238149 107.638764,28.5834937 107.700179,28.7480857 C107.762085,28.9107125 107.850032,29.0585996 107.965492,29.1912559 C108.079478,29.3234208 108.224417,29.4320024 108.394905,29.5155268 C108.567358,29.5990511 108.767325,29.6417959 108.997754,29.6417959 C109.2272,29.6417959 109.433554,29.588242 109.619764,29.4816257 C109.804992,29.3769747 109.946,29.271341 110.043282,29.165216 C110.184782,29.0055371 110.3705,28.9264347 110.598964,28.9264347 Z" id="Shape" fill="#343534"/>
                    <path d="M115.471379,30.39548 C115.471379,30.6165737 115.401121,30.7963967 115.260112,30.9378967 C115.118612,31.0793967 114.937806,31.1501467 114.716221,31.1501467 C114.513306,31.1501467 114.337414,31.0793967 114.187562,30.9378967 C114.037709,30.7963967 113.962537,30.6165737 113.962537,30.39548 L113.962537,22.7967328 L112.585369,22.7967328 C112.382454,22.7967328 112.20607,22.7205783 112.056218,22.5707258 C111.905874,22.4208734 111.830702,22.244981 111.830702,22.0420661 C111.830702,21.8209723 111.905874,21.6396754 112.056218,21.499158 C112.20607,21.3571667 112.382454,21.2878907 112.585369,21.2878907 L116.874588,21.2878907 C117.077994,21.2878907 117.254869,21.3571667 117.403739,21.499158 C117.554574,21.6396754 117.630237,21.8209723 117.630237,22.0420661 C117.630237,22.244981 117.554574,22.4208734 117.403739,22.5707258 C117.254869,22.7205783 117.077994,22.7967328 116.874588,22.7967328 L115.471379,22.7967328 L115.471379,30.39548 Z" id="Shape" fill="#343534"/>
                    <path d="M123.685259,29.3322646 C123.59289,29.6815927 123.433703,29.9867021 123.20917,30.2529973 C122.983654,30.5173272 122.683458,30.7285946 122.309073,30.8877821 C121.933705,31.0464783 121.45909,31.1265633 120.885229,31.1265633 C120.461711,31.1265633 119.163645,31.0248602 118.262565,29.8594504 C118.138753,29.6992802 118.090604,29.5341969 118.090604,29.3828705 C118.090604,29.1887993 118.166267,29.0153635 118.316119,28.8601066 C118.465972,28.7053409 118.642355,28.6286951 118.84527,28.6286951 C119.084052,28.6286951 119.278614,28.7210631 119.427975,28.9057993 C119.551788,29.0748132 119.840684,29.6172299 120.912251,29.6172299 C121.194269,29.6172299 121.426172,29.589716 121.606977,29.5371448 C121.788274,29.483591 121.931248,29.4030146 122.037373,29.2924677 C122.143498,29.1819208 122.216705,29.0379642 122.256501,28.8615805 C122.295316,28.6861795 122.314968,28.4734381 122.314968,28.2263044 L122.314968,27.2210648 C122.067835,27.2638096 121.822666,27.2913234 121.580937,27.3006585 C121.337734,27.3085196 121.114675,27.3129415 120.912251,27.3129415 C120.542779,27.3129415 120.181168,27.2495613 119.833314,27.1218182 C119.484477,26.9926012 119.178385,26.8127783 118.91209,26.5784189 C118.648251,26.3440595 118.434527,26.0620421 118.271409,25.7304014 C118.108782,25.3997434 118.026241,25.036167 118.026241,24.6386895 L118.026241,22.0037431 C118.026241,21.7831407 118.10043,21.6018438 118.250282,21.4613264 C118.401117,21.3203177 118.576519,21.2500591 118.780907,21.2500591 C119.001019,21.2500591 119.182315,21.3203177 119.323324,21.4613264 C119.464824,21.6018438 119.535574,21.7831407 119.535574,22.0037431 L119.535574,24.6254239 C119.535574,24.8288302 119.579302,25.0052139 119.667248,25.1550663 C119.755194,25.3054101 119.872619,25.4287313 120.01805,25.5255212 C120.162989,25.6232938 120.329546,25.6960091 120.515265,25.7441584 C120.700493,25.7932903 120.885229,25.8168737 121.070456,25.8168737 C121.273862,25.8168737 121.4925,25.8031167 121.725876,25.7770768 L122.314968,25.7107487 L122.314968,21.9909688 C122.314968,21.7708577 122.385718,21.5895608 122.527218,21.4480608 C122.668719,21.3070521 122.849524,21.2363021 123.069635,21.2363021 C123.27255,21.2363021 123.449916,21.3070521 123.599769,21.4480608 C123.749621,21.5895608 123.824302,21.7708577 123.824302,21.9909688 L123.824302,28.2263044 C123.824302,28.6149381 123.779101,28.9829364 123.685259,29.3322646 Z" id="Shape" fill="#343534"/>
                    <path d="M130.032124,21.3001736 C130.103856,21.3001736 130.180011,21.3183525 130.265009,21.3542188 C130.348533,21.3895938 130.428127,21.4416737 130.502316,21.5124237 C130.576997,21.5831737 130.639395,21.6755417 130.688035,21.7905105 C130.737167,21.9049879 130.761242,22.0464879 130.761242,22.2140279 C130.752889,22.3638803 130.746993,23.1160905 130.746993,24.4706583 L130.746993,30.3959713 C130.746993,30.617065 130.677226,30.796888 130.536217,30.938388 C130.393735,31.0793967 130.213421,31.150638 129.992818,31.150638 C129.790394,31.150638 129.616467,31.0793967 129.470054,30.938388 C129.32315,30.796888 129.251908,30.617065 129.251908,30.3959713 L129.251908,22.7834672 L126.498554,22.7834672 L126.498554,30.3959713 C126.498554,30.617065 126.424856,30.796888 126.279425,30.938388 C126.133995,31.0793967 125.959576,31.150638 125.756661,31.150638 C125.536059,31.150638 125.355253,31.0793967 125.213753,30.938388 C125.072253,30.796888 125.002486,30.617065 125.002486,30.3959713 L125.002486,22.2140279 C125.010838,22.0464879 125.034913,21.9049879 125.07471,21.7905105 C125.114507,21.6755417 125.169043,21.5831737 125.239793,21.5124237 C125.372941,21.3802587 125.540481,21.3045955 125.743396,21.2878907 L129.224886,21.3001736 L130.032124,21.3001736 Z" id="Shape" fill="#343534"/>
                    <path d="M132.18312,21.525198 C132.330025,21.3743629 132.503952,21.2996823 132.705884,21.2996823 C132.927469,21.2996823 133.107784,21.3743629 133.248301,21.525198 C133.390784,21.6745591 133.461042,21.8514341 133.461042,22.0543491 L133.461042,25.0867729 L136.228645,25.0867729 L136.228645,22.0543491 C136.228645,21.8514341 136.300869,21.6745591 136.4463,21.525198 C136.592713,21.3743629 136.766148,21.2996823 136.969555,21.2996823 C137.190157,21.2996823 137.370963,21.3743629 137.512954,21.525198 C137.653471,21.6745591 137.724221,21.8514341 137.724221,22.0543491 L137.724221,30.39548 C137.724221,30.6160824 137.653471,30.7959053 137.512954,30.9374053 C137.370963,31.0789054 137.190157,31.1496554 136.969555,31.1496554 C136.766148,31.1496554 136.592713,31.0789054 136.4463,30.9374053 C136.300869,30.7959053 136.228645,30.6160824 136.228645,30.39548 L136.228645,26.5956151 L133.461042,26.5956151 L133.461042,30.39548 C133.461042,30.6160824 133.390784,30.7959053 133.248301,30.9374053 C133.107784,31.0789054 132.927469,31.1496554 132.705884,31.1496554 C132.503952,31.1496554 132.330025,31.0789054 132.18312,30.9374053 C132.03769,30.7959053 131.966448,30.6160824 131.966448,30.39548 L131.966448,22.0543491 C131.966448,21.8514341 132.03769,21.6745591 132.18312,21.525198 Z" id="Shape" fill="#343534"/>
                    <path d="M139.219307,21.5124237 C139.369159,21.3625712 139.545052,21.2878907 139.748949,21.2878907 C139.969552,21.2878907 140.149866,21.3625712 140.291366,21.5124237 C140.432866,21.6632587 140.503125,21.8386598 140.503125,22.0420661 L140.503125,30.3822143 C140.503125,30.6028168 140.432866,30.7841137 140.291366,30.9241397 C140.149866,31.0656397 139.969552,31.1368811 139.748949,31.1368811 C139.545052,31.1368811 139.369159,31.0656397 139.219307,30.9241397 C139.068963,30.7841137 138.994282,30.6028168 138.994282,30.3822143 L138.994282,22.0420661 C138.994282,21.8386598 139.068963,21.6632587 139.219307,21.5124237 Z" id="Shape" fill="#343534"/>
                    <path d="M98.8048398,34.1191903 C98.9542009,33.9688466 99.1310759,33.8931834 99.3344822,33.8931834 C99.5545933,33.8931834 99.7353989,33.9688466 99.8773902,34.1191903 C100.018399,34.2700254 100.088166,34.4449351 100.088166,34.6478501 L100.088166,42.9894723 C100.088166,43.2100748 100.018399,43.3908803 99.8773902,43.5323803 C99.7353989,43.6738804 99.5545933,43.744139 99.3344822,43.744139 C99.1310759,43.744139 98.9542009,43.6738804 98.8048398,43.5323803 C98.6540047,43.3908803 98.5788328,43.2100748 98.5788328,42.9894723 L98.5788328,34.6478501 C98.5788328,34.4449351 98.6540047,34.2700254 98.8048398,34.1191903 Z" id="Shape" fill="#343534"/>
                    <path d="M102.655802,43.5559637 C102.514793,43.6974637 102.333988,43.7677224 102.112403,43.7677224 C101.892291,43.7677224 101.709521,43.6974637 101.563107,43.5559637 C101.418168,43.4154463 101.344962,43.2302189 101.344962,43.0002813 L101.344962,34.6596418 C101.344962,34.4562355 101.418168,34.2818171 101.563107,34.1363865 C101.709521,33.9899733 101.892291,33.9182407 102.112403,33.9182407 C102.333988,33.9182407 102.514793,33.9899733 102.655802,34.1363865 C102.796811,34.2818171 102.867561,34.4562355 102.867561,34.6596418 L102.867561,37.7313712 L103.780924,37.7313712 L104.760615,36.0092964 L105.740797,34.2886956 L105.740797,34.3024525 C105.811547,34.1693049 105.906372,34.0700584 106.025271,34.0037303 C106.145153,33.9374021 106.266017,33.904975 106.390321,33.904975 C106.548526,33.904975 106.675778,33.9354368 106.773059,33.9968518 C106.89638,34.060232 106.991696,34.1521087 107.058025,34.2754299 C107.12337,34.3987511 107.157762,34.5264942 107.157762,34.6596418 C107.157762,34.8006505 107.126318,34.9283935 107.064412,35.0438536 L105.396382,37.9568868 C105.907846,38.1593105 106.328415,38.4717896 106.65416,38.8962897 C106.980396,39.3198071 107.144005,39.8234096 107.144005,40.4061145 L107.144005,43.0002813 C107.144005,43.2208838 107.072764,43.4021807 106.932247,43.5436807 C106.790747,43.6837067 106.60945,43.7549481 106.390321,43.7549481 C106.186915,43.7549481 106.012497,43.6837067 105.867066,43.5436807 C105.721144,43.4021807 105.647938,43.2208838 105.647938,43.0002813 L105.647938,40.4183974 C105.647938,40.2326787 105.608632,40.0680867 105.529038,39.9226561 C105.448953,39.7762429 105.345285,39.6539043 105.217542,39.5512186 C105.09029,39.4504981 104.942894,39.3733609 104.77388,39.3198071 C104.60634,39.2667446 104.433887,39.241196 104.257503,39.241196 L102.867561,39.241196 L102.867561,43.0002813 C102.867561,43.2302189 102.796811,43.4154463 102.655802,43.5559637 Z" id="Shape" fill="#343534"/>
                    <path d="M113.418155,43.5711946 C113.278129,43.711712 113.096832,43.782462 112.875739,43.782462 C112.672824,43.782462 112.499388,43.711712 112.354449,43.5711946 C112.208035,43.4292033 112.13532,43.248889 112.13532,43.0277952 L112.13532,37.8374962 L110.750782,40.5328749 L109.354943,43.2390626 C109.327921,43.28279 109.293037,43.3353612 109.248327,43.3928456 C109.204599,43.4498387 109.150063,43.5083057 109.083735,43.5711946 C109.017407,43.6326095 108.937322,43.6841981 108.844953,43.722521 C108.752094,43.7628092 108.644004,43.782462 108.520683,43.782462 C108.476955,43.782462 108.417014,43.7741095 108.341842,43.756422 C108.267653,43.7392259 108.193955,43.7028682 108.122714,43.6498057 C108.052455,43.5972345 107.990549,43.5230453 107.937486,43.4252727 C107.885407,43.3284828 107.858875,43.1953352 107.858875,43.0277952 L107.858875,34.686173 C107.858875,34.4837494 107.934047,34.3068744 108.0839,34.1580046 C108.234243,34.0071695 108.410136,33.9315063 108.613051,33.9315063 C108.834636,33.9315063 109.01495,34.0071695 109.155467,34.1580046 C109.296967,34.3068744 109.368209,34.4837494 109.368209,34.686173 L109.368209,39.9039859 L110.778296,37.1427704 L112.1874,34.3948206 L112.1874,34.4080862 C112.249306,34.2582337 112.342657,34.141791 112.466469,34.0577754 C112.589791,33.9742511 112.726869,33.9315063 112.875739,33.9315063 C113.096832,33.9315063 113.278129,34.0071695 113.418155,34.1580046 C113.560638,34.3068744 113.630405,34.4837494 113.630405,34.686173 L113.630405,43.0277952 C113.630405,43.248889 113.560638,43.4292033 113.418155,43.5711946 Z" id="Shape" fill="#343534"/>
                    <path d="M93.7039609,40.7446336 C93.607171,41.1504635 93.5035025,41.5567847 93.3924643,41.9611406 C93.2833914,42.3674618 93.1792317,42.7742744 93.0824417,43.179613 C93.0372404,43.3471529 92.9448723,43.4876703 92.8033723,43.5972345 C92.6618723,43.7063074 92.5080893,43.7628092 92.3405493,43.7628092 C92.1111031,43.7628092 91.9268583,43.6822328 91.7912541,43.5250106 C91.654176,43.3643491 91.5849,43.1845262 91.5849,42.9816112 C91.5849,42.9197049 91.5947263,42.8676251 91.6119225,42.822915 L92.6648202,38.6982879 L93.7167352,34.5746435 C93.7874852,34.3805723 93.8936102,34.2208935 94.0346189,34.0975723 C94.1766102,33.9747424 94.3303932,33.9123448 94.4979332,33.9123448 C94.6669471,33.9123448 94.8163082,33.9688466 94.9484732,34.0843066 C95.0806381,34.1992754 95.1685843,34.3314403 95.212803,34.4822754 L97.3569213,42.822915 C97.3662563,42.8494463 97.3731348,42.8764688 97.3775567,42.9025088 C97.3814872,42.9285487 97.3844352,42.9639237 97.3844352,43.0081425 C97.3844352,43.2017223 97.3156504,43.3771234 97.1785723,43.5313977 C97.0424768,43.6846894 96.8601973,43.7628092 96.6297684,43.7628092 C96.4705809,43.7628092 96.3187632,43.7063074 96.1733326,43.5972345 C96.0274107,43.4876703 95.9320948,43.3471529 95.8888586,43.179613 L95.5768708,41.9611406 L95.2653742,40.7446336 L94.882145,39.2353001 L94.7686502,38.8235744 L94.4714019,37.7122097 C94.4011432,37.9681872 94.0871901,39.2353001 94.0871901,39.2353001 L93.7039609,40.7446336 Z" id="Shape" fill="#343534"/>
                    <g id="Group-57" transform="translate(90.894105, 46.089030)" fill="#343534">
                        <path d="M1.64574467,2.79173489 C1.74308638,2.38200899 1.86015092,1.9665571 1.98993988,1.56255718 L2.47028624,0.0795275436 L3.14849713,0.0795275436 L1.93840603,3.61691268 L1.71700135,4.33902278 C1.47714627,5.10757696 1.04706132,5.30289661 0.31986146,5.00323682 L0.42929136,4.48408102 C0.70222989,4.58778494 0.982166843,4.63868256 1.13804083,4.1583362 L1.2996408,3.61182292 L0.117543389,0.0795275436 L0.819930654,0.0795275436 L1.29455103,1.59500441 L1.64574467,2.79173489 Z" id="Shape"/>
                        <path d="M5.27792664,4.52034558 C5.8301659,4.52034558 6.08401782,4.30084956 6.08401782,3.63027331 L6.08401782,2.63522469 C6.08401782,2.01109252 5.8301659,1.84949255 5.32246206,1.84949255 C4.79567161,1.86794294 4.49728427,2.09634605 4.49728427,2.84390496 L4.49728427,3.66335677 C4.49728427,4.31484641 4.72441494,4.52034558 5.27792664,4.52034558 Z M3.87251589,1.29025487 L4.39294413,1.29025487 L4.47119924,1.78968784 C4.5889,1.45758082 4.97190465,1.26989582 5.41471401,1.26989582 C6.17563355,1.26989582 6.702424,1.61536347 6.702424,2.64158689 L6.702424,3.64427016 C6.702424,4.6711298 6.21507921,5.11966515 5.41471401,5.11966515 C5.00435189,5.11966515 4.70532833,5.0617691 4.49792049,4.78755813 L4.49792049,6.37556412 L3.87251589,6.37556412 L3.87251589,1.29025487 Z" id="Shape"/>
                        <path d="M8.88911334,1.88193979 C8.48574964,1.88193979 8.30379062,1.94810671 8.30379062,2.37055702 L8.30379062,2.5919617 C8.30379062,3.02777264 8.48574964,3.13211278 8.88911334,3.13211278 L9.61758564,3.13211278 L9.61758564,1.88193979 L8.88911334,1.88193979 Z M7.68665688,2.34828931 C7.68665688,1.59182331 8.1873623,1.319521 8.8503039,1.319521 L10.2487162,1.319521 L10.2487162,5.09676122 L9.61822186,5.09676122 L9.61822186,3.69898511 L9.0659826,3.69898511 L8.25861897,5.09676122 L7.5371451,5.09676122 L8.42785359,3.63472685 C7.95259699,3.51066389 7.68665688,3.18619151 7.68665688,2.60786721 L7.68665688,2.34828931 Z" id="Shape"/>
                        <path d="M13.4043692,4.51589204 L13.4043692,1.88893822 L12.4023221,1.88893822 L12.3832355,2.77264828 C12.3832355,3.15628915 12.3450623,3.54629223 12.2470843,3.9362953 C12.1828261,4.1646984 12.0772135,4.34538498 11.9404261,4.51589204 L13.4043692,4.51589204 Z M11.2195885,4.51843692 C11.4530813,4.32311727 11.5771443,4.06226693 11.6617616,3.78423864 C11.7387443,3.47121822 11.7597396,3.10666396 11.7597396,2.77519316 L11.798549,1.31188636 L14.0157769,1.31188636 L14.0157769,4.51843692 L14.4579501,4.51843692 L14.4579501,5.8061469 L13.8732636,5.8061469 L13.8732636,5.09103523 L11.5383349,5.09103523 L11.5383349,5.8061469 L10.9530122,5.8061469 L10.9530122,4.51843692 L11.2195885,4.51843692 Z" id="Shape"/>
                        <path d="M17.3756566,3.7142544 L17.3756566,2.62822626 C17.3756566,1.93919962 17.082359,1.80177603 16.5702016,1.80177603 C16.0548631,1.80177603 15.7634742,1.93919962 15.7634742,2.62822626 L15.7634742,3.7142544 C15.7634742,4.40264482 16.0166899,4.62468572 16.5702016,4.62468572 C17.1427999,4.62468572 17.3756566,4.40264482 17.3756566,3.7142544 Z M15.1444318,3.71298196 L15.1444318,2.62759004 C15.1444318,1.61981701 15.6915813,1.2476281 16.5708378,1.2476281 C17.4469133,1.2476281 17.9940628,1.61981701 17.9940628,2.62759004 L17.9940628,3.71298196 C17.9940628,4.74684002 17.5786109,5.16292813 16.5708378,5.16292813 C15.5414333,5.16292813 15.1444318,4.74684002 15.1444318,3.71298196 Z" id="Shape"/>
                        <path d="M20.2978166,4.53116133 C20.8506921,4.53116133 21.0199267,4.31802751 21.0199267,3.9394764 C21.0199267,3.48521507 20.7209032,3.34715526 20.3035426,3.34715526 L19.5680719,3.34715526 L19.5680719,4.53116133 L20.2978166,4.53116133 Z M19.5566199,1.86603428 L19.5566199,2.82736323 L20.2984529,2.82736323 C20.6241977,2.82736323 20.8316055,2.66003728 20.8316055,2.34828931 C20.8316055,2.02063583 20.6038386,1.86603428 20.2850922,1.86603428 L19.5566199,1.86603428 Z M18.9522106,1.31188636 L20.2850922,1.31188636 C20.9028622,1.31188636 21.442377,1.61090992 21.442377,2.28784837 C21.442377,2.64476799 21.3443991,2.88653172 21.0008401,3.03604351 C21.4099298,3.17855686 21.6383329,3.50939145 21.6383329,3.94647482 C21.6383329,4.79710143 21.0790952,5.09548878 20.2780938,5.09548878 L18.9522106,5.09548878 L18.9522106,1.31188636 Z" id="Shape"/>
                        <path d="M23.7098664,3.48139775 C23.2867798,3.5736497 23.0653752,3.77469533 23.111183,4.14561179 C23.1372681,4.44463536 23.4032082,4.54134085 23.6831451,4.54134085 C24.3658096,4.54134085 24.5674914,4.04063544 24.586578,3.41713949 C24.4128899,3.41713949 24.0343387,3.41077729 23.7098664,3.48139775 Z M25.1979858,5.09994232 L24.6387481,5.09994232 L24.586578,4.58842116 C24.4497906,4.86835811 24.0795104,5.13302578 23.6182506,5.13302578 C22.7466288,5.13302578 22.5309501,4.67176602 22.4857784,4.22323068 C22.4202477,3.55265443 22.8776902,3.0703994 23.6564239,2.96160572 C23.9567199,2.91579786 24.2741938,2.90879944 24.5744898,2.90243723 L24.5744898,2.53215699 C24.5744898,2.10334447 24.424978,1.82340752 23.8517435,1.82340752 C23.4941877,1.82340752 23.2479704,1.94683427 23.2536964,2.45962787 L22.6486508,2.45962787 C22.623202,1.61536347 23.0653752,1.25780763 23.8708301,1.25780763 C24.7030063,1.25780763 25.1979858,1.60963748 25.1979858,2.53215699 L25.1979858,5.09994232 Z" id="Shape"/>
                        <polygon id="Shape" points="3.23375066 7.84332446 3.23375066 11.6212009 2.61534448 11.6212009 2.61534448 8.42164876 1.03370069 8.42164876 1.03370069 11.6212009 0.424201597 11.6212009 0.424201597 7.84332446"/>
                        <path d="M5.70164939,11.0486026 C6.25452488,11.0486026 6.50710435,10.8265617 6.50710435,10.1578941 L6.50710435,9.16220925 C6.50710435,8.5387133 6.25452488,8.37584089 5.74682104,8.37584089 C5.22003059,8.39556373 4.9203708,8.62142195 4.9203708,9.37152574 L4.9203708,10.1890689 C4.9203708,10.8411947 5.14750147,11.0486026 5.70164939,11.0486026 Z M4.29623864,7.81660321 L4.81666689,7.81660321 L4.89555821,8.31858106 C5.01198653,7.9852016 5.39626362,7.79624416 5.83716433,7.79624416 C6.5993563,7.79624416 7.12551053,8.14043937 7.12551053,9.16920767 L7.12551053,10.1706185 C7.12551053,11.200023 6.63816575,11.6485584 5.83716433,11.6485584 C5.42871086,11.6485584 5.12905108,11.5887537 4.92100702,11.3151789 L4.92100702,12.9019125 L4.29623864,12.9019125 L4.29623864,7.81660321 Z" id="Shape"/>
                        <path d="M10.3530564,10.241239 L10.3530564,9.15393838 C10.3530564,8.46491174 10.0610312,8.32748815 9.5476014,8.32748815 C9.03289914,8.32748815 8.740874,8.46491174 8.740874,9.15393838 L8.740874,10.241239 C8.740874,10.9302656 8.99472592,11.1516703 9.5476014,11.1516703 C10.1195635,11.1516703 10.3530564,10.9302656 10.3530564,10.241239 Z M8.12246782,10.2406027 L8.12246782,9.15330216 C8.12246782,8.14298425 8.6689811,7.77397644 9.5476014,7.77397644 C10.4255855,7.77397644 10.9708263,8.14298425 10.9708263,9.15330216 L10.9708263,10.2406027 C10.9708263,11.2725521 10.5553744,11.6892765 9.5476014,11.6892765 C8.51946932,11.6892765 8.12246782,11.2725521 8.12246782,10.2406027 Z" id="Shape"/>
                        <polygon id="Shape" points="11.9684198 11.6231096 11.9684198 7.8382347 13.9846021 7.8382347 13.9846021 8.41719522 12.5734654 8.41719522 12.5734654 11.6231096"/>
                        <path d="M16.2170993,11.0486026 C16.7699748,11.0486026 17.0238267,10.8265617 17.0238267,10.1578941 L17.0238267,9.16220925 C17.0238267,8.5387133 16.7699748,8.37584089 16.2629072,8.37584089 C15.736753,8.39556373 15.4377294,8.62142195 15.4377294,9.37152574 L15.4377294,10.1890689 C15.4377294,10.8411947 15.6642238,11.0486026 16.2170993,11.0486026 Z M14.8116886,7.81660321 L15.3314806,7.81660321 L15.4110081,8.31858106 C15.5274365,7.9852016 15.9110773,7.79624416 16.351978,7.79624416 C17.11417,7.79624416 17.6409605,8.14043937 17.6409605,9.16920767 L17.6409605,10.1706185 C17.6409605,11.200023 17.1536157,11.6485584 16.351978,11.6485584 C15.9441608,11.6485584 15.6438648,11.5887537 15.4370932,11.3151789 L15.4370932,12.9019125 L14.8116886,12.9019125 L14.8116886,7.81660321 Z" id="Shape"/>
                        <path d="M19.82256,10.0013839 C19.3994735,10.0923634 19.178705,10.2927728 19.2238767,10.6643255 C19.2493255,10.9633491 19.5159018,11.061327 19.7958388,11.061327 C20.4791394,11.061327 20.6814575,10.5606216 20.7005441,9.93585319 C20.5243111,9.93585319 20.1476686,9.92885477 19.82256,10.0013839 Z M21.3119519,11.6199285 L20.752078,11.6199285 L20.7005441,11.1064986 C20.5637567,11.3864356 20.1928403,11.6530119 19.7315805,11.6530119 C18.8599586,11.6530119 18.64428,11.1911159 18.6003807,10.7413082 C18.5342138,10.0726406 18.9903838,9.59165798 19.7710262,9.48095564 C20.070686,9.43451156 20.3881599,9.42878557 20.6871835,9.42178715 L20.6871835,9.05087068 C20.6871835,8.62078573 20.5370355,8.34339366 19.9650734,8.34339366 C19.6075176,8.34339366 19.3606641,8.46618418 19.36639,8.97961401 L18.7619807,8.97961401 C18.7371681,8.13407716 19.178705,7.77652133 19.9854324,7.77652133 C20.8182449,7.77652133 21.3119519,8.12707874 21.3119519,9.05087068 L21.3119519,11.6199285 Z" id="Shape"/>
                        <polygon id="Shape" points="24.9180488 7.84332446 25.6974187 7.84332446 25.6974187 11.6212009 25.086011 11.6212009 25.086011 10.2495098 25.0930094 8.93507858 24.2481088 10.9512609 23.8313845 10.9512609 22.9858476 8.93507858 22.9922098 10.2495098 22.9922098 11.6212009 22.3801658 11.6212009 22.3801658 7.84332446 23.1614444 7.84332446 23.674238 9.09095257 24.0400647 10.0401933 24.4097088 9.09095257"/>
                        <path d="M27.8402089,10.0013839 C27.4177586,10.0923634 27.1976263,10.2927728 27.2408893,10.6643255 C27.2676106,10.9633491 27.5348231,11.061327 27.8141238,11.061327 C28.4961521,11.061327 28.6984701,10.5606216 28.718193,9.93585319 C28.5432324,9.93585319 28.1646813,9.92885477 27.8402089,10.0013839 Z M29.3296007,11.6199285 L28.770363,11.6199285 L28.7188292,11.1064986 C28.5820418,11.3864356 28.2111253,11.6530119 27.7492294,11.6530119 C26.8776075,11.6530119 26.6632012,11.1911159 26.6161209,10.7413082 C26.5531351,10.0726406 27.0073964,9.59165798 27.7880388,9.48095564 C28.0870624,9.43451156 28.4058088,9.42878557 28.7061048,9.42178715 L28.7061048,9.05087068 C28.7061048,8.62078573 28.5559568,8.34339366 27.9839947,8.34339366 C27.6258026,8.34339366 27.3783129,8.46618418 27.3853113,8.97961401 L26.7796296,8.97961401 C26.7541807,8.13407716 27.1982625,7.77652133 28.0024451,7.77652133 C28.8358937,7.77652133 29.3296007,8.12707874 29.3296007,9.05087068 L29.3296007,11.6199285 Z" id="Shape"/>
                    </g>
                    <path d="M77.7970012,24.3940124 C76.7332946,25.7446497 75.3286122,28.4090753 75.3802007,33.0215826 C75.3954316,34.3471626 76.1161973,34.6950168 77.7970012,34.7603623 L77.7970012,24.3940124 Z M71.5665789,40.5731631 L77.7960186,40.5731631 L77.7960186,36.2760829 C73.8890461,36.4342877 71.7970077,37.8777844 71.5665789,40.5731631 Z M78.5423329,42.0672656 L70.7991378,42.0672656 C70.3874121,42.0672656 70.0533148,41.7336597 70.0533148,41.3209513 L70.0533148,41.0905225 C70.0533148,39.2244911 70.7426361,36.3576419 74.6844923,35.2408727 C74.2123343,34.7633102 73.8998551,34.0641625 73.8885547,33.0377961 C73.7961867,24.9231635 77.9576627,22.1118334 78.1345377,21.9968647 C78.3644753,21.8470122 78.656319,21.8347292 78.8965743,21.9644376 C79.1373208,22.0951286 79.2881559,22.3466841 79.2881559,22.6208404 L79.2881559,41.3209513 C79.2881559,41.7336597 78.9540586,42.0672656 78.5423329,42.0672656 Z" id="Shape" fill="#343534"/>
                    <path d="M63.8032397,24.3940124 L63.8032397,34.7588883 C65.4835523,34.6940341 66.2048093,34.3451973 66.2200402,33.0206 C66.2716288,28.4100579 64.867929,25.7461237 63.8032397,24.3940124 Z M63.8032397,40.5726718 L70.0331707,40.5726718 C69.8022506,37.8777844 67.7107035,36.4342877 63.8032397,36.2760829 L63.8032397,40.5726718 Z M70.7991378,42.0667743 L63.0574167,42.0667743 C62.6447083,42.0667743 62.3111024,41.7331684 62.3111024,41.3209513 L62.3111024,22.6203491 C62.3111024,22.3466841 62.4614462,22.0946372 62.702684,21.9649289 C62.9424479,21.8347292 63.2357657,21.8470122 63.4652119,21.9963734 C63.6425782,22.1113421 67.8030716,24.9231635 67.7111949,33.0377961 C67.6979292,34.0641625 67.386924,34.7628189 66.9152573,35.2403814 C70.8566222,36.3576419 71.5459434,39.2244911 71.5459434,41.0900312 L71.5459434,41.3209513 C71.5459434,41.7331684 71.2123375,42.0667743 70.7991378,42.0667743 Z" id="Shape" fill="#343534"/>
                    <path d="M70.8359868,46.1363736 C70.4031343,46.1393215 70.0616673,45.8076809 70.0616673,45.3900593 C70.0616673,44.9719464 70.3824989,44.6432537 70.817808,44.6442363 C71.217742,44.6442363 71.785216,44.6373579 72.2691657,44.240863 C72.9344123,43.6940245 73.2866884,42.5050313 73.2866884,40.8050659 C73.2866884,38.9174164 72.6946484,37.6335986 72.009749,36.1473572 C71.0924555,34.1575132 70.0533148,31.9028481 70.0533148,27.7064884 L70.0533148,20.2615243 C70.0533148,19.8497985 70.3869208,19.5166839 70.7986465,19.5166839 C71.2118462,19.5166839 71.5449608,19.8497985 71.5449608,20.2615243 L71.5449608,27.7064884 C71.5449608,31.5746467 72.5113862,33.6730722 73.3638255,35.5233814 C74.0909784,37.1014996 74.7773517,38.5897063 74.7773517,40.8050659 C74.7773517,42.9983161 74.2521312,44.5420419 73.2159384,45.3930072 C72.3237022,46.1265472 71.3282889,46.1363736 70.8359868,46.1363736 Z" id="Shape" fill="#343534"/>
                    <path d="M70.7789937,46.1363736 C70.2699867,46.1363736 69.2745735,46.1265472 68.3828286,45.3930072 C67.3451618,44.5420419 66.8204326,42.9983161 66.8204326,40.8050659 C66.8204326,38.5897063 67.5068059,37.1014996 68.2339588,35.5233814 C69.0873807,33.6730722 70.0528235,31.5746467 70.0528235,27.7064884 L70.0528235,20.2615243 C70.0528235,19.8497985 70.3869208,19.5166839 70.7986465,19.5166839 C71.2118462,19.5166839 71.5444695,19.8497985 71.5444695,20.2615243 L71.5444695,27.7064884 C71.5444695,31.9028481 70.5053288,34.1575132 69.5890179,36.1473572 C68.9031359,37.6335986 68.3115873,38.9174164 68.3115873,40.8050659 C68.3115873,42.5050313 68.663372,43.6940245 69.3296012,44.240863 C69.561504,44.4305124 69.812077,44.5317242 70.0528235,44.5842954 L70.0528235,41.32046 C70.0528235,40.9106996 70.3869208,40.5751284 70.7986465,40.5751284 C71.2118462,40.5751284 71.5444695,40.9106996 71.5444695,41.32046 L71.5444695,45.3900593 C71.5444695,45.8086635 71.2079156,46.1427608 70.7789937,46.1363736 Z" id="Shape" fill="#343534"/>
                    <path d="M85.4895904,59.4088782 C85.0773734,59.4088782 84.7437674,59.0747809 84.7437674,58.6630552 L84.7437674,21.9821251 C84.7437674,21.5703994 85.0773734,21.2363021 85.4895904,21.2363021 C85.9008248,21.2363021 86.2349221,21.5703994 86.2349221,21.9821251 L86.2349221,58.6630552 C86.2349221,59.0747809 85.9008248,59.4088782 85.4895904,59.4088782 Z" id="Shape" fill="#343534"/>
                    <path d="M96.3703517,29.6668532 L93.5894835,29.6668532 L93.5894835,23.9871999 C93.5894835,23.7837936 93.6356675,23.6079013 93.7280356,23.4575575 C93.8204036,23.3081964 93.9451988,23.1838925 94.0984904,23.0866113 C94.2537474,22.9903127 94.4262005,22.9171061 94.6148672,22.8684654 C94.8054992,22.8203161 94.9976051,22.7957502 95.1916763,22.7957502 C95.3754298,22.7957502 96.2283604,22.7760974 96.3703517,22.8021373 L96.3703517,29.6668532 Z M98.8048398,29.9159521 C98.6810273,29.7749434 98.5085741,29.6914191 98.2874804,29.6648879 L97.8924595,29.6648879 L97.8924595,23.1239516 C97.8924595,21.4780313 97.1505671,21.2716771 96.0274107,21.297717 C95.6908569,21.3055782 95.2093638,21.297717 94.9794263,21.297717 C94.5917752,21.297717 94.2237769,21.3620799 93.8744488,21.4903143 C93.5256119,21.6180573 93.2190286,21.8003369 92.9546987,22.0391181 C92.6888948,22.2774081 92.4791014,22.5618821 92.3253184,22.8930314 C92.1700615,23.2246721 92.0934156,23.5882485 92.0934156,23.9857259 L92.0934156,29.6648879 L91.7175562,29.6648879 C91.4964625,29.6914191 91.3240093,29.7749434 91.2006881,29.9159521 C91.0773669,30.0574521 91.0149694,30.2117265 91.0149694,30.3792664 L91.0149694,31.742678 C91.0149694,31.9215183 91.2114971,32.285586 91.7327871,32.285586 C92.1749747,32.285586 92.5321639,32.0458221 92.5321639,31.742678 L92.5321639,31.1471988 L97.4723813,31.1471988 L97.4723813,31.742678 C97.4723813,32.0458221 97.8300619,32.285586 98.2727408,32.285586 C98.7930481,32.285586 98.9900672,31.9215183 98.9900672,31.742678 L98.9900672,30.3792664 C98.9900672,30.2117265 98.9271783,30.0574521 98.8048398,29.9159521 Z" id="Shape" fill="#343534"/>
                </g>
            </g>
        </g>
    </g>
    </symbol>
</svg>