<svg version="1.1" xmlns="http://www.w3.org/2000/svg" xmlns:xlink="http://www.w3.org/1999/xlink">
    <symbol id="garantee" viewBox="0 0 318 301">
        <defs>
            <polygon id="path-1" points="52.6747289 1.69613427e-14 3.01204818e-05 1.69613427e-14 3.01204818e-05 64.4515532 52.6747289 64.4515532 52.6747289 0"/>
            <polygon id="path-3" points="52.6747289 1.69613427e-14 3.01204818e-05 1.69613427e-14 3.01204818e-05 64.4515532 52.6747289 64.4515532 52.6747289 0"/>
            <polygon id="path-5" points="52.6747289 1.69613427e-14 3.01204818e-05 1.69613427e-14 3.01204818e-05 64.4515532 52.6747289 64.4515532 52.6747289 0"/>
            <polygon id="path-7" points="61.2856877 150.755993 0 150.755993 0 0 61.2856877 0 122.571375 0 122.571375 150.755993 61.2856877 150.755993"/>
        </defs>
        <g id="Symbols" stroke="none" stroke-width="1" fill="none" fill-rule="evenodd">
            <g id="Artboard-5">
                <g id="Page-1" transform="translate(51.000000, 227.000000)">
                    <g id="Group-3">
                        <mask id="mask-2" fill="white">
                            <use xlink:href="#path-1"/>
                        </mask>
                        <g id="Clip-2"/>
                        <path d="M36.7506325,37.6551984 C34.2373795,38.6923919 31.3530422,38.6923919 28.8397892,37.6551984 C23.1915964,35.3241984 19.5421988,29.9007145 19.5421988,23.8398758 L19.5421988,20.2783274 C28.914488,20.0897468 36.1699096,17.7575532 38.4976205,16.9161016 C39.5938554,17.9582185 42.1265361,19.8977347 46.0482229,20.2390895 L46.0482229,23.8398758 C46.0482229,29.9007145 42.3986747,35.3241984 36.7506325,37.6551984 L36.7506325,37.6551984 Z M45.1530422,43.5622185 L46.1036446,46.9541339 L41.5494277,48.3947468 L45.8217169,52.626025 L38.620512,62.0644565 L35.3819578,62.0644565 L40.8866265,40.2523597 L45.1530422,43.5622185 Z M32.8988253,62.0644565 L32.6915964,62.0644565 L26.9747289,39.4121016 C27.2855723,39.5624887 27.5891867,39.7248113 27.9120783,39.8574444 C29.4638855,40.4994242 31.1289458,40.8192952 32.7952108,40.8192952 C34.4602711,40.8192952 36.1265361,40.4983798 37.6783434,39.8574444 C38.0012349,39.7236177 38.3048494,39.5624887 38.6156928,39.4121016 L32.8988253,62.0644565 Z M27.1301506,62.0644565 L19.9301506,52.626025 L24.2024398,48.3937024 L19.6470181,46.9541339 L20.5988253,43.5622185 L24.7313554,40.3573919 L30.2096687,62.0644565 L27.1301506,62.0644565 Z M2.93978916,62.0644565 L4.79400602,52.8802508 C5.57713855,48.9986823 8.74942771,45.9361863 12.6855723,45.2569081 L17.8735241,44.3629403 L16.7060542,48.5297669 L19.7012349,49.4772952 L16.7446084,52.4062629 L24.1096687,62.0644565 L2.93978916,62.0644565 Z M17.1325602,17.9031661 C17.1325602,9.34781129 24.1590663,2.3870371 32.7952108,2.3870371 C41.4313554,2.3870371 48.4578614,9.34781129 48.4578614,17.9031661 L47.2530422,17.9031661 C42.3831627,17.9031661 39.8637349,14.8967669 39.7626807,14.7736823 L39.1976205,14.0718758 L38.3602711,14.4120371 C38.2747289,14.44665 29.6554518,17.9031661 18.3373795,17.9031661 L17.1325602,17.9031661 Z M15.927741,23.8709081 C15.927741,22.7060048 16.4048494,21.6785089 17.1325602,21.0242952 L17.1325602,23.8398758 C17.1325602,24.8973597 17.2397892,25.9345532 17.4241265,26.9478758 C16.5337651,26.3249927 15.927741,25.1861984 15.927741,23.8709081 L15.927741,23.8709081 Z M50.2650904,23.8709081 C50.2650904,25.4929403 49.3482229,26.8500048 48.1012349,27.2893798 C48.3287952,26.1684887 48.4578614,25.015521 48.4578614,23.8398758 L48.4578614,20.5935734 C49.520512,21.1473798 50.2650904,22.4064242 50.2650904,23.8709081 L50.2650904,23.8709081 Z M47.3819578,29.8243274 C50.3108735,29.7467468 52.6747289,27.1125855 52.6747289,23.8709081 C52.6747289,22.114154 51.9687048,20.5480694 50.8675,19.4561218 L50.8675,17.9031661 C50.8675,8.03132742 42.7602711,-5.96774189e-05 32.7952108,-5.96774189e-05 C22.8301506,-5.96774189e-05 14.7229217,8.03132742 14.7229217,17.9031661 L14.7229217,20.1661339 C13.980753,21.1879605 13.5181024,22.4650573 13.5181024,23.8709081 C13.5181024,26.8762629 15.554247,29.3457145 18.1843675,29.7551016 C19.3446084,32.9359081 21.4361747,35.7073274 24.1952108,37.7423274 L19.0373795,41.7408637 L12.2711145,42.9056177 C7.36268072,43.7518435 3.40725904,47.5725411 2.4301506,52.4122306 L3.01204818e-05,64.4515532 L25.9289458,64.4515532 L31.7506325,64.4515532 L34.0000301,64.4515532 L39.820512,64.4515532 L46.0482229,64.4515532 L46.0482229,62.0644565 L41.640994,62.0644565 L45.7280422,56.4276258 L46.0504819,49.4761016 L49.0446084,48.5297669 L47.8867771,44.3915855 L49.9084639,44.7401016 L50.320512,42.3877669 L46.7602711,41.7741339 L41.4771386,37.6778758 C44.1745783,35.6657024 46.227741,32.9442629 47.3819578,29.8243274 L47.3819578,29.8243274 Z" id="Fill-1" fill="#199ED8" mask="url(#mask-2)"/>
                    </g>
                    <path d="M53.7870181,46.5483871 C49.0775301,48.6860323 46.0481627,53.3441532 46.0481627,58.483871 C46.0481627,65.7231895 51.993494,71.6129032 59.3011747,71.6129032 C66.609006,71.6129032 72.5541867,65.7231895 72.5541867,58.483871 C72.5541867,53.344004 69.5245181,48.6858831 64.8142771,46.5483871 L53.7870181,46.5483871 Z M59.3011747,74 C50.6648795,74 43.6385241,67.0395242 43.6385241,58.483871 C43.6385241,52.313375 47.3321988,46.7305524 53.0484639,44.2608024 L53.2787349,44.1612903 L65.3224096,44.1612903 L65.5526807,44.2608024 C71.2696988,46.730254 74.9638253,52.3130766 74.9638253,58.483871 C74.9638253,67.0395242 67.9376205,74 59.3011747,74 L59.3011747,74 Z" id="Fill-4" fill="#199ED8"/>
                    <path d="M52.7171988,40.5806452 L64.6804518,40.5806452 L65.3720181,39.552254 C66.1298494,38.4265887 66.5301506,37.1169677 66.5301506,35.7646774 L66.5301506,32.8225806 C66.5301506,32.4934597 66.2599699,32.2258065 65.927741,32.2258065 C65.595512,32.2258065 65.3253313,32.4934597 65.3253313,32.8225806 L65.3253313,34.016129 C65.3253313,35.6614355 63.9741265,37 62.3132831,37 C60.6522892,37 59.3012349,35.6614355 59.3012349,34.016129 L59.3012349,32.8225806 C59.3012349,32.4934597 59.0310542,32.2258065 58.6988253,32.2258065 C58.3665964,32.2258065 58.0964157,32.4934597 58.0964157,32.8225806 L58.0964157,34.016129 C58.0964157,35.6614355 56.7452108,37 55.0843675,37 C53.4233735,37 52.0723193,35.6614355 52.0723193,34.016129 L52.0723193,32.8225806 C52.0723193,32.4934597 51.8021386,32.2258065 51.4699096,32.2258065 C51.1376807,32.2258065 50.8675,32.4934597 50.8675,32.8225806 L50.8675,35.7646774 C50.8675,37.1169677 51.2678012,38.4265887 52.0253313,39.5521048 L52.7171988,40.5806452 Z M65.9702108,42.9677419 L51.4274398,42.9677419 L50.0203614,40.8760484 C48.9982229,39.3574073 48.4578614,37.5897621 48.4578614,35.7646774 L48.4578614,32.8225806 C48.4578614,31.1772742 49.8089157,29.8387097 51.4699096,29.8387097 C53.130753,29.8387097 54.4819578,31.1772742 54.4819578,32.8225806 L54.4819578,34.016129 C54.4819578,34.34525 54.7521386,34.6129032 55.0843675,34.6129032 C55.4165964,34.6129032 55.6867771,34.34525 55.6867771,34.016129 L55.6867771,32.8225806 C55.6867771,31.1772742 57.0378313,29.8387097 58.6988253,29.8387097 C60.3596687,29.8387097 61.7108735,31.1772742 61.7108735,32.8225806 L61.7108735,34.016129 C61.7108735,34.34525 61.9810542,34.6129032 62.3132831,34.6129032 C62.645512,34.6129032 62.9156928,34.34525 62.9156928,34.016129 L62.9156928,32.8225806 C62.9156928,31.1772742 64.266747,29.8387097 65.927741,29.8387097 C67.5885843,29.8387097 68.9397892,31.1772742 68.9397892,32.8225806 L68.9397892,35.7646774 C68.9397892,37.5897621 68.3994277,39.3574073 67.3771386,40.8761976 L65.9702108,42.9677419 Z" id="Fill-6" fill="#199ED8"/>
                    <path d="M51.4698795,42.9677419 C51.1385542,42.9677419 50.8674699,43.2362903 50.8674699,43.5645161 C50.8674699,43.8927419 51.1385542,44.1612903 51.4698795,44.1612903 L67.1325301,44.1612903 C67.4638554,44.1612903 67.7349398,43.8927419 67.7349398,43.5645161 C67.7349398,43.2362903 67.4638554,42.9677419 67.1325301,42.9677419 L51.4698795,42.9677419 Z M67.1325301,46.5483871 L51.4698795,46.5483871 C49.8084337,46.5483871 48.4578313,45.2104194 48.4578313,43.5645161 C48.4578313,41.9186129 49.8084337,40.5806452 51.4698795,40.5806452 L67.1325301,40.5806452 C68.7939759,40.5806452 70.1445783,41.9186129 70.1445783,43.5645161 C70.1445783,45.2104194 68.7939759,46.5483871 67.1325301,46.5483871 L67.1325301,46.5483871 Z" id="Fill-8" fill="#199ED8"/>
                </g>
                <g id="Page-1" transform="translate(0.000000, 111.000000)">
                    <g id="Group-3">
                        <mask id="mask-4" fill="white">
                            <use xlink:href="#path-3"/>
                        </mask>
                        <g id="Clip-2"/>
                        <path d="M36.7506325,37.6551984 C34.2373795,38.6923919 31.3530422,38.6923919 28.8397892,37.6551984 C23.1915964,35.3241984 19.5421988,29.9007145 19.5421988,23.8398758 L19.5421988,20.2783274 C28.914488,20.0897468 36.1699096,17.7575532 38.4976205,16.9161016 C39.5938554,17.9582185 42.1265361,19.8977347 46.0482229,20.2390895 L46.0482229,23.8398758 C46.0482229,29.9007145 42.3986747,35.3241984 36.7506325,37.6551984 L36.7506325,37.6551984 Z M45.1530422,43.5622185 L46.1036446,46.9541339 L41.5494277,48.3947468 L45.8217169,52.626025 L38.620512,62.0644565 L35.3819578,62.0644565 L40.8866265,40.2523597 L45.1530422,43.5622185 Z M32.8988253,62.0644565 L32.6915964,62.0644565 L26.9747289,39.4121016 C27.2855723,39.5624887 27.5891867,39.7248113 27.9120783,39.8574444 C29.4638855,40.4994242 31.1289458,40.8192952 32.7952108,40.8192952 C34.4602711,40.8192952 36.1265361,40.4983798 37.6783434,39.8574444 C38.0012349,39.7236177 38.3048494,39.5624887 38.6156928,39.4121016 L32.8988253,62.0644565 Z M27.1301506,62.0644565 L19.9301506,52.626025 L24.2024398,48.3937024 L19.6470181,46.9541339 L20.5988253,43.5622185 L24.7313554,40.3573919 L30.2096687,62.0644565 L27.1301506,62.0644565 Z M2.93978916,62.0644565 L4.79400602,52.8802508 C5.57713855,48.9986823 8.74942771,45.9361863 12.6855723,45.2569081 L17.8735241,44.3629403 L16.7060542,48.5297669 L19.7012349,49.4772952 L16.7446084,52.4062629 L24.1096687,62.0644565 L2.93978916,62.0644565 Z M17.1325602,17.9031661 C17.1325602,9.34781129 24.1590663,2.3870371 32.7952108,2.3870371 C41.4313554,2.3870371 48.4578614,9.34781129 48.4578614,17.9031661 L47.2530422,17.9031661 C42.3831627,17.9031661 39.8637349,14.8967669 39.7626807,14.7736823 L39.1976205,14.0718758 L38.3602711,14.4120371 C38.2747289,14.44665 29.6554518,17.9031661 18.3373795,17.9031661 L17.1325602,17.9031661 Z M15.927741,23.8709081 C15.927741,22.7060048 16.4048494,21.6785089 17.1325602,21.0242952 L17.1325602,23.8398758 C17.1325602,24.8973597 17.2397892,25.9345532 17.4241265,26.9478758 C16.5337651,26.3249927 15.927741,25.1861984 15.927741,23.8709081 L15.927741,23.8709081 Z M50.2650904,23.8709081 C50.2650904,25.4929403 49.3482229,26.8500048 48.1012349,27.2893798 C48.3287952,26.1684887 48.4578614,25.015521 48.4578614,23.8398758 L48.4578614,20.5935734 C49.520512,21.1473798 50.2650904,22.4064242 50.2650904,23.8709081 L50.2650904,23.8709081 Z M47.3819578,29.8243274 C50.3108735,29.7467468 52.6747289,27.1125855 52.6747289,23.8709081 C52.6747289,22.114154 51.9687048,20.5480694 50.8675,19.4561218 L50.8675,17.9031661 C50.8675,8.03132742 42.7602711,-5.96774189e-05 32.7952108,-5.96774189e-05 C22.8301506,-5.96774189e-05 14.7229217,8.03132742 14.7229217,17.9031661 L14.7229217,20.1661339 C13.980753,21.1879605 13.5181024,22.4650573 13.5181024,23.8709081 C13.5181024,26.8762629 15.554247,29.3457145 18.1843675,29.7551016 C19.3446084,32.9359081 21.4361747,35.7073274 24.1952108,37.7423274 L19.0373795,41.7408637 L12.2711145,42.9056177 C7.36268072,43.7518435 3.40725904,47.5725411 2.4301506,52.4122306 L3.01204818e-05,64.4515532 L25.9289458,64.4515532 L31.7506325,64.4515532 L34.0000301,64.4515532 L39.820512,64.4515532 L46.0482229,64.4515532 L46.0482229,62.0644565 L41.640994,62.0644565 L45.7280422,56.4276258 L46.0504819,49.4761016 L49.0446084,48.5297669 L47.8867771,44.3915855 L49.9084639,44.7401016 L50.320512,42.3877669 L46.7602711,41.7741339 L41.4771386,37.6778758 C44.1745783,35.6657024 46.227741,32.9442629 47.3819578,29.8243274 L47.3819578,29.8243274 Z" id="Fill-1" fill="#199ED8" mask="url(#mask-4)"/>
                    </g>
                    <path d="M53.7870181,46.5483871 C49.0775301,48.6860323 46.0481627,53.3441532 46.0481627,58.483871 C46.0481627,65.7231895 51.993494,71.6129032 59.3011747,71.6129032 C66.609006,71.6129032 72.5541867,65.7231895 72.5541867,58.483871 C72.5541867,53.344004 69.5245181,48.6858831 64.8142771,46.5483871 L53.7870181,46.5483871 Z M59.3011747,74 C50.6648795,74 43.6385241,67.0395242 43.6385241,58.483871 C43.6385241,52.313375 47.3321988,46.7305524 53.0484639,44.2608024 L53.2787349,44.1612903 L65.3224096,44.1612903 L65.5526807,44.2608024 C71.2696988,46.730254 74.9638253,52.3130766 74.9638253,58.483871 C74.9638253,67.0395242 67.9376205,74 59.3011747,74 L59.3011747,74 Z" id="Fill-4" fill="#199ED8"/>
                    <path d="M52.7171988,40.5806452 L64.6804518,40.5806452 L65.3720181,39.552254 C66.1298494,38.4265887 66.5301506,37.1169677 66.5301506,35.7646774 L66.5301506,32.8225806 C66.5301506,32.4934597 66.2599699,32.2258065 65.927741,32.2258065 C65.595512,32.2258065 65.3253313,32.4934597 65.3253313,32.8225806 L65.3253313,34.016129 C65.3253313,35.6614355 63.9741265,37 62.3132831,37 C60.6522892,37 59.3012349,35.6614355 59.3012349,34.016129 L59.3012349,32.8225806 C59.3012349,32.4934597 59.0310542,32.2258065 58.6988253,32.2258065 C58.3665964,32.2258065 58.0964157,32.4934597 58.0964157,32.8225806 L58.0964157,34.016129 C58.0964157,35.6614355 56.7452108,37 55.0843675,37 C53.4233735,37 52.0723193,35.6614355 52.0723193,34.016129 L52.0723193,32.8225806 C52.0723193,32.4934597 51.8021386,32.2258065 51.4699096,32.2258065 C51.1376807,32.2258065 50.8675,32.4934597 50.8675,32.8225806 L50.8675,35.7646774 C50.8675,37.1169677 51.2678012,38.4265887 52.0253313,39.5521048 L52.7171988,40.5806452 Z M65.9702108,42.9677419 L51.4274398,42.9677419 L50.0203614,40.8760484 C48.9982229,39.3574073 48.4578614,37.5897621 48.4578614,35.7646774 L48.4578614,32.8225806 C48.4578614,31.1772742 49.8089157,29.8387097 51.4699096,29.8387097 C53.130753,29.8387097 54.4819578,31.1772742 54.4819578,32.8225806 L54.4819578,34.016129 C54.4819578,34.34525 54.7521386,34.6129032 55.0843675,34.6129032 C55.4165964,34.6129032 55.6867771,34.34525 55.6867771,34.016129 L55.6867771,32.8225806 C55.6867771,31.1772742 57.0378313,29.8387097 58.6988253,29.8387097 C60.3596687,29.8387097 61.7108735,31.1772742 61.7108735,32.8225806 L61.7108735,34.016129 C61.7108735,34.34525 61.9810542,34.6129032 62.3132831,34.6129032 C62.645512,34.6129032 62.9156928,34.34525 62.9156928,34.016129 L62.9156928,32.8225806 C62.9156928,31.1772742 64.266747,29.8387097 65.927741,29.8387097 C67.5885843,29.8387097 68.9397892,31.1772742 68.9397892,32.8225806 L68.9397892,35.7646774 C68.9397892,37.5897621 68.3994277,39.3574073 67.3771386,40.8761976 L65.9702108,42.9677419 Z" id="Fill-6" fill="#199ED8"/>
                    <path d="M51.4698795,42.9677419 C51.1385542,42.9677419 50.8674699,43.2362903 50.8674699,43.5645161 C50.8674699,43.8927419 51.1385542,44.1612903 51.4698795,44.1612903 L67.1325301,44.1612903 C67.4638554,44.1612903 67.7349398,43.8927419 67.7349398,43.5645161 C67.7349398,43.2362903 67.4638554,42.9677419 67.1325301,42.9677419 L51.4698795,42.9677419 Z M67.1325301,46.5483871 L51.4698795,46.5483871 C49.8084337,46.5483871 48.4578313,45.2104194 48.4578313,43.5645161 C48.4578313,41.9186129 49.8084337,40.5806452 51.4698795,40.5806452 L67.1325301,40.5806452 C68.7939759,40.5806452 70.1445783,41.9186129 70.1445783,43.5645161 C70.1445783,45.2104194 68.7939759,46.5483871 67.1325301,46.5483871 L67.1325301,46.5483871 Z" id="Fill-8" fill="#199ED8"/>
                </g>
                <g id="Page-1" transform="translate(84.000000, 0.000000)">
                    <g id="Group-3">
                        <mask id="mask-6" fill="white">
                            <use xlink:href="#path-5"/>
                        </mask>
                        <g id="Clip-2"/>
                        <path d="M36.7506325,37.6551984 C34.2373795,38.6923919 31.3530422,38.6923919 28.8397892,37.6551984 C23.1915964,35.3241984 19.5421988,29.9007145 19.5421988,23.8398758 L19.5421988,20.2783274 C28.914488,20.0897468 36.1699096,17.7575532 38.4976205,16.9161016 C39.5938554,17.9582185 42.1265361,19.8977347 46.0482229,20.2390895 L46.0482229,23.8398758 C46.0482229,29.9007145 42.3986747,35.3241984 36.7506325,37.6551984 L36.7506325,37.6551984 Z M45.1530422,43.5622185 L46.1036446,46.9541339 L41.5494277,48.3947468 L45.8217169,52.626025 L38.620512,62.0644565 L35.3819578,62.0644565 L40.8866265,40.2523597 L45.1530422,43.5622185 Z M32.8988253,62.0644565 L32.6915964,62.0644565 L26.9747289,39.4121016 C27.2855723,39.5624887 27.5891867,39.7248113 27.9120783,39.8574444 C29.4638855,40.4994242 31.1289458,40.8192952 32.7952108,40.8192952 C34.4602711,40.8192952 36.1265361,40.4983798 37.6783434,39.8574444 C38.0012349,39.7236177 38.3048494,39.5624887 38.6156928,39.4121016 L32.8988253,62.0644565 Z M27.1301506,62.0644565 L19.9301506,52.626025 L24.2024398,48.3937024 L19.6470181,46.9541339 L20.5988253,43.5622185 L24.7313554,40.3573919 L30.2096687,62.0644565 L27.1301506,62.0644565 Z M2.93978916,62.0644565 L4.79400602,52.8802508 C5.57713855,48.9986823 8.74942771,45.9361863 12.6855723,45.2569081 L17.8735241,44.3629403 L16.7060542,48.5297669 L19.7012349,49.4772952 L16.7446084,52.4062629 L24.1096687,62.0644565 L2.93978916,62.0644565 Z M17.1325602,17.9031661 C17.1325602,9.34781129 24.1590663,2.3870371 32.7952108,2.3870371 C41.4313554,2.3870371 48.4578614,9.34781129 48.4578614,17.9031661 L47.2530422,17.9031661 C42.3831627,17.9031661 39.8637349,14.8967669 39.7626807,14.7736823 L39.1976205,14.0718758 L38.3602711,14.4120371 C38.2747289,14.44665 29.6554518,17.9031661 18.3373795,17.9031661 L17.1325602,17.9031661 Z M15.927741,23.8709081 C15.927741,22.7060048 16.4048494,21.6785089 17.1325602,21.0242952 L17.1325602,23.8398758 C17.1325602,24.8973597 17.2397892,25.9345532 17.4241265,26.9478758 C16.5337651,26.3249927 15.927741,25.1861984 15.927741,23.8709081 L15.927741,23.8709081 Z M50.2650904,23.8709081 C50.2650904,25.4929403 49.3482229,26.8500048 48.1012349,27.2893798 C48.3287952,26.1684887 48.4578614,25.015521 48.4578614,23.8398758 L48.4578614,20.5935734 C49.520512,21.1473798 50.2650904,22.4064242 50.2650904,23.8709081 L50.2650904,23.8709081 Z M47.3819578,29.8243274 C50.3108735,29.7467468 52.6747289,27.1125855 52.6747289,23.8709081 C52.6747289,22.114154 51.9687048,20.5480694 50.8675,19.4561218 L50.8675,17.9031661 C50.8675,8.03132742 42.7602711,-5.96774189e-05 32.7952108,-5.96774189e-05 C22.8301506,-5.96774189e-05 14.7229217,8.03132742 14.7229217,17.9031661 L14.7229217,20.1661339 C13.980753,21.1879605 13.5181024,22.4650573 13.5181024,23.8709081 C13.5181024,26.8762629 15.554247,29.3457145 18.1843675,29.7551016 C19.3446084,32.9359081 21.4361747,35.7073274 24.1952108,37.7423274 L19.0373795,41.7408637 L12.2711145,42.9056177 C7.36268072,43.7518435 3.40725904,47.5725411 2.4301506,52.4122306 L3.01204818e-05,64.4515532 L25.9289458,64.4515532 L31.7506325,64.4515532 L34.0000301,64.4515532 L39.820512,64.4515532 L46.0482229,64.4515532 L46.0482229,62.0644565 L41.640994,62.0644565 L45.7280422,56.4276258 L46.0504819,49.4761016 L49.0446084,48.5297669 L47.8867771,44.3915855 L49.9084639,44.7401016 L50.320512,42.3877669 L46.7602711,41.7741339 L41.4771386,37.6778758 C44.1745783,35.6657024 46.227741,32.9442629 47.3819578,29.8243274 L47.3819578,29.8243274 Z" id="Fill-1" fill="#199ED8" mask="url(#mask-6)"/>
                    </g>
                    <path d="M53.7870181,46.5483871 C49.0775301,48.6860323 46.0481627,53.3441532 46.0481627,58.483871 C46.0481627,65.7231895 51.993494,71.6129032 59.3011747,71.6129032 C66.609006,71.6129032 72.5541867,65.7231895 72.5541867,58.483871 C72.5541867,53.344004 69.5245181,48.6858831 64.8142771,46.5483871 L53.7870181,46.5483871 Z M59.3011747,74 C50.6648795,74 43.6385241,67.0395242 43.6385241,58.483871 C43.6385241,52.313375 47.3321988,46.7305524 53.0484639,44.2608024 L53.2787349,44.1612903 L65.3224096,44.1612903 L65.5526807,44.2608024 C71.2696988,46.730254 74.9638253,52.3130766 74.9638253,58.483871 C74.9638253,67.0395242 67.9376205,74 59.3011747,74 L59.3011747,74 Z" id="Fill-4" fill="#199ED8"/>
                    <path d="M52.7171988,40.5806452 L64.6804518,40.5806452 L65.3720181,39.552254 C66.1298494,38.4265887 66.5301506,37.1169677 66.5301506,35.7646774 L66.5301506,32.8225806 C66.5301506,32.4934597 66.2599699,32.2258065 65.927741,32.2258065 C65.595512,32.2258065 65.3253313,32.4934597 65.3253313,32.8225806 L65.3253313,34.016129 C65.3253313,35.6614355 63.9741265,37 62.3132831,37 C60.6522892,37 59.3012349,35.6614355 59.3012349,34.016129 L59.3012349,32.8225806 C59.3012349,32.4934597 59.0310542,32.2258065 58.6988253,32.2258065 C58.3665964,32.2258065 58.0964157,32.4934597 58.0964157,32.8225806 L58.0964157,34.016129 C58.0964157,35.6614355 56.7452108,37 55.0843675,37 C53.4233735,37 52.0723193,35.6614355 52.0723193,34.016129 L52.0723193,32.8225806 C52.0723193,32.4934597 51.8021386,32.2258065 51.4699096,32.2258065 C51.1376807,32.2258065 50.8675,32.4934597 50.8675,32.8225806 L50.8675,35.7646774 C50.8675,37.1169677 51.2678012,38.4265887 52.0253313,39.5521048 L52.7171988,40.5806452 Z M65.9702108,42.9677419 L51.4274398,42.9677419 L50.0203614,40.8760484 C48.9982229,39.3574073 48.4578614,37.5897621 48.4578614,35.7646774 L48.4578614,32.8225806 C48.4578614,31.1772742 49.8089157,29.8387097 51.4699096,29.8387097 C53.130753,29.8387097 54.4819578,31.1772742 54.4819578,32.8225806 L54.4819578,34.016129 C54.4819578,34.34525 54.7521386,34.6129032 55.0843675,34.6129032 C55.4165964,34.6129032 55.6867771,34.34525 55.6867771,34.016129 L55.6867771,32.8225806 C55.6867771,31.1772742 57.0378313,29.8387097 58.6988253,29.8387097 C60.3596687,29.8387097 61.7108735,31.1772742 61.7108735,32.8225806 L61.7108735,34.016129 C61.7108735,34.34525 61.9810542,34.6129032 62.3132831,34.6129032 C62.645512,34.6129032 62.9156928,34.34525 62.9156928,34.016129 L62.9156928,32.8225806 C62.9156928,31.1772742 64.266747,29.8387097 65.927741,29.8387097 C67.5885843,29.8387097 68.9397892,31.1772742 68.9397892,32.8225806 L68.9397892,35.7646774 C68.9397892,37.5897621 68.3994277,39.3574073 67.3771386,40.8761976 L65.9702108,42.9677419 Z" id="Fill-6" fill="#199ED8"/>
                    <path d="M51.4698795,42.9677419 C51.1385542,42.9677419 50.8674699,43.2362903 50.8674699,43.5645161 C50.8674699,43.8927419 51.1385542,44.1612903 51.4698795,44.1612903 L67.1325301,44.1612903 C67.4638554,44.1612903 67.7349398,43.8927419 67.7349398,43.5645161 C67.7349398,43.2362903 67.4638554,42.9677419 67.1325301,42.9677419 L51.4698795,42.9677419 Z M67.1325301,46.5483871 L51.4698795,46.5483871 C49.8084337,46.5483871 48.4578313,45.2104194 48.4578313,43.5645161 C48.4578313,41.9186129 49.8084337,40.5806452 51.4698795,40.5806452 L67.1325301,40.5806452 C68.7939759,40.5806452 70.1445783,41.9186129 70.1445783,43.5645161 C70.1445783,45.2104194 68.7939759,46.5483871 67.1325301,46.5483871 L67.1325301,46.5483871 Z" id="Fill-8" fill="#199ED8"/>
                </g>
                <g id="Page-1" transform="translate(196.000000, 57.000000)">
                    <mask id="mask-8" fill="white">
                        <use xlink:href="#path-7"/>
                    </mask>
                    <g id="Clip-2"/>
                    <path d="M117.669577,145.894449 L98.056317,145.894449 L98.056317,136.16808 L94.6696803,136.16808 C96.7292408,134.381793 98.056317,131.793457 98.056317,128.871935 C98.056317,124.35233 94.9217475,120.577877 90.7027924,119.492428 L90.7027924,100.563812 L96.5549448,101.854971 C108.98677,104.594308 117.669577,115.331174 117.669577,127.963746 L117.669577,145.894449 Z M88.2510659,124.010391 C90.9548596,124.010391 93.1550704,126.190043 93.1550704,128.871935 C93.1550704,131.554373 90.9548596,133.736214 88.2510659,133.736214 C85.5472722,133.736214 83.3492677,131.554373 83.3492677,128.871935 C83.3492677,126.190043 85.5472722,124.010391 88.2510659,124.010391 L88.2510659,124.010391 Z M93.1550704,145.894449 L29.4184561,145.894449 L29.4184561,136.16808 L24.5144516,136.16808 L24.5144516,145.894449 L4.90394933,145.894449 L4.90394933,127.963746 C4.90394933,115.331174 13.5867565,104.594308 26.0163753,101.854971 L31.8679762,100.563812 L31.8679762,119.146112 L24.5144516,119.146112 C19.1068641,119.146112 14.7092004,123.510341 14.7092004,128.871935 L14.7092004,141.03017 L22.0627251,141.03017 L22.0627251,136.16808 L19.6132049,136.16808 L19.6132049,128.871935 C19.6132049,126.190043 21.8106578,124.010391 24.5144516,124.010391 L44.1255054,124.010391 C46.8292991,124.010391 49.0295099,126.190043 49.0295099,128.871935 L49.0295099,136.16808 L46.5772318,136.16808 L46.5772318,141.03017 L53.9307565,141.03017 L53.9307565,128.871935 C53.9307565,123.508152 49.5336444,119.146112 44.1255054,119.146112 L36.7719807,119.146112 L36.7719807,99.4827391 L41.1177969,98.5253116 L39.0212812,113.07438 L61.2864874,126.878297 L83.550039,113.07438 L81.4535233,98.5253116 L85.8015457,99.4827391 L85.8015457,119.492428 C81.5803843,120.577877 78.4458148,124.35233 78.4458148,128.871935 C78.4458148,134.236264 82.8429269,138.598304 88.2510659,138.598304 C90.0458731,138.598304 91.7049942,138.082935 93.1550704,137.247511 L93.1550704,145.894449 Z M76.5235951,98.6834239 L78.2450435,110.627743 L63.9279538,119.501181 L76.5235951,98.6834239 Z M58.6428148,119.502822 L44.3279314,110.63212 L46.0471735,98.6834239 L58.6428148,119.502822 Z M49.0295099,94.1567065 L49.0295099,89.7115072 C52.7652901,91.4190109 56.9086803,92.3999638 61.2864874,92.3999638 C65.6648462,92.3999638 69.8076848,91.4190109 73.5440166,89.7115072 L73.5440166,94.1567065 L61.2864874,114.420797 L49.0295099,94.1567065 Z M36.7719807,63.2197609 L36.7719807,38.7714384 C36.7719807,33.4820616 41.111178,29.1780145 46.443752,29.1780145 C51.0394291,29.1780145 55.0278283,32.4223261 55.9279897,36.8905036 L56.8264964,41.3357029 L65.7486848,41.3357029 L66.6449852,36.8905036 C67.5456982,32.4223261 71.5335457,29.1780145 76.1292229,29.1780145 C81.4617969,29.1780145 85.8015457,33.4820616 85.8015457,38.7714384 L85.8015457,63.2197609 C85.8015457,76.6281232 74.8043529,87.5362319 61.2864874,87.5362319 C47.768622,87.5362319 36.7719807,76.6281232 36.7719807,63.2197609 L36.7719807,63.2197609 Z M31.8679762,38.7714384 L31.8679762,56.1867717 C28.7786354,53.3659167 26.9667296,49.371529 26.9667296,45.052163 L26.9667296,26.1837283 C26.9667296,22.9591123 28.7720166,20.0545507 31.6826489,18.616221 C34.6236175,17.1565543 36.9209045,14.6842029 38.1509045,11.6494312 L38.7410839,10.1810109 C40.0427879,6.94982971 43.1514336,4.86209058 46.6594157,4.86209058 L77.5792991,4.86209058 C87.5185816,4.86209058 95.6067969,12.8847862 95.6067969,22.7451957 L95.6067969,45.0543514 C95.6067969,49.3737174 93.794891,53.3681051 90.7027924,56.1889601 L90.7027924,38.7736268 C90.7027924,30.8001703 84.1661422,24.3159239 76.1292229,24.3159239 C69.2048193,24.3159239 63.1954695,29.2037283 61.838057,35.9352645 L61.7305009,36.4741594 L60.8446803,36.4741594 L60.7371242,35.9352645 C59.3797117,29.2037283 53.3709135,24.3159239 46.443752,24.3159239 C38.4073843,24.3159239 31.8679762,30.8001703 31.8679762,38.7714384 L31.8679762,38.7714384 Z M97.6172677,97.1061304 L78.4458148,92.8808659 L78.4458148,86.8715036 C85.855048,81.5695435 90.7027924,72.9565254 90.7027924,63.2197609 L90.7027924,62.1726087 C96.770057,58.561192 100.508595,52.1628406 100.508595,45.0543514 L100.508595,22.7451957 C100.508595,10.2023478 90.2223753,0 77.5770928,0 L46.6594157,0 C41.130483,0 36.2353036,3.28917391 34.1845682,8.37284058 L33.5938372,9.84126087 C32.8183305,11.7692464 31.3594291,13.3399746 29.4874022,14.2651232 C24.9088238,16.5388768 22.0627251,21.1060797 22.0627251,26.1859167 L22.0627251,45.0543514 C22.0627251,52.1606522 25.8007117,58.5633804 31.8679762,62.1726087 L31.8679762,63.2197609 C31.8679762,72.954337 36.7179269,81.5695435 44.1255054,86.8715036 L44.1255054,92.8808659 L24.9562587,97.103942 C10.2618955,100.346065 -5.5156951e-05,113.029518 -5.5156951e-05,127.963746 L-5.5156951e-05,150.755993 L122.571375,150.755993 L122.571375,127.963746 C122.571375,113.031707 112.311079,100.346065 97.6172677,97.1061304 L97.6172677,97.1061304 Z" id="Fill-1" fill="#199ED8" mask="url(#mask-8)"/>
                </g>
                <path d="M149.204827,61.1658823 L141.289121,61.1658823 C142.04516,60.6917939 142.896039,60.2686977 143.730888,59.8648957 C145.057296,59.2130243 146.319588,58.5928506 147.217218,57.7700869 L149.204827,57.7700869 C149.413205,57.7700869 149.580175,57.5978164 149.580175,57.3814447 C149.580175,57.1678294 149.413205,56.9955589 149.204827,56.9955589 L147.895783,56.9955589 C147.899791,56.9886681 147.899791,56.9886681 147.905134,56.9831554 C148.78807,55.6697654 148.892259,54.0490449 148.176293,52.6488306 C147.346787,51.0129503 145.599614,50 143.605327,50 C141.872848,50 140.479651,50.5168114 139.468482,51.5352744 C139.316206,51.6868724 139.316206,51.928051 139.457796,52.0851617 C139.604729,52.2353815 139.838487,52.239516 139.989428,52.0906743 C140.856335,51.2169185 142.077219,50.7717717 143.605327,50.7717717 C145.317769,50.7717717 146.815155,51.6276113 147.513756,53.005775 C148.102826,54.167567 148.020009,55.4589064 147.289349,56.5421431 C147.18516,56.6978756 147.055591,56.8480954 146.914001,56.9955589 L137.375348,56.9955589 C137.16697,56.9955589 137,57.1678294 137,57.3814447 C137,57.5909256 137.16697,57.7631961 137.375348,57.7631961 L145.974962,57.7631961 C145.238959,58.2648477 144.34133,58.7058601 143.412977,59.1634104 C142.20278,59.7518863 140.955181,60.3706818 139.964048,61.1658823 L137.375348,61.1658823 C137.16697,61.1658823 137,61.3381527 137,61.5476336 C137,61.7653835 137.16697,61.9376539 137.375348,61.9376539 L139.186637,61.9376539 C138.231569,63.1146057 137.913659,64.6347203 138.403882,66.0211529 C139.066419,67.8968337 140.965867,69.0007429 143.511823,69.0007429 L143.709516,69.0007429 C145.30174,68.9607761 146.606776,68.5142511 147.576537,67.6653022 C147.738164,67.5233514 147.754193,67.2807946 147.623289,67.1195494 C147.488377,66.9583043 147.253283,66.9362536 147.097,67.0768263 C146.256807,67.8086313 145.113398,68.1986516 143.689479,68.2289712 C141.403996,68.2524 139.671517,67.3565936 139.107827,65.7579237 C138.638976,64.4335084 139.082448,62.9547387 140.229864,61.9376539 L149.204827,61.9376539 C149.413205,61.9376539 149.580175,61.7653835 149.580175,61.5476336 C149.580175,61.3381527 149.413205,61.1658823 149.204827,61.1658823" id="Fill-1" stroke="#199ED8" fill="#199ED8"/>
                <path d="M65.2048269,172.165882 L57.2891211,172.165882 C58.0451605,171.691794 58.8960387,171.268698 59.7308879,170.864896 C61.0572962,170.213024 62.3195882,169.592851 63.217218,168.770087 L65.2048269,168.770087 C65.4132052,168.770087 65.580175,168.597816 65.580175,168.381445 C65.580175,168.167829 65.4132052,167.995559 65.2048269,167.995559 L63.8957834,167.995559 C63.8997906,167.988668 63.8997906,167.988668 63.9051337,167.983155 C64.7880702,166.669765 64.8922593,165.049045 64.1762927,163.648831 C63.3467866,162.01295 61.5996142,161 59.6053266,161 C57.8728476,161 56.4796513,161.516811 55.468482,162.535274 C55.3162055,162.686872 55.3162055,162.928051 55.4577959,163.085162 C55.6047294,163.235382 55.8384871,163.239516 55.9894279,163.090674 C56.8563352,162.216919 58.0772187,161.771772 59.6053266,161.771772 C61.3177692,161.771772 62.8151546,162.627611 63.5137564,164.005775 C64.102826,165.167567 64.0200089,166.458906 63.2893489,167.542143 C63.1851598,167.697876 63.0555912,167.848095 62.9140008,167.995559 L53.3753482,167.995559 C53.1669698,167.995559 53,168.167829 53,168.381445 C53,168.590926 53.1669698,168.763196 53.3753482,168.763196 L61.9749624,168.763196 C61.2389594,169.264848 60.3413296,169.70586 59.4129773,170.16341 C58.20278,170.751886 56.9551814,171.370682 55.9640485,172.165882 L53.3753482,172.165882 C53.1669698,172.165882 53,172.338153 53,172.547634 C53,172.765383 53.1669698,172.937654 53.3753482,172.937654 L55.1866369,172.937654 C54.2315695,174.114606 53.9136589,175.63472 54.4038823,177.021153 C55.0664186,178.896834 56.9658675,180.000743 59.5118235,180.000743 L59.7095157,180.000743 C61.3017401,179.960776 62.6067763,179.514251 63.5765371,178.665302 C63.7381639,178.523351 63.754193,178.280795 63.6232886,178.119549 C63.488377,177.958304 63.2532835,177.936254 63.0969997,178.076826 C62.2568075,178.808631 61.1133981,179.198652 59.6894794,179.228971 C57.4039963,179.2524 55.6715173,178.356594 55.1078272,176.757924 C54.6389759,175.433508 55.0824477,173.954739 56.2298644,172.937654 L65.2048269,172.937654 C65.4132052,172.937654 65.580175,172.765383 65.580175,172.547634 C65.580175,172.338153 65.4132052,172.165882 65.2048269,172.165882" id="Fill-1" stroke="#199ED8" fill="#199ED8"/>
                <path d="M116.204827,288.165882 L108.289121,288.165882 C109.04516,287.691794 109.896039,287.268698 110.730888,286.864896 C112.057296,286.213024 113.319588,285.592851 114.217218,284.770087 L116.204827,284.770087 C116.413205,284.770087 116.580175,284.597816 116.580175,284.381445 C116.580175,284.167829 116.413205,283.995559 116.204827,283.995559 L114.895783,283.995559 C114.899791,283.988668 114.899791,283.988668 114.905134,283.983155 C115.78807,282.669765 115.892259,281.049045 115.176293,279.648831 C114.346787,278.01295 112.599614,277 110.605327,277 C108.872848,277 107.479651,277.516811 106.468482,278.535274 C106.316206,278.686872 106.316206,278.928051 106.457796,279.085162 C106.604729,279.235382 106.838487,279.239516 106.989428,279.090674 C107.856335,278.216919 109.077219,277.771772 110.605327,277.771772 C112.317769,277.771772 113.815155,278.627611 114.513756,280.005775 C115.102826,281.167567 115.020009,282.458906 114.289349,283.542143 C114.18516,283.697876 114.055591,283.848095 113.914001,283.995559 L104.375348,283.995559 C104.16697,283.995559 104,284.167829 104,284.381445 C104,284.590926 104.16697,284.763196 104.375348,284.763196 L112.974962,284.763196 C112.238959,285.264848 111.34133,285.70586 110.412977,286.16341 C109.20278,286.751886 107.955181,287.370682 106.964048,288.165882 L104.375348,288.165882 C104.16697,288.165882 104,288.338153 104,288.547634 C104,288.765383 104.16697,288.937654 104.375348,288.937654 L106.186637,288.937654 C105.231569,290.114606 104.913659,291.63472 105.403882,293.021153 C106.066419,294.896834 107.965867,296.000743 110.511823,296.000743 L110.709516,296.000743 C112.30174,295.960776 113.606776,295.514251 114.576537,294.665302 C114.738164,294.523351 114.754193,294.280795 114.623289,294.119549 C114.488377,293.958304 114.253283,293.936254 114.097,294.076826 C113.256807,294.808631 112.113398,295.198652 110.689479,295.228971 C108.403996,295.2524 106.671517,294.356594 106.107827,292.757924 C105.638976,291.433508 106.082448,289.954739 107.229864,288.937654 L116.204827,288.937654 C116.413205,288.937654 116.580175,288.765383 116.580175,288.547634 C116.580175,288.338153 116.413205,288.165882 116.204827,288.165882" id="Fill-1" stroke="#199ED8" fill="#199ED8"/>
            </g>
        </g>
    </symbol>
</svg>